<?xml version="1.0" encoding="UTF-8"?>
<svg width="256" height="128" viewBox="0 0 256 128" xmlns="http://www.w3.org/2000/svg">
  <!-- Fel Energy Enhanced Player Frame texture -->
  <defs>
    <linearGradient id="felFrameGradient" x1="0%" y1="0%" x2="0%" y2="100%">
      <stop offset="0%" style="stop-color:#0A1A0A;stop-opacity:0.9" />
      <stop offset="50%" style="stop-color:#081408;stop-opacity:0.8" />
      <stop offset="100%" style="stop-color:#050A05;stop-opacity:0.9" />
    </linearGradient>
    
    <linearGradient id="felHighlightGradient" x1="0%" y1="0%" x2="0%" y2="100%">
      <stop offset="0%" style="stop-color:#1AFF1A;stop-opacity:0.3" />
      <stop offset="100%" style="stop-color:#1AFF1A;stop-opacity:0.0" />
    </linearGradient>
    
    <linearGradient id="felBorderGradient" x1="0%" y1="0%" x2="100%" y2="100%">
      <stop offset="0%" style="stop-color:#00AA00;stop-opacity:1" />
      <stop offset="50%" style="stop-color:#1AFF1A;stop-opacity:1" />
      <stop offset="100%" style="stop-color:#00AA00;stop-opacity:1" />
    </linearGradient>
    
    <filter id="felGlow" x="-5%" y="-5%" width="110%" height="110%">
      <feGaussianBlur stdDeviation="2" result="blur" />
      <feComposite in="SourceGraphic" in2="blur" operator="over" />
    </filter>
    
    <filter id="energyBorderGlow" x="-10%" y="-10%" width="120%" height="120%">
      <feGaussianBlur stdDeviation="1" result="blur" />
      <feFlood flood-color="#00AA00" flood-opacity="0.5" result="glow" />
      <feComposite in="glow" in2="blur" operator="in" result="softGlow" />
      <feComposite in="SourceGraphic" in2="softGlow" operator="over" />
    </filter>
  </defs>
  
  <!-- Main frame background with rounded corners -->
  <rect x="8" y="8" width="240" height="112" rx="6" ry="6" fill="url(#felFrameGradient)" filter="url(#felGlow)" />
  
  <!-- Portrait area circle cutout (indicated with a different color) -->
  <circle cx="58" cy="64" r="42" fill="#0D1F0D" />
  
  <!-- Player info area (right of portrait) -->
  <rect x="108" y="22" width="130" height="30" rx="4" ry="4" fill="#0D1F0D" />
  
  <!-- Health bar area -->
  <rect x="108" y="60" width="130" height="20" rx="3" ry="3" fill="#122A12" />
  
  <!-- Power bar area -->
  <rect x="108" y="86" width="130" height="20" rx="3" ry="3" fill="#122A12" />
  
  <!-- Top highlight for Fel Energy effect -->
  <path d="M 14,14 H 242 V 20 C 242,17 240,17 236,17 H 20 C 16,17 14,17 14,20 V 14 Z" 
        fill="url(#felHighlightGradient)" />
        
  <!-- Bottom shadow for Fel Energy effect -->
  <path d="M 14,114 H 242 V 108 C 242,111 240,111 236,111 H 20 C 16,111 14,111 14,108 V 114 Z" 
        fill="#000000" fill-opacity="0.3" />
  
  <!-- Fel Energy frame edge (border) -->
  <rect x="8" y="8" width="240" height="112" rx="6" ry="6" 
        fill="none" stroke="url(#felBorderGradient)" stroke-width="1.5" filter="url(#energyBorderGlow)" />
  
  <!-- Fel corruption tendrils decorations -->
  <path d="M 32,8 C 30,4 34,4 36,0 C 34,4 30,4 32,8 Z M 120,8 C 118,4 122,4 124,0 C 122,4 118,4 120,8 Z
           M 208,8 C 206,4 210,4 212,0 C 210,4 206,4 208,8 Z
           M 8,48 C 4,46 4,50 0,52 C 4,50 4,46 8,48 Z M 8,80 C 4,82 4,78 0,76 C 4,78 4,82 8,80 Z
           M 248,48 C 252,46 252,50 256,52 C 252,50 252,46 248,48 Z M 248,80 C 252,82 252,78 256,76 C 252,78 252,82 248,80 Z" 
        fill="#1AFF1A" fill-opacity="0.3" />
  
  <!-- Fel energy flow -->
  <path d="M 8,64 C 24,54 40,74 56,64 C 72,54 88,74 104,64 C 120,54 136,74 152,64 C 168,54 184,74 200,64 C 216,54 232,74 248,64" 
        fill="none" stroke="#1AFF1A" stroke-width="0.5" stroke-opacity="0.2" />
</svg>