<?xml version="1.0" encoding="UTF-8"?>
<svg width="64" height="64" viewBox="0 0 64 64" xmlns="http://www.w3.org/2000/svg">
  <!-- Warlock class icon -->
  <defs>
    <linearGradient id="warlockGradient" x1="0%" y1="0%" x2="100%" y2="100%">
      <stop offset="0%" style="stop-color:#9482C9;stop-opacity:1" />
      <stop offset="100%" style="stop-color:#6B59A8;stop-opacity:1" />
    </linearGradient>
  </defs>
  
  <!-- Background circle -->
  <circle cx="32" cy="32" r="30" fill="black" stroke="url(#warlockGradient)" stroke-width="2" />
  
  <!-- Warlock class symbol (demonic eye) -->
  <circle cx="32" cy="32" r="12" fill="url(#warlockGradient)" />
  <circle cx="32" cy="32" r="5" fill="black" />
  <circle cx="34" cy="30" r="2" fill="white" />
  
  <!-- Fel fire elements -->
  <path d="M18,18 L24,24 M40,40 L46,46 M18,46 L24,40 M40,24 L46,18
           M14,32 C 14,32 20,34 20,38 C 20,34 24,34 24,32
           M50,32 C 50,32 44,34 44,38 C 44,34 40,34 40,32
           M32,14 C 32,14 34,20 38,20 C 34,20 34,24 32,24
           M32,50 C 32,50 34,44 38,44 C 34,44 34,40 32,40" 
        fill="none" stroke="url(#warlockGradient)" stroke-width="2" />
</svg>