<?xml version="1.0" encoding="UTF-8" standalone="no"?>
<svg xmlns="http://www.w3.org/2000/svg" width="256" height="16" viewBox="0 0 256 16">
  <defs>
    <linearGradient id="gradient" x1="0%" y1="0%" x2="100%" y2="0%">
      <stop offset="0%" stop-color="#1AFF1A" stop-opacity="1" />
      <stop offset="100%" stop-color="#40FF40" stop-opacity="0.9" />
    </linearGradient>
    <filter id="glow" x="-10%" y="-10%" width="120%" height="120%">
      <feGaussianBlur in="SourceGraphic" stdDeviation="1" result="blur" />
      <feComposite in="blur" in2="SourceGraphic" operator="over" />
    </filter>
    <pattern id="felmist" patternUnits="userSpaceOnUse" width="32" height="16">
      <path d="M 5,8 C 7.5,4 12.5,12 16,8 C 19.5,4 24.5,12 27,8" stroke="#99FF99" stroke-width="0.5" fill="none" opacity="0.2">
        <animate attributeName="d" values="M 5,8 C 7.5,4 12.5,12 16,8 C 19.5,4 24.5,12 27,8;M 5,8 C 7.5,12 12.5,4 16,8 C 19.5,12 24.5,4 27,8;M 5,8 C 7.5,4 12.5,12 16,8 C 19.5,4 24.5,12 27,8" dur="4s" repeatCount="indefinite" />
      </path>
    </pattern>
  </defs>
  <rect width="256" height="16" fill="url(#gradient)" filter="url(#glow)" rx="4" ry="4" />
  <rect width="256" height="16" fill="url(#felmist)" rx="4" ry="4" />
  <g opacity="0.3">
    <path d="M 8,8 L 16,4 L 24,8 L 32,4 L 40,8 L 48,4 L 56,8 L 64,4 L 72,8 L 80,4 L 88,8 L 96,4 L 104,8 L 112,4 L 120,8 L 128,4 L 136,8 L 144,4 L 152,8 L 160,4 L 168,8 L 176,4 L 184,8 L 192,4 L 200,8 L 208,4 L 216,8 L 224,4 L 232,8 L 240,4 L 248,8" stroke="#FFF" stroke-width="0.5" fill="none" />
  </g>
</svg>