<?xml version="1.0" encoding="UTF-8" standalone="no"?>
<svg xmlns="http://www.w3.org/2000/svg" width="256" height="32" viewBox="0 0 256 32">
  <defs>
    <linearGradient id="gradient" x1="0%" y1="0%" x2="100%" y2="0%">
      <stop offset="0%" stop-color="#1AFF1A" stop-opacity="1" />
      <stop offset="100%" stop-color="#40FF40" stop-opacity="0.9" />
    </linearGradient>
    <filter id="glow" x="-10%" y="-10%" width="120%" height="120%">
      <feGaussianBlur in="SourceGraphic" stdDeviation="2" result="blur" />
      <feComposite in="blur" in2="SourceGraphic" operator="over" />
    </filter>
    <pattern id="felmist" patternUnits="userSpaceOnUse" width="64" height="32">
      <path d="M 10,16 C 15,8 25,24 32,16 C 39,8 49,24 54,16" stroke="#99FF99" stroke-width="1" fill="none" opacity="0.2">
        <animate attributeName="d" values="M 10,16 C 15,8 25,24 32,16 C 39,8 49,24 54,16;M 10,16 C 15,24 25,8 32,16 C 39,24 49,8 54,16;M 10,16 C 15,8 25,24 32,16 C 39,8 49,24 54,16" dur="4s" repeatCount="indefinite" />
      </path>
    </pattern>
  </defs>
  <rect width="256" height="32" fill="url(#gradient)" filter="url(#glow)" rx="6" ry="6" />
  <rect width="256" height="32" fill="url(#felmist)" rx="6" ry="6" />
  <g opacity="0.2">
    <path d="M 16,16 L 32,8 L 48,16 L 64,8 L 80,16 L 96,8 L 112,16 L 128,8 L 144,16 L 160,8 L 176,16 L 192,8 L 208,16 L 224,8 L 240,16" stroke="#FFF" stroke-width="1" fill="none" />
  </g>
</svg>