<?xml version="1.0" encoding="UTF-8"?>
<svg width="64" height="64" viewBox="0 0 64 64" xmlns="http://www.w3.org/2000/svg">
  <!-- Thunder Storm themed action button texture -->
  <defs>
    <linearGradient id="thunderButtonGradient" x1="0%" y1="0%" x2="100%" y2="100%">
      <stop offset="0%" style="stop-color:#0A0A1A;stop-opacity:0.9" />
      <stop offset="50%" style="stop-color:#080816;stop-opacity:0.8" />
      <stop offset="100%" style="stop-color:#0A0A1A;stop-opacity:0.9" />
    </linearGradient>
    
    <linearGradient id="thunderBorderGradient" x1="0%" y1="0%" x2="100%" y2="100%">
      <stop offset="0%" style="stop-color:#66CCFF;stop-opacity:0.9" />
      <stop offset="50%" style="stop-color:#0D9DE6;stop-opacity:0.8" />
      <stop offset="100%" style="stop-color:#0066AA;stop-opacity:0.9" />
    </linearGradient>
    
    <filter id="thunderGlow" x="-20%" y="-20%" width="140%" height="140%">
      <feGaussianBlur in="SourceAlpha" stdDeviation="2" result="blur" />
      <feOffset dx="0" dy="0" result="offsetBlur" />
      <feComposite in="SourceAlpha" in2="offsetBlur" operator="out" result="innerShadow" />
      <feFlood flood-color="#0D9DE6" flood-opacity="0.3" result="color" />
      <feComposite in="color" in2="innerShadow" operator="in" result="glow" />
      <feComposite in="glow" in2="SourceGraphic" operator="over" />
    </filter>
  </defs>
  
  <!-- Main button background -->
  <rect x="2" y="2" width="60" height="60" rx="4" ry="4" 
        fill="url(#thunderButtonGradient)" stroke="url(#thunderBorderGradient)" stroke-width="1" filter="url(#thunderGlow)" />
  
  <!-- Lightning bolt corner embellishments -->
  <path d="M 6,4 L 4,8 L 6,7 L 5,10 L 7,8 L 6,4 Z" fill="#0D9DE6" fill-opacity="0.7" />
  <path d="M 58,4 L 60,8 L 58,7 L 59,10 L 57,8 L 58,4 Z" fill="#0D9DE6" fill-opacity="0.7" />
  <path d="M 6,60 L 4,56 L 6,57 L 5,54 L 7,56 L 6,60 Z" fill="#0D9DE6" fill-opacity="0.7" />
  <path d="M 58,60 L 60,56 L 58,57 L 59,54 L 57,56 L 58,60 Z" fill="#0D9DE6" fill-opacity="0.7" />
  
  <!-- Highlight overlay for top edge -->
  <path d="M 6,2 H 58 C 60,2 62,4 62,6 V 10 C 62,8 60,4 58,4 H 6 C 4,4 2,8 2,10 V 6 C 2,4 4,2 6,2 Z" 
        fill="#66CCFF" fill-opacity="0.2" />
  
  <!-- Subtle inner border -->
  <rect x="6" y="6" width="52" height="52" rx="2" ry="2" 
        fill="none" stroke="#000A14" stroke-width="0.5" stroke-opacity="0.2" />
</svg>