<?xml version="1.0" encoding="UTF-8"?>
<svg width="256" height="32" viewBox="0 0 256 32" xmlns="http://www.w3.org/2000/svg">
  <!-- Fel Energy Theme Timer Bar -->
  <defs>
    <linearGradient id="timerGood" x1="0%" y1="50%" x2="100%" y2="50%">
      <stop offset="0%" style="stop-color:#3DFF3D;stop-opacity:1" />
      <stop offset="50%" style="stop-color:#80FF80;stop-opacity:1" />
      <stop offset="100%" style="stop-color:#3DFF3D;stop-opacity:1" />
    </linearGradient>
    <linearGradient id="timerWarning" x1="0%" y1="50%" x2="100%" y2="50%">
      <stop offset="0%" style="stop-color:#FFA31A;stop-opacity:1" />
      <stop offset="50%" style="stop-color:#FFBF00;stop-opacity:1" />
      <stop offset="100%" style="stop-color:#FFA31A;stop-opacity:1" />
    </linearGradient>
    <linearGradient id="timerDanger" x1="0%" y1="50%" x2="100%" y2="50%">
      <stop offset="0%" style="stop-color:#E64D0D;stop-opacity:1" />
      <stop offset="50%" style="stop-color:#FF6347;stop-opacity:1" />
      <stop offset="100%" style="stop-color:#E64D0D;stop-opacity:1" />
    </linearGradient>
    <filter id="timerGlow" x="-10%" y="-30%" width="120%" height="160%">
      <feGaussianBlur stdDeviation="2" result="blur" />
      <feComposite in="SourceGraphic" in2="blur" operator="over" />
    </filter>
  </defs>
  
  <!-- Base Bar - Good Timer -->
  <rect x="0" y="0" width="256" height="32" rx="4" fill="#0A1A0A" />
  <rect x="2" y="2" width="252" height="28" rx="3" fill="url(#timerGood)" filter="url(#timerGlow)" />
  
  <!-- Time Marker Lines -->
  <rect x="64" y="0" width="2" height="32" fill="#0A1A0A" fill-opacity="0.6" />
  <rect x="128" y="0" width="2" height="32" fill="#0A1A0A" fill-opacity="0.6" />
  <rect x="192" y="0" width="2" height="32" fill="#0A1A0A" fill-opacity="0.6" />
  
  <!-- Fel Corruption Effects -->
  <path d="M32,6 C30,10 34,12 30,16 C26,20 30,22 28,26" stroke="#99FF66" stroke-width="1" stroke-opacity="0.6" fill="none" />
  <path d="M96,6 C94,10 98,12 94,16 C90,20 94,22 92,26" stroke="#99FF66" stroke-width="1" stroke-opacity="0.6" fill="none" />
  <path d="M160,6 C158,10 162,12 158,16 C154,20 158,22 156,26" stroke="#99FF66" stroke-width="1" stroke-opacity="0.6" fill="none" />
  <path d="M224,6 C222,10 226,12 222,16 C218,20 222,22 220,26" stroke="#99FF66" stroke-width="1" stroke-opacity="0.6" fill="none" />
  
  <!-- Fel Corruption Spots -->
  <circle cx="32" cy="16" r="4" fill="#1AFF1A" fill-opacity="0.1" />
  <circle cx="32" cy="16" r="2" fill="#1AFF1A" fill-opacity="0.2" />
  
  <circle cx="96" cy="16" r="4" fill="#1AFF1A" fill-opacity="0.1" />
  <circle cx="96" cy="16" r="2" fill="#1AFF1A" fill-opacity="0.2" />
  
  <circle cx="160" cy="16" r="4" fill="#1AFF1A" fill-opacity="0.1" />
  <circle cx="160" cy="16" r="2" fill="#1AFF1A" fill-opacity="0.2" />
  
  <circle cx="224" cy="16" r="4" fill="#1AFF1A" fill-opacity="0.1" />
  <circle cx="224" cy="16" r="2" fill="#1AFF1A" fill-opacity="0.2" />
  
  <!-- Border -->
  <rect x="0" y="0" width="256" height="32" rx="4" stroke="#1AFF1A" stroke-width="1" fill="none" />
</svg>