<?xml version="1.0" encoding="UTF-8"?>
<svg width="64" height="64" viewBox="0 0 64 64" xmlns="http://www.w3.org/2000/svg">
  <!-- Combat Indicator HUD Element -->
  <defs>
    <linearGradient id="indicatorGradient" x1="0%" y1="0%" x2="100%" y2="100%">
      <stop offset="0%" style="stop-color:#FF6347;stop-opacity:0.8" />
      <stop offset="100%" style="stop-color:#CD5C5C;stop-opacity:0.8" />
    </linearGradient>
    
    <filter id="glow" x="-30%" y="-30%" width="160%" height="160%">
      <feGaussianBlur stdDeviation="2" result="blur" />
      <feComposite in="SourceGraphic" in2="blur" operator="over" />
    </filter>
    
    <mask id="circleMask">
      <circle cx="32" cy="32" r="24" fill="white" />
    </mask>
  </defs>
  
  <!-- Pulsing combat glow (circle) -->
  <circle cx="32" cy="32" r="28" fill="url(#indicatorGradient)" opacity="0.3" filter="url(#glow)">
    <animate attributeName="opacity" values="0.3;0.6;0.3" dur="1.5s" repeatCount="indefinite" />
  </circle>
  
  <!-- Crossed swords symbol -->
  <g mask="url(#circleMask)">
    <!-- Sword 1 -->
    <path d="M 20,44 L 32,32 L 35,35 L 23,47 L 20,44 Z M 22,41 L 21,42 A 1,1 0,0,1 20,41 L 21,40 Z" 
          fill="#FF6347" filter="url(#glow)" />
    
    <!-- Sword 2 -->
    <path d="M 44,20 L 32,32 L 29,29 L 41,17 L 44,20 Z M 42,23 L 43,22 A 1,1 0,0,1 44,23 L 43,24 Z" 
          fill="#FF6347" filter="url(#glow)" />
          
    <!-- Outer glow line -->
    <path d="M 20,44 L 32,32 L 35,35 L 23,47 L 20,44 Z M 22,41 L 21,42 A 1,1 0,0,1 20,41 L 21,40 Z" 
          fill="none" stroke="#FFA500" stroke-width="0.5" stroke-opacity="0.8" />
    <path d="M 44,20 L 32,32 L 29,29 L 41,17 L 44,20 Z M 42,23 L 43,22 A 1,1 0,0,1 44,23 L 43,24 Z" 
          fill="none" stroke="#FFA500" stroke-width="0.5" stroke-opacity="0.8" />
  </g>
</svg>