<?xml version="1.0" encoding="UTF-8"?>
<svg width="64" height="64" viewBox="0 0 64 64" xmlns="http://www.w3.org/2000/svg">
  <!-- Proc Indicator HUD Element -->
  <defs>
    <linearGradient id="procGradient" x1="0%" y1="0%" x2="100%" y2="100%">
      <stop offset="0%" style="stop-color:#FFD700;stop-opacity:0.8" />
      <stop offset="100%" style="stop-color:#DAA520;stop-opacity:0.8" />
    </linearGradient>
    
    <filter id="glow" x="-30%" y="-30%" width="160%" height="160%">
      <feGaussianBlur stdDeviation="3" result="blur" />
      <feComposite in="SourceGraphic" in2="blur" operator="over" />
    </filter>
    
    <mask id="starMask">
      <path d="M 32,12 L 38,26 L 52,26 L 40,36 L 46,50 L 32,40 L 18,50 L 24,36 L 12,26 L 26,26 Z" fill="white" />
    </mask>
  </defs>
  
  <!-- Pulsing proc glow (star shape) -->
  <path d="M 32,12 L 38,26 L 52,26 L 40,36 L 46,50 L 32,40 L 18,50 L 24,36 L 12,26 L 26,26 Z" 
        fill="url(#procGradient)" filter="url(#glow)">
    <animate attributeName="opacity" values="0.5;1.0;0.5" dur="1.2s" repeatCount="indefinite" />
  </path>
  
  <!-- Sparkle effects -->
  <g mask="url(#starMask)">
    <circle cx="32" cy="32" r="24" fill="none" stroke="#FFFFFF" stroke-width="0.5" stroke-opacity="0.6">
      <animate attributeName="r" values="24;28;24" dur="2s" repeatCount="indefinite" />
    </circle>
    
    <circle cx="32" cy="32" r="16" fill="none" stroke="#FFFFFF" stroke-width="0.5" stroke-opacity="0.6">
      <animate attributeName="r" values="16;20;16" dur="2s" repeatCount="indefinite" begin="0.5s" />
    </circle>
    
    <path d="M 32,16 L 32,48 M 16,32 L 48,32" stroke="#FFFFFF" stroke-width="0.5" stroke-opacity="0.8">
      <animate attributeName="stroke-opacity" values="0.8;0.3;0.8" dur="1.5s" repeatCount="indefinite" />
    </path>
  </g>
</svg>