<?xml version="1.0" encoding="UTF-8"?>
<svg width="128" height="32" viewBox="0 0 128 32" xmlns="http://www.w3.org/2000/svg">
  <!-- Resource Tracker HUD Element -->
  <defs>
    <linearGradient id="trackerBgGradient" x1="0%" y1="0%" x2="0%" y2="100%">
      <stop offset="0%" style="stop-color:#222222;stop-opacity:0.9" />
      <stop offset="100%" style="stop-color:#111111;stop-opacity:0.9" />
    </linearGradient>
    
    <linearGradient id="borderGradient" x1="0%" y1="0%" x2="100%" y2="100%">
      <stop offset="0%" style="stop-color:#666666;stop-opacity:1" />
      <stop offset="100%" style="stop-color:#444444;stop-opacity:1" />
    </linearGradient>
    
    <filter id="glow" x="-10%" y="-20%" width="120%" height="140%">
      <feGaussianBlur stdDeviation="0.5" result="blur" />
      <feComposite in="SourceGraphic" in2="blur" operator="over" />
    </filter>
  </defs>
  
  <!-- Tracker background panel -->
  <rect x="2" y="2" width="124" height="28" rx="4" ry="4" fill="url(#trackerBgGradient)" filter="url(#glow)" />
  
  <!-- Tracker border -->
  <rect x="2" y="2" width="124" height="28" rx="4" ry="4" fill="none" stroke="url(#borderGradient)" stroke-width="1" />
  
  <!-- Resource orbs - can be recolored for different resources -->
  <circle cx="16" cy="16" r="10" fill="#4169E1" opacity="0.8" />
  <circle cx="44" cy="16" r="10" fill="#4169E1" opacity="0.8" />
  <circle cx="72" cy="16" r="10" fill="#4169E1" opacity="0.8" />
  <circle cx="100" cy="16" r="10" fill="#4169E1" opacity="0.8" />
  
  <!-- Orb highlights -->
  <path d="M 16,6 A 10,10 0 0,1 26,16" fill="none" stroke="#FFFFFF" stroke-width="1.5" stroke-opacity="0.3" />
  <path d="M 44,6 A 10,10 0 0,1 54,16" fill="none" stroke="#FFFFFF" stroke-width="1.5" stroke-opacity="0.3" />
  <path d="M 72,6 A 10,10 0 0,1 82,16" fill="none" stroke="#FFFFFF" stroke-width="1.5" stroke-opacity="0.3" />
  <path d="M 100,6 A 10,10 0 0,1 110,16" fill="none" stroke="#FFFFFF" stroke-width="1.5" stroke-opacity="0.3" />
  
  <!-- Orb borders -->
  <circle cx="16" cy="16" r="10" fill="none" stroke="#000000" stroke-width="1" stroke-opacity="0.5" />
  <circle cx="44" cy="16" r="10" fill="none" stroke="#000000" stroke-width="1" stroke-opacity="0.5" />
  <circle cx="72" cy="16" r="10" fill="none" stroke="#000000" stroke-width="1" stroke-opacity="0.5" />
  <circle cx="100" cy="16" r="10" fill="none" stroke="#000000" stroke-width="1" stroke-opacity="0.5" />
</svg>