<?xml version="1.0" encoding="UTF-8"?>
<svg width="64" height="64" viewBox="0 0 64 64" xmlns="http://www.w3.org/2000/svg">
  <!-- Phoenix Flame Theme Chest Icon -->
  <defs>
    <linearGradient id="flame" x1="0%" y1="100%" x2="100%" y2="0%">
      <stop offset="0%" style="stop-color:#E64D0D;stop-opacity:1" />
      <stop offset="100%" style="stop-color:#FFA31A;stop-opacity:1" />
    </linearGradient>
    <filter id="glow" x="-20%" y="-20%" width="140%" height="140%">
      <feGaussianBlur stdDeviation="2" result="blur" />
      <feComposite in="SourceGraphic" in2="blur" operator="over" />
    </filter>
  </defs>

  <!-- Chest Base -->
  <rect x="12" y="24" width="40" height="30" rx="2" fill="#502010" />
  
  <!-- Chest Top -->
  <path d="M10,24 L54,24 L50,14 L14,14 Z" fill="#703020" />
  
  <!-- Chest Front Panel -->
  <rect x="16" y="28" width="32" height="22" rx="1" fill="#8B4513" />
  
  <!-- Lock -->
  <rect x="28" y="22" width="8" height="10" rx="2" fill="#A05010" />
  <circle cx="32" cy="36" r="4" fill="url(#flame)" filter="url(#glow)" />
  
  <!-- Chest Trim -->
  <rect x="12" y="24" width="40" height="3" fill="url(#flame)" />
  <rect x="16" y="28" width="32" height="2" fill="url(#flame)" />
  <rect x="16" y="48" width="32" height="2" fill="url(#flame)" />
  
  <!-- Flame Effects -->
  <path d="M20,38 Q24,30 28,38 Q32,30 36,38 Q40,30 44,38" stroke="url(#flame)" stroke-width="2" fill="none" filter="url(#glow)" />
</svg>