<?xml version="1.0" encoding="UTF-8"?>
<svg width="256" height="32" viewBox="0 0 256 32" xmlns="http://www.w3.org/2000/svg">
  <!-- Phoenix Flame Theme Progress Bar -->
  <defs>
    <linearGradient id="flameGradient" x1="0%" y1="50%" x2="100%" y2="50%">
      <stop offset="0%" style="stop-color:#E64D0D;stop-opacity:1" />
      <stop offset="50%" style="stop-color:#FFA31A;stop-opacity:1" />
      <stop offset="100%" style="stop-color:#E64D0D;stop-opacity:1" />
    </linearGradient>
    <filter id="flameGlow" x="-10%" y="-30%" width="120%" height="160%">
      <feGaussianBlur stdDeviation="2" result="blur" />
      <feComposite in="SourceGraphic" in2="blur" operator="over" />
    </filter>
  </defs>
  
  <!-- Base Bar -->
  <rect x="0" y="0" width="256" height="32" rx="4" fill="#1A0A05" />
  
  <!-- Progress Fill -->
  <rect x="2" y="2" width="252" height="28" rx="3" fill="url(#flameGradient)" filter="url(#flameGlow)" />
  
  <!-- Flame Effects -->
  <path d="M20,16 Q30,6 40,16 Q50,26 60,16 Q70,6 80,16 Q90,26 100,16 Q110,6 120,16 Q130,26 140,16 Q150,6 160,16 Q170,26 180,16 Q190,6 200,16 Q210,26 220,16 Q230,6 240,16" 
        stroke="#FFD700" stroke-width="2" stroke-opacity="0.5" fill="none" />
  
  <!-- Border -->
  <rect x="0" y="0" width="256" height="32" rx="4" stroke="#E64D0D" stroke-width="1" fill="none" />
</svg>