<?xml version="1.0" encoding="UTF-8"?>
<svg width="256" height="32" viewBox="0 0 256 32" xmlns="http://www.w3.org/2000/svg">
  <!-- Phoenix Flame Theme Timer Bar -->
  <defs>
    <linearGradient id="timerGood" x1="0%" y1="50%" x2="100%" y2="50%">
      <stop offset="0%" style="stop-color:#26FF80;stop-opacity:1" />
      <stop offset="50%" style="stop-color:#80FF80;stop-opacity:1" />
      <stop offset="100%" style="stop-color:#26FF80;stop-opacity:1" />
    </linearGradient>
    <linearGradient id="timerWarning" x1="0%" y1="50%" x2="100%" y2="50%">
      <stop offset="0%" style="stop-color:#FFBF00;stop-opacity:1" />
      <stop offset="50%" style="stop-color:#FFA31A;stop-opacity:1" />
      <stop offset="100%" style="stop-color:#FFBF00;stop-opacity:1" />
    </linearGradient>
    <linearGradient id="timerDanger" x1="0%" y1="50%" x2="100%" y2="50%">
      <stop offset="0%" style="stop-color:#E64D0D;stop-opacity:1" />
      <stop offset="50%" style="stop-color:#FF6347;stop-opacity:1" />
      <stop offset="100%" style="stop-color:#E64D0D;stop-opacity:1" />
    </linearGradient>
    <filter id="timerGlow" x="-10%" y="-30%" width="120%" height="160%">
      <feGaussianBlur stdDeviation="2" result="blur" />
      <feComposite in="SourceGraphic" in2="blur" operator="over" />
    </filter>
  </defs>
  
  <!-- Base Bar - Good Timer -->
  <rect x="0" y="0" width="256" height="32" rx="4" fill="#1A0A05" />
  <rect x="2" y="2" width="252" height="28" rx="3" fill="url(#timerGood)" filter="url(#timerGlow)" />
  
  <!-- Time Marker Lines -->
  <rect x="64" y="0" width="2" height="32" fill="#1A0A05" fill-opacity="0.6" />
  <rect x="128" y="0" width="2" height="32" fill="#1A0A05" fill-opacity="0.6" />
  <rect x="192" y="0" width="2" height="32" fill="#1A0A05" fill-opacity="0.6" />
  
  <!-- Timer Effects -->
  <path d="M24,16 L40,16 M88,16 L104,16 M152,16 L168,16 M216,16 L232,16" 
        stroke="#FFD700" stroke-width="2" stroke-opacity="0.5" stroke-dasharray="2,4" fill="none" />
  
  <!-- Border -->
  <rect x="0" y="0" width="256" height="32" rx="4" stroke="#E64D0D" stroke-width="1" fill="none" />
</svg>