<?xml version="1.0" encoding="UTF-8"?>
<svg width="256" height="20" viewBox="0 0 256 20" xmlns="http://www.w3.org/2000/svg">
  <!-- Phoenix Flame themed mana power bar texture -->
  <defs>
    <linearGradient id="phoenixManaGradient" x1="0%" y1="0%" x2="0%" y2="100%">
      <stop offset="0%" style="stop-color:#1A0A05;stop-opacity:0.9" />
      <stop offset="50%" style="stop-color:#140803;stop-opacity:0.8" />
      <stop offset="100%" style="stop-color:#0A0503;stop-opacity:0.9" />
    </linearGradient>
    
    <linearGradient id="phoenixManaHighlightGradient" x1="0%" y1="0%" x2="0%" y2="100%">
      <stop offset="0%" style="stop-color:#4A9DFF;stop-opacity:0.5" />
      <stop offset="100%" style="stop-color:#1A64BE;stop-opacity:0.1" />
    </linearGradient>
    
    <linearGradient id="phoenixFlameGradient" x1="0%" y1="0%" x2="0%" y2="100%">
      <stop offset="0%" style="stop-color:#FFA31A;stop-opacity:0.3" />
      <stop offset="100%" style="stop-color:#E64D0D;stop-opacity:0.0" />
    </linearGradient>
    
    <filter id="phoenixManaGlow" x="-5%" y="-20%" width="110%" height="140%">
      <feGaussianBlur stdDeviation="0.5" result="blur" />
      <feComposite in="SourceGraphic" in2="blur" operator="over" />
    </filter>
  </defs>
  
  <!-- Main power bar background -->
  <rect x="0" y="0" width="256" height="20" rx="3" ry="3" fill="url(#phoenixManaGradient)" filter="url(#phoenixManaGlow)" />
  
  <!-- Top highlight for phoenix flame effect -->
  <path d="M 3,3 H 253 V 7 C 253,5 251,5 249,5 H 7 C 5,5 3,5 3,7 V 3 Z" 
        fill="url(#phoenixManaHighlightGradient)" />
        
  <!-- Bottom shadow for 3D effect with phoenix flame -->
  <path d="M 3,17 H 253 V 13 C 253,15 251,15 249,15 H 7 C 5,15 3,15 3,13 V 17 Z" 
        fill="url(#phoenixFlameGradient)" />
  
  <!-- Ember pattern -->
  <path d="M 32,10 L 32.5,11 L 33,10 M 64,10 L 64.5,11 L 65,10 M 96,10 L 96.5,11 L 97,10 
           M 128,10 L 128.5,11 L 129,10 M 160,10 L 160.5,11 L 161,10 
           M 192,10 L 192.5,11 L 193,10 M 224,10 L 224.5,11 L 225,10" 
        stroke="#4A9DFF" stroke-width="0.7" stroke-opacity="0.3" />
  
  <!-- Subtle flame texture with mana color -->
  <path d="M 0,10 Q 8,6 16,10 T 32,10 T 48,10 T 64,10 T 80,10 T 96,10 T 112,10 T 128,10
           T 144,10 T 160,10 T 176,10 T 192,10 T 208,10 T 224,10 T 240,10 T 256,10" 
        stroke="#2E7CD7" stroke-width="0.5" stroke-opacity="0.3" fill="none" />
</svg>