<?xml version="1.0" encoding="UTF-8"?>
<svg width="64" height="64" viewBox="0 0 64 64" xmlns="http://www.w3.org/2000/svg">
  <!-- Phoenix Flame themed MoveAny handle texture -->
  <defs>
    <linearGradient id="phoenixHandleGradient" x1="0%" y1="0%" x2="100%" y2="100%">
      <stop offset="0%" style="stop-color:#3A1A05;stop-opacity:0.9" />
      <stop offset="50%" style="stop-color:#4A2815;stop-opacity:0.8" />
      <stop offset="100%" style="stop-color:#3A1A05;stop-opacity:0.9" />
    </linearGradient>
    
    <linearGradient id="phoenixGripGradient" x1="0%" y1="0%" x2="100%" y2="0%">
      <stop offset="0%" style="stop-color:#FFA31A;stop-opacity:0.8" />
      <stop offset="50%" style="stop-color:#E64D0D;stop-opacity:0.9" />
      <stop offset="100%" style="stop-color:#FFA31A;stop-opacity:0.8" />
    </linearGradient>
  </defs>
  
  <!-- Main handle -->
  <rect x="4" y="4" width="56" height="56" rx="4" ry="4" 
        fill="url(#phoenixHandleGradient)" />
        
  <!-- Phoenix flames at corners -->
  <path d="M 4,12 Q 6,4 12,4 Q 4,6 4,12 Z" fill="#E64D0D" fill-opacity="0.7" />
  <path d="M 60,12 Q 58,4 52,4 Q 60,6 60,12 Z" fill="#E64D0D" fill-opacity="0.7" />
  <path d="M 4,52 Q 6,60 12,60 Q 4,58 4,52 Z" fill="#E64D0D" fill-opacity="0.7" />
  <path d="M 60,52 Q 58,60 52,60 Q 60,58 60,52 Z" fill="#E64D0D" fill-opacity="0.7" />
        
  <!-- Border highlight -->
  <rect x="4" y="4" width="56" height="56" rx="4" ry="4" 
        fill="none" stroke="#FFA31A" stroke-width="1" stroke-opacity="0.4" />
        
  <!-- Grip lines -->
  <line x1="16" y1="20" x2="48" y2="20" stroke="url(#phoenixGripGradient)" stroke-width="2" />
  <line x1="16" y1="32" x2="48" y2="32" stroke="url(#phoenixGripGradient)" stroke-width="2" />
  <line x1="16" y1="44" x2="48" y2="44" stroke="url(#phoenixGripGradient)" stroke-width="2" />
  
  <!-- Hover highlight -->
  <rect x="4" y="4" width="56" height="56" rx="4" ry="4" 
        fill="#FFA31A" fill-opacity="0.1" class="handle-hover" />
</svg>