<?xml version="1.0" encoding="UTF-8"?>
<svg width="256" height="32" version="1.1" viewBox="0 0 256 32" xmlns="http://www.w3.org/2000/svg">
 <defs>
  <linearGradient id="highlight" x1="0" x2="0" y1="0" y2="32" gradientUnits="userSpaceOnUse">
   <stop stop-color="#d27aff" stop-opacity=".8" offset="0"/>
   <stop stop-color="#9d0de6" stop-opacity="0" offset="1"/>
  </linearGradient>
 </defs>
 <rect width="256" height="32" fill="url(#highlight)"/>
 <g fill="#d27aff" fill-opacity=".15">
  <path d="m24 0 4 4-4 4 8 8-8 8 4 4-4 4h24l-4-4 8-8-8-8 4-4-4-4z"/>
  <path d="m72 0 4 4-4 4 8 8-8 8 4 4-4 4h24l-4-4 8-8-8-8 4-4-4-4z"/>
  <path d="m120 0 4 4-4 4 8 8-8 8 4 4-4 4h24l-4-4 8-8-8-8 4-4-4-4z"/>
  <path d="m168 0 4 4-4 4 8 8-8 8 4 4-4 4h24l-4-4 8-8-8-8 4-4-4-4z"/>
  <path d="m216 0 4 4-4 4 8 8-8 8 4 4-4 4h24l-4-4 8-8-8-8 4-4-4-4z"/>
 </g>
</svg>