<?xml version="1.0" encoding="UTF-8" standalone="no"?>
<svg xmlns="http://www.w3.org/2000/svg" viewBox="0 0 128 128" width="128" height="128">
  <!-- Arcane Mystic Theme Icon -->
  <!-- Base circle with gradient -->
  <circle cx="64" cy="64" r="60" fill="url(#arcaneGradient)" />
  
  <!-- Arcane rune circle -->
  <circle cx="64" cy="64" r="45" fill="none" stroke="#9d0de6" stroke-width="2" stroke-dasharray="5,3" />
  
  <!-- Inner arcane symbol -->
  <g transform="translate(64 64) rotate(45) translate(-64 -64)">
    <path d="M64 30 L84 64 L64 98 L44 64 Z" fill="none" stroke="#c64bff" stroke-width="2" />
    <path d="M30 64 L64 44 L98 64 L64 84 Z" fill="none" stroke="#c64bff" stroke-width="2" />
  </g>
  
  <!-- Central orb -->
  <circle cx="64" cy="64" r="12" fill="url(#orbGradient)" />
  <circle cx="64" cy="64" r="12" fill="none" stroke="#c64bff" stroke-width="1" />
  
  <!-- Arcane sparks -->
  <circle cx="40" cy="40" r="2" fill="#c64bff" />
  <circle cx="88" cy="42" r="2" fill="#c64bff" />
  <circle cx="42" cy="88" r="2" fill="#c64bff" />
  <circle cx="86" cy="86" r="2" fill="#c64bff" />
  
  <!-- Power lines -->
  <path d="M52 52 L40 40" fill="none" stroke="#c64bff" stroke-width="1" />
  <path d="M76 52 L88 42" fill="none" stroke="#c64bff" stroke-width="1" />
  <path d="M52 76 L42 88" fill="none" stroke="#c64bff" stroke-width="1" />
  <path d="M76 76 L86 86" fill="none" stroke="#c64bff" stroke-width="1" />
  
  <!-- Circular border -->
  <circle cx="64" cy="64" r="60" fill="none" stroke="#9d0de6" stroke-width="4" />
  
  <!-- Definitions -->
  <defs>
    <linearGradient id="arcaneGradient" x1="0%" y1="0%" x2="100%" y2="100%">
      <stop offset="0%" stop-color="#1a0a2f" />
      <stop offset="100%" stop-color="#2a1049" />
    </linearGradient>
    <radialGradient id="orbGradient" cx="50%" cy="50%" r="50%" fx="50%" fy="50%">
      <stop offset="0%" stop-color="#ffffff" stop-opacity="0.8" />
      <stop offset="60%" stop-color="#c64bff" stop-opacity="0.6" />
      <stop offset="100%" stop-color="#9d0de6" stop-opacity="0.4" />
    </radialGradient>
  </defs>
</svg>