<?xml version="1.0" encoding="UTF-8" standalone="no"?>
<svg xmlns="http://www.w3.org/2000/svg" viewBox="0 0 128 128" width="128" height="128">
  <!-- Thunder Storm Theme Icon -->
  <!-- Base circle with gradient -->
  <circle cx="64" cy="64" r="60" fill="url(#thunderGradient)" />
  
  <!-- Lightning bolt -->
  <path d="M64 10 L74 50 L54 55 L64 118 L59 60 L79 55 Z" fill="#50c8ff" />
  <path d="M64 10 L74 50 L54 55 L64 118 L59 60 L79 55 Z" fill="#ffffff" fill-opacity="0.6" />
  
  <!-- Circular border -->
  <circle cx="64" cy="64" r="60" fill="none" stroke="#0d9de6" stroke-width="4" />
  
  <!-- Small lightning accents -->
  <path d="M35 30 L40 45 L30 47 L35 60" fill="none" stroke="#50c8ff" stroke-width="2" />
  <path d="M90 35 L95 50 L85 52 L90 65" fill="none" stroke="#50c8ff" stroke-width="2" />
  <path d="M40 80 L45 95 L35 97 L40 110" fill="none" stroke="#50c8ff" stroke-width="2" />
  
  <!-- Definitions -->
  <defs>
    <linearGradient id="thunderGradient" x1="0%" y1="0%" x2="100%" y2="100%">
      <stop offset="0%" stop-color="#0a0a25" />
      <stop offset="100%" stop-color="#0a0a1a" />
    </linearGradient>
  </defs>
</svg>