<?xml version="1.0" encoding="UTF-8"?>
<svg width="256" height="24" version="1.1" viewBox="0 0 256 24" xmlns="http://www.w3.org/2000/svg">
 <defs>
  <linearGradient id="linearGradient" x1="0" x2="0" y1="0" y2="24" gradientUnits="userSpaceOnUse">
   <stop stop-color="#0d9de6" offset="0"/>
   <stop stop-color="#0a0a1a" offset="1"/>
  </linearGradient>
 </defs>
 <rect width="256" height="24" fill="url(#linearGradient)" fill-opacity=".95"/>
 <path d="m2 2v20h252v-20h-252zm1 1h250v18h-250v-18z" fill="#0d9de6" fill-opacity=".5"/>
 <g fill="#5cceff" fill-opacity=".15">
  <path d="m45 2 2 3-2 3 3 4-3 4 2 3-2 3h12l-2-3 4-4-4-4 2-3-2-3z"/>
  <path d="m95 2 2 3-2 3 3 4-3 4 2 3-2 3h12l-2-3 4-4-4-4 2-3-2-3z"/>
  <path d="m145 2 2 3-2 3 3 4-3 4 2 3-2 3h12l-2-3 4-4-4-4 2-3-2-3z"/>
  <path d="m195 2 2 3-2 3 3 4-3 4 2 3-2 3h12l-2-3 4-4-4-4 2-3-2-3z"/>
 </g>
 
 <!-- Thunder bolt accent -->
 <path d="m12 4-6 8h4l-2 8 6-8h-4z" fill="#0d9de6" fill-opacity=".6"/>
 <path d="m230 4-6 8h4l-2 8 6-8h-4z" fill="#0d9de6" fill-opacity=".6"/>
</svg>