<?xml version="1.0" encoding="UTF-8"?>
<svg width="256" height="256" viewBox="0 0 256 256" xmlns="http://www.w3.org/2000/svg">
  <!-- Thunder Storm themed MSBT animation path texture -->
  <defs>
    <linearGradient id="thunderPathGradient" x1="0%" y1="0%" x2="100%" y2="100%">
      <stop offset="0%" style="stop-color:#73C2FB;stop-opacity:0.7" />
      <stop offset="50%" style="stop-color:#0D9DE6;stop-opacity:0.5" />
      <stop offset="100%" style="stop-color:#0072B5;stop-opacity:0.7" />
    </linearGradient>
    
    <filter id="lightningGlow" x="-10%" y="-10%" width="120%" height="120%">
      <feGaussianBlur stdDeviation="1.5" result="blur" />
      <feComposite in="SourceGraphic" in2="blur" operator="over" />
    </filter>
  </defs>
  
  <!-- Curved path for scrolling text to follow -->
  <path d="M 10,128 C 50,80 100,60 128,60 S 206,80 246,128" 
        fill="none" stroke="url(#thunderPathGradient)" stroke-width="2" stroke-dasharray="8,4" filter="url(#lightningGlow)" />
  
  <!-- Reverse curved path (bottom) -->
  <path d="M 10,128 C 50,176 100,196 128,196 S 206,176 246,128" 
        fill="none" stroke="url(#thunderPathGradient)" stroke-width="2" stroke-dasharray="8,4" filter="url(#lightningGlow)" />
  
  <!-- Lightning-styled zigzag path -->
  <path d="M 10,128 L 50,100 L 90,156 L 130,100 L 170,156 L 210,100 L 246,128" 
        fill="none" stroke="url(#thunderPathGradient)" stroke-width="2" stroke-dasharray="12,2" filter="url(#lightningGlow)" />
  
  <!-- Parabolic path (downward) -->
  <path d="M 10,60 Q 128,196 246,60" 
        fill="none" stroke="url(#thunderPathGradient)" stroke-width="2" stroke-dasharray="8,4" filter="url(#lightningGlow)" />
  
  <!-- Lightning bolt decorations -->
  <path d="M 10,128 L 14,120 L 10,124 L 14,116" stroke="#73C2FB" stroke-width="1" fill="none" opacity="0.6" />
  <path d="M 246,128 L 242,120 L 246,124 L 242,116" stroke="#73C2FB" stroke-width="1" fill="none" opacity="0.6" />
  <path d="M 128,60 L 124,52 L 128,56 L 132,48" stroke="#73C2FB" stroke-width="1" fill="none" opacity="0.6" />
</svg>