<?xml version="1.0" encoding="UTF-8"?>
<svg width="256" height="128" viewBox="0 0 256 128" xmlns="http://www.w3.org/2000/svg">
  <!-- Arcane Mystic Enhanced Player Frame texture -->
  <defs>
    <linearGradient id="arcaneFrameGradient" x1="0%" y1="0%" x2="0%" y2="100%">
      <stop offset="0%" style="stop-color:#1A0A2F;stop-opacity:0.9" />
      <stop offset="50%" style="stop-color:#140823;stop-opacity:0.8" />
      <stop offset="100%" style="stop-color:#0A051A;stop-opacity:0.9" />
    </linearGradient>
    
    <linearGradient id="arcaneHighlightGradient" x1="0%" y1="0%" x2="0%" y2="100%">
      <stop offset="0%" style="stop-color:#D459FF;stop-opacity:0.3" />
      <stop offset="100%" style="stop-color:#D459FF;stop-opacity:0.0" />
    </linearGradient>
    
    <linearGradient id="arcaneBorderGradient" x1="0%" y1="0%" x2="100%" y2="100%">
      <stop offset="0%" style="stop-color:#9D0DE6;stop-opacity:1" />
      <stop offset="50%" style="stop-color:#D459FF;stop-opacity:1" />
      <stop offset="100%" style="stop-color:#9D0DE6;stop-opacity:1" />
    </linearGradient>
    
    <filter id="arcaneGlow" x="-5%" y="-5%" width="110%" height="110%">
      <feGaussianBlur stdDeviation="2" result="blur" />
      <feComposite in="SourceGraphic" in2="blur" operator="over" />
    </filter>
    
    <filter id="mysticBorderGlow" x="-10%" y="-10%" width="120%" height="120%">
      <feGaussianBlur stdDeviation="1" result="blur" />
      <feFlood flood-color="#9D0DE6" flood-opacity="0.5" result="glow" />
      <feComposite in="glow" in2="blur" operator="in" result="softGlow" />
      <feComposite in="SourceGraphic" in2="softGlow" operator="over" />
    </filter>
  </defs>
  
  <!-- Main frame background with rounded corners -->
  <rect x="8" y="8" width="240" height="112" rx="6" ry="6" fill="url(#arcaneFrameGradient)" filter="url(#arcaneGlow)" />
  
  <!-- Portrait area circle cutout (indicated with a different color) -->
  <circle cx="58" cy="64" r="42" fill="#1D0D2F" />
  
  <!-- Player info area (right of portrait) -->
  <rect x="108" y="22" width="130" height="30" rx="4" ry="4" fill="#1D0D2F" />
  
  <!-- Health bar area -->
  <rect x="108" y="60" width="130" height="20" rx="3" ry="3" fill="#27122A" />
  
  <!-- Power bar area -->
  <rect x="108" y="86" width="130" height="20" rx="3" ry="3" fill="#27122A" />
  
  <!-- Top highlight for Arcane Mystic effect -->
  <path d="M 14,14 H 242 V 20 C 242,17 240,17 236,17 H 20 C 16,17 14,17 14,20 V 14 Z" 
        fill="url(#arcaneHighlightGradient)" />
        
  <!-- Bottom shadow for Arcane Mystic effect -->
  <path d="M 14,114 H 242 V 108 C 242,111 240,111 236,111 H 20 C 16,111 14,111 14,108 V 114 Z" 
        fill="#000000" fill-opacity="0.3" />
  
  <!-- Arcane Mystic frame edge (border) -->
  <rect x="8" y="8" width="240" height="112" rx="6" ry="6" 
        fill="none" stroke="url(#arcaneBorderGradient)" stroke-width="1.5" filter="url(#mysticBorderGlow)" />
  
  <!-- Arcane rune decorations -->
  <path d="M 32,8 m -4,0 a 4,2 0 1,0 8,0 a 4,2 0 1,0 -8,0
           M 120,8 m -4,0 a 4,2 0 1,0 8,0 a 4,2 0 1,0 -8,0
           M 208,8 m -4,0 a 4,2 0 1,0 8,0 a 4,2 0 1,0 -8,0
           M 32,8 v 4 M 28,8 h 8 M 120,8 v 4 M 116,8 h 8 M 208,8 v 4 M 204,8 h 8" 
        fill="none" stroke="#D459FF" stroke-width="0.7" stroke-opacity="0.5" />
  
  <!-- Arcane spiral effect around frame -->
  <path d="M 8,32 Q 4,64 8,96 M 248,32 Q 252,64 248,96" 
        fill="none" stroke="#D459FF" stroke-width="0.7" stroke-opacity="0.3" stroke-dasharray="2,3" />
</svg>