<?xml version="1.0" encoding="UTF-8"?>
<svg width="256" height="256" viewBox="0 0 256 256" xmlns="http://www.w3.org/2000/svg">
  <!-- Fel Energy themed PGFinder border texture -->
  <defs>
    <linearGradient id="felBgGradient" x1="0%" y1="0%" x2="0%" y2="100%">
      <stop offset="0%" style="stop-color:#0A1A0A;stop-opacity:0.9" />
      <stop offset="50%" style="stop-color:#081408;stop-opacity:0.85" />
      <stop offset="100%" style="stop-color:#050A05;stop-opacity:0.9" />
    </linearGradient>
    
    <linearGradient id="felBorderGradient" x1="0%" y1="0%" x2="100%" y2="100%">
      <stop offset="0%" style="stop-color:#1AFF1A;stop-opacity:0.9" />
      <stop offset="50%" style="stop-color:#00AA00;stop-opacity:0.85" />
      <stop offset="100%" style="stop-color:#006600;stop-opacity:0.9" />
    </linearGradient>
    
    <filter id="felGlow" x="-15%" y="-15%" width="130%" height="130%">
      <feGaussianBlur in="SourceAlpha" stdDeviation="2" result="blur" />
      <feOffset dx="0" dy="0" result="offsetBlur" />
      <feComposite in="SourceAlpha" in2="offsetBlur" operator="out" result="innerGlow" />
      <feFlood flood-color="#00AA00" flood-opacity="0.3" result="color" />
      <feComposite in="color" in2="innerGlow" operator="in" result="glow" />
      <feComposite in="glow" in2="SourceGraphic" operator="over" />
    </filter>
  </defs>
  
  <!-- Outer frame border -->
  <path d="M 16,4 H 240 C 248,4 252,8 252,16 
           V 240 C 252,248 248,252 240,252 
           H 16 C 8,252 4,248 4,240 
           V 16 C 4,8 8,4 16,4 Z 
           
           M 24,16 H 232 C 240,16 240,16 240,24 
           V 232 C 240,240 240,240 232,240 
           H 24 C 16,240 16,240 16,232 
           V 24 C 16,16 16,16 24,16 Z"
        fill="url(#felBgGradient)" stroke="url(#felBorderGradient)" stroke-width="1" filter="url(#felGlow)" />
  
  <!-- Fel corruption tendril corner embellishments -->
  <path d="M 8,24 C 12,8 16,12 24,8 C 16,12 12,8 8,24 Z" 
        fill="#00AA00" fill-opacity="0.7" />
  <path d="M 248,24 C 244,8 240,12 232,8 C 240,12 244,8 248,24 Z" 
        fill="#00AA00" fill-opacity="0.7" />
  <path d="M 8,232 C 12,248 16,244 24,248 C 16,244 12,248 8,232 Z" 
        fill="#00AA00" fill-opacity="0.7" />
  <path d="M 248,232 C 244,248 240,244 232,248 C 240,244 244,248 248,232 Z" 
        fill="#00AA00" fill-opacity="0.7" />
  
  <!-- Highlight for top edge -->
  <path d="M 16,4 H 240 C 248,4 252,8 252,16 V 24 
           C 252,16 248,12 240,12 H 16 C 8,12 4,16 4,24 
           V 16 C 4,8 8,4 16,4 Z" 
        fill="#1AFF1A" fill-opacity="0.2" />
</svg>