<?xml version="1.0" encoding="UTF-8"?>
<svg width="128" height="32" viewBox="0 0 128 32" xmlns="http://www.w3.org/2000/svg">
  <!-- Fel Energy themed PGFinder button texture -->
  <defs>
    <linearGradient id="felButtonGradient" x1="0%" y1="0%" x2="0%" y2="100%">
      <stop offset="0%" style="stop-color:#0A1A0A;stop-opacity:0.9" />
      <stop offset="50%" style="stop-color:#081408;stop-opacity:0.85" />
      <stop offset="100%" style="stop-color:#050A05;stop-opacity:0.9" />
    </linearGradient>
    
    <linearGradient id="felBorderGradient" x1="0%" y1="0%" x2="100%" y2="100%">
      <stop offset="0%" style="stop-color:#1AFF1A;stop-opacity:0.9" />
      <stop offset="50%" style="stop-color:#00AA00;stop-opacity:0.85" />
      <stop offset="100%" style="stop-color:#006600;stop-opacity:0.9" />
    </linearGradient>
    
    <filter id="felGlow" x="-20%" y="-20%" width="140%" height="140%">
      <feGaussianBlur in="SourceAlpha" stdDeviation="1" result="blur" />
      <feOffset dx="0" dy="1" result="offsetBlur" />
      <feComposite in="SourceAlpha" in2="offsetBlur" operator="out" result="innerShadow" />
      <feFlood flood-color="#00AA00" flood-opacity="0.3" result="color" />
      <feComposite in="color" in2="innerShadow" operator="in" result="shadow" />
      <feComposite in="shadow" in2="SourceGraphic" operator="over" />
    </filter>
  </defs>
  
  <!-- Button body -->
  <rect x="2" y="2" width="124" height="28" rx="3" ry="3" 
        fill="url(#felButtonGradient)" stroke="url(#felBorderGradient)" stroke-width="1" filter="url(#felGlow)" />
  
  <!-- Fel corruption tendril corner embellishments -->
  <path d="M 4,8 C 5,4 6,5 8,4 C 6,5 5,4 4,8 Z" 
        fill="#00AA00" fill-opacity="0.7" />
  <path d="M 124,8 C 123,4 122,5 120,4 C 122,5 123,4 124,8 Z" 
        fill="#00AA00" fill-opacity="0.7" />
  <path d="M 4,24 C 5,28 6,27 8,28 C 6,27 5,28 4,24 Z" 
        fill="#00AA00" fill-opacity="0.7" />
  <path d="M 124,24 C 123,28 122,27 120,28 C 122,27 123,28 124,24 Z" 
        fill="#00AA00" fill-opacity="0.7" />
  
  <!-- Highlight for top edge -->
  <path d="M 5,2 H 123 C 125,2 126,3 126,5 V 7 C 126,5 125,4 123,4 H 5 C 3,4 2,5 2,7 V 5 C 2,3 3,2 5,2 Z" 
        fill="#1AFF1A" fill-opacity="0.2" />
  
  <!-- Subtle inner border -->
  <rect x="4" y="4" width="120" height="24" rx="2" ry="2" 
        fill="none" stroke="#050A05" stroke-width="0.5" stroke-opacity="0.2" />
</svg>