<?xml version="1.0" encoding="UTF-8"?>
<svg width="256" height="256" viewBox="0 0 256 256" xmlns="http://www.w3.org/2000/svg">
  <!-- Thunder Storm themed tooltip background texture -->
  <defs>
    <linearGradient id="thunderBackgroundGradient" x1="0%" y1="0%" x2="0%" y2="100%">
      <stop offset="0%" style="stop-color:#0F1A33;stop-opacity:0.95" />
      <stop offset="50%" style="stop-color:#0A0A1A;stop-opacity:0.9" />
      <stop offset="100%" style="stop-color:#0F1A33;stop-opacity:0.95" />
    </linearGradient>
  </defs>
  
  <!-- Main background with rounded corners -->
  <rect x="0" y="0" width="256" height="256" rx="10" ry="10" fill="url(#thunderBackgroundGradient)" />
  
  <!-- Subtle inner lightning glow -->
  <rect x="2" y="2" width="252" height="252" rx="9" ry="9" 
        fill="none" stroke="#0D9DE6" stroke-opacity="0.1" stroke-width="1" />
  
  <!-- Subtle top light gradient -->
  <path d="M 10,0 H 246 C 252,0 256,4 256,10 C 256,6 252,2 246,2 H 10 C 4,2 0,6 0,10 C 0,4 4,0 10,0 Z" 
        fill="#3EBEFF" fill-opacity="0.05" />
        
  <!-- Subtle lightning patterns in the background -->
  <path d="M 80,40 L 70,70 L 90,65 L 75,100" 
        fill="none" stroke="#0D9DE6" stroke-width="0.5" stroke-opacity="0.15" />
  <path d="M 176,40 L 186,70 L 166,65 L 181,100" 
        fill="none" stroke="#0D9DE6" stroke-width="0.5" stroke-opacity="0.15" />
  <path d="M 128,140 L 138,170 L 118,165 L 133,200" 
        fill="none" stroke="#0D9DE6" stroke-width="0.5" stroke-opacity="0.15" />
</svg>