<?xml version="1.0" encoding="UTF-8"?>
<svg width="256" height="256" viewBox="0 0 256 256" xmlns="http://www.w3.org/2000/svg">
  <!-- Thunder Storm themed tooltip border texture -->
  <defs>
    <linearGradient id="thunderBorderGradient" x1="0%" y1="0%" x2="100%" y2="100%">
      <stop offset="0%" style="stop-color:#3EBEFF;stop-opacity:0.8" />
      <stop offset="50%" style="stop-color:#0D9DE6;stop-opacity:0.6" />
      <stop offset="100%" style="stop-color:#004080;stop-opacity:0.8" />
    </linearGradient>
  </defs>
  
  <!-- Main border with rounded corners -->
  <rect x="4" y="4" width="248" height="248" rx="8" ry="8" 
        fill="none" stroke="url(#thunderBorderGradient)" stroke-width="4" />
  
  <!-- Subtle corner accents with lightning style -->
  <path d="M 4,24 L 4,12 Q 4,4 12,4 L 24,4" 
        stroke="url(#thunderBorderGradient)" stroke-width="2" fill="none" />
  <path d="M 232,4 L 244,4 Q 252,4 252,12 L 252,24" 
        stroke="url(#thunderBorderGradient)" stroke-width="2" fill="none" />
  <path d="M 252,232 L 252,244 Q 252,252 244,252 L 232,252" 
        stroke="url(#thunderBorderGradient)" stroke-width="2" fill="none" />
  <path d="M 24,252 L 12,252 Q 4,252 4,244 L 4,232" 
        stroke="url(#thunderBorderGradient)" stroke-width="2" fill="none" />
        
  <!-- Lightning bolt corner embellishments -->
  <path d="M 20,8 L 15,20 L 25,18 L 18,32" 
        stroke="#3EBEFF" stroke-width="1" fill="none" />
  <path d="M 236,8 L 241,20 L 231,18 L 238,32" 
        stroke="#3EBEFF" stroke-width="1" fill="none" />
  <path d="M 236,248 L 241,236 L 231,238 L 238,224" 
        stroke="#3EBEFF" stroke-width="1" fill="none" />
  <path d="M 20,248 L 15,236 L 25,238 L 18,224" 
        stroke="#3EBEFF" stroke-width="1" fill="none" />
</svg>