<?xml version="1.0" encoding="UTF-8"?>
<svg width="64" height="64" viewBox="0 0 64 64" xmlns="http://www.w3.org/2000/svg">
  <!-- Phoenix Flame themed action button texture -->
  <defs>
    <linearGradient id="phoenixButtonGradient" x1="0%" y1="0%" x2="100%" y2="100%">
      <stop offset="0%" style="stop-color:#3A1A05;stop-opacity:0.9" />
      <stop offset="50%" style="stop-color:#2A1205;stop-opacity:0.8" />
      <stop offset="100%" style="stop-color:#1A0A05;stop-opacity:0.9" />
    </linearGradient>
    
    <linearGradient id="phoenixBorderGradient" x1="0%" y1="0%" x2="100%" y2="100%">
      <stop offset="0%" style="stop-color:#FFA31A;stop-opacity:0.9" />
      <stop offset="50%" style="stop-color:#E64D0D;stop-opacity:0.8" />
      <stop offset="100%" style="stop-color:#AA2200;stop-opacity:0.9" />
    </linearGradient>
    
    <filter id="innerGlow" x="-20%" y="-20%" width="140%" height="140%">
      <feGaussianBlur in="SourceAlpha" stdDeviation="2" result="blur" />
      <feOffset dx="0" dy="0" result="offsetBlur" />
      <feComposite in="SourceAlpha" in2="offsetBlur" operator="out" result="innerShadow" />
      <feFlood flood-color="#FFA31A" flood-opacity="0.3" result="color" />
      <feComposite in="color" in2="innerShadow" operator="in" result="glow" />
      <feComposite in="glow" in2="SourceGraphic" operator="over" />
    </filter>
  </defs>
  
  <!-- Main button background -->
  <rect x="2" y="2" width="60" height="60" rx="4" ry="4" 
        fill="url(#phoenixButtonGradient)" stroke="url(#phoenixBorderGradient)" stroke-width="1" filter="url(#innerGlow)" />
  
  <!-- Phoenix flame corner embellishments -->
  <path d="M 6,4 Q 4,6 4,8 Q 5,5 6,4 Z" fill="#E64D0D" fill-opacity="0.7" />
  <path d="M 58,4 Q 60,6 60,8 Q 59,5 58,4 Z" fill="#E64D0D" fill-opacity="0.7" />
  <path d="M 6,60 Q 4,58 4,56 Q 5,59 6,60 Z" fill="#E64D0D" fill-opacity="0.7" />
  <path d="M 58,60 Q 60,58 60,56 Q 59,59 58,60 Z" fill="#E64D0D" fill-opacity="0.7" />
  
  <!-- Highlight overlay for top edge -->
  <path d="M 6,2 H 58 C 60,2 62,4 62,6 V 10 C 62,8 60,4 58,4 H 6 C 4,4 2,8 2,10 V 6 C 2,4 4,2 6,2 Z" 
        fill="#FFA31A" fill-opacity="0.2" />
  
  <!-- Subtle inner border -->
  <rect x="6" y="6" width="52" height="52" rx="2" ry="2" 
        fill="none" stroke="#1A0A05" stroke-width="0.5" stroke-opacity="0.2" />
</svg>