<?xml version="1.0" encoding="UTF-8"?>
<svg width="256" height="32" viewBox="0 0 256 32" xmlns="http://www.w3.org/2000/svg">
  <!-- Phoenix Flame themed cast bar texture -->
  <defs>
    <linearGradient id="phoenixBarGradient" x1="0%" y1="0%" x2="0%" y2="100%">
      <stop offset="0%" style="stop-color:#FFA31A;stop-opacity:0.9" />
      <stop offset="50%" style="stop-color:#E64D0D;stop-opacity:0.8" />
      <stop offset="100%" style="stop-color:#992800;stop-opacity:0.9" />
    </linearGradient>
  </defs>
  
  <!-- Cast bar base with rounded corners -->
  <rect x="2" y="2" width="252" height="28" rx="6" ry="6" fill="url(#phoenixBarGradient)" />
  
  <!-- Subtle top highlight -->
  <path d="M 8,2 H 248 C 251,2 254,5 254,8 C 254,6 251,4 248,4 H 8 C 5,4 2,6 2,8 C 2,5 5,2 8,2 Z" 
        fill="#FFFFFF" fill-opacity="0.4" />
  
  <!-- Subtle bottom shadow -->
  <path d="M 8,30 H 248 C 251,30 254,27 254,24 C 254,26 251,28 248,28 H 8 C 5,28 2,26 2,24 C 2,27 5,30 8,30 Z" 
        fill="#000000" fill-opacity="0.3" />
        
  <!-- Phoenix flame effects (random flame-like patterns) -->
  <path d="M 30,30 C 28,20 35,25 32,15 C 35,25 30,20 38,10" 
        fill="none" stroke="#FFA31A" stroke-width="1" stroke-opacity="0.6" />
  <path d="M 90,30 C 92,20 85,25 88,15 C 85,25 90,20 82,10" 
        fill="none" stroke="#FFA31A" stroke-width="1" stroke-opacity="0.6" />
  <path d="M 150,30 C 148,20 155,25 152,15 C 155,25 150,20 158,10" 
        fill="none" stroke="#FFA31A" stroke-width="1" stroke-opacity="0.6" />
  <path d="M 210,30 C 212,20 205,25 208,15 C 205,25 210,20 202,10" 
        fill="none" stroke="#FFA31A" stroke-width="1" stroke-opacity="0.6" />
</svg>