<?xml version="1.0" encoding="UTF-8"?>
<svg width="256" height="24" viewBox="0 0 256 24" xmlns="http://www.w3.org/2000/svg">
  <!-- Phoenix Flame themed nameplate cast bar texture -->
  <defs>
    <linearGradient id="phoenixCastBarGradient" x1="0%" y1="0%" x2="0%" y2="100%">
      <stop offset="0%" style="stop-color:#1A0A05;stop-opacity:0.9" />
      <stop offset="50%" style="stop-color:#140803;stop-opacity:0.8" />
      <stop offset="100%" style="stop-color:#0A0503;stop-opacity:0.9" />
    </linearGradient>
    
    <linearGradient id="phoenixCastHighlightGradient" x1="0%" y1="0%" x2="0%" y2="100%">
      <stop offset="0%" style="stop-color:#FFA31A;stop-opacity:0.5" />
      <stop offset="100%" style="stop-color:#E64D0D;stop-opacity:0.0" />
    </linearGradient>
    
    <filter id="phoenixCastGlow" x="-5%" y="-20%" width="110%" height="140%">
      <feGaussianBlur stdDeviation="1" result="blur" />
      <feComposite in="SourceGraphic" in2="blur" operator="over" />
    </filter>
  </defs>
  
  <!-- Main cast bar background - this will be partially filled based on cast progress -->
  <rect x="0" y="0" width="256" height="24" rx="3" ry="3" fill="url(#phoenixCastBarGradient)" filter="url(#phoenixCastGlow)" />
  
  <!-- Top highlight for phoenix flame effect -->
  <path d="M 3,3 H 253 V 8 C 253,6 251,6 249,6 H 7 C 5,6 3,6 3,8 V 3 Z" 
        fill="url(#phoenixCastHighlightGradient)" />
        
  <!-- Bottom shadow for 3D effect -->
  <path d="M 3,21 H 253 V 16 C 253,18 251,18 249,18 H 7 C 5,18 3,18 3,16 V 21 Z" 
        fill="#000000" fill-opacity="0.2" />
  
  <!-- Ember pattern -->
  <path d="M 32,12 L 32.5,13 L 33,12 M 64,12 L 64.5,13 L 65,12 M 96,12 L 96.5,13 L 97,12 
           M 128,12 L 128.5,13 L 129,12 M 160,12 L 160.5,13 L 161,12 
           M 192,12 L 192.5,13 L 193,12 M 224,12 L 224.5,13 L 225,12" 
        stroke="#FFA31A" stroke-width="0.7" stroke-opacity="0.5" />
  
  <!-- Subtle flame texture -->
  <path d="M 0,12 Q 8,8 16,12 T 32,12 T 48,12 T 64,12 T 80,12 T 96,12 T 112,12 T 128,12
           T 144,12 T 160,12 T 176,12 T 192,12 T 208,12 T 224,12 T 240,12 T 256,12" 
        stroke="#E64D0D" stroke-width="0.5" stroke-opacity="0.3" fill="none" />
</svg>