<?xml version="1.0" encoding="UTF-8"?>
<svg width="256" height="32" viewBox="0 0 256 32" xmlns="http://www.w3.org/2000/svg">
  <!-- Phoenix Flame themed nameplate health bar texture -->
  <defs>
    <linearGradient id="phoenixBarGradient" x1="0%" y1="0%" x2="0%" y2="100%">
      <stop offset="0%" style="stop-color:#1A0A05;stop-opacity:0.9" />
      <stop offset="50%" style="stop-color:#140803;stop-opacity:0.8" />
      <stop offset="100%" style="stop-color:#0A0503;stop-opacity:0.9" />
    </linearGradient>
    
    <linearGradient id="phoenixHighlightGradient" x1="0%" y1="0%" x2="0%" y2="100%">
      <stop offset="0%" style="stop-color:#FFA31A;stop-opacity:0.4" />
      <stop offset="100%" style="stop-color:#E64D0D;stop-opacity:0.0" />
    </linearGradient>
    
    <filter id="phoenixGlow" x="-5%" y="-20%" width="110%" height="140%">
      <feGaussianBlur stdDeviation="1" result="blur" />
      <feComposite in="SourceGraphic" in2="blur" operator="over" />
    </filter>
  </defs>
  
  <!-- Main bar background - this will be colorized by the game based on unit type -->
  <rect x="0" y="0" width="256" height="32" rx="4" ry="4" fill="url(#phoenixBarGradient)" filter="url(#phoenixGlow)" />
  
  <!-- Top highlight for phoenix flame effect -->
  <path d="M 4,4 H 252 V 12 C 252,8 250,8 248,8 H 8 C 6,8 4,8 4,12 V 4 Z" 
        fill="url(#phoenixHighlightGradient)" />
        
  <!-- Bottom shadow for 3D effect -->
  <path d="M 4,28 H 252 V 20 C 252,24 250,24 248,24 H 8 C 6,24 4,24 4,20 V 28 Z" 
        fill="#000000" fill-opacity="0.2" />
  
  <!-- Ember pattern -->
  <path d="M 16,16 L 16.5,17 L 17,16 M 48,16 L 48.5,17 L 49,16 M 80,16 L 80.5,17 L 81,16 
           M 112,16 L 112.5,17 L 113,16 M 144,16 L 144.5,17 L 145,16 
           M 176,16 L 176.5,17 L 177,16 M 208,16 L 208.5,17 L 209,16 M 240,16 L 240.5,17 L 241,16" 
        stroke="#FFA31A" stroke-width="0.7" stroke-opacity="0.3" />
  
  <!-- Subtle flame edges -->
  <path d="M 0,16 Q 4,12 8,16 T 16,16 T 24,16 T 32,16 T 40,16 T 48,16 T 56,16 T 64,16
           T 72,16 T 80,16 T 88,16 T 96,16 T 104,16 T 112,16 T 120,16 T 128,16
           T 136,16 T 144,16 T 152,16 T 160,16 T 168,16 T 176,16 T 184,16 T 192,16
           T 200,16 T 208,16 T 216,16 T 224,16 T 232,16 T 240,16 T 248,16 T 256,16" 
        stroke="#E64D0D" stroke-width="0.5" stroke-opacity="0.2" fill="none" />
</svg>