<?xml version="1.0" encoding="UTF-8"?>
<svg width="64" height="64" viewBox="0 0 64 64" xmlns="http://www.w3.org/2000/svg">
  <defs>
    <linearGradient id="phoenixBorderGradient" x1="0%" y1="0%" x2="100%" y2="100%">
      <stop offset="0%" style="stop-color:#FFA31A;stop-opacity:0.8" />
      <stop offset="50%" style="stop-color:#E64D0D;stop-opacity:0.6" />
      <stop offset="100%" style="stop-color:#992800;stop-opacity:0.8" />
    </linearGradient>
  </defs>
  
  <!-- Phoenix Flame themed border for TrufiGCD -->
  <rect x="2" y="2" width="60" height="60" rx="4" ry="4" 
        fill="none" stroke="url(#phoenixBorderGradient)" stroke-width="2" />
  
  <!-- Optional corner accents with flame style -->
  <path d="M2,12 L2,6 Q2,2 6,2 L12,2" stroke="url(#phoenixBorderGradient)" stroke-width="3" fill="none" />
  <path d="M52,2 L58,2 Q62,2 62,6 L62,12" stroke="url(#phoenixBorderGradient)" stroke-width="3" fill="none" />
  <path d="M62,52 L62,58 Q62,62 58,62 L52,62" stroke="url(#phoenixBorderGradient)" stroke-width="3" fill="none" />
  <path d="M12,62 L6,62 Q2,62 2,58 L2,52" stroke="url(#phoenixBorderGradient)" stroke-width="3" fill="none" />
  
  <!-- Phoenix flame corner accent -->
  <path d="M4,4 C8,8 12,6 8,12 C12,8 10,4 16,4" stroke="#FFA31A" stroke-width="1" fill="none" />
  <path d="M60,4 C56,8 52,6 56,12 C52,8 54,4 48,4" stroke="#FFA31A" stroke-width="1" fill="none" />
  <path d="M60,60 C56,56 52,58 56,52 C52,56 54,60 48,60" stroke="#FFA31A" stroke-width="1" fill="none" />
  <path d="M4,60 C8,56 12,58 8,52 C12,56 10,60 16,60" stroke="#FFA31A" stroke-width="1" fill="none" />
</svg>