<?xml version="1.0" encoding="UTF-8"?>
<svg width="256" height="256" viewBox="0 0 256 256" xmlns="http://www.w3.org/2000/svg">
  <!-- Arcane Mystic themed tooltip background texture -->
  <defs>
    <linearGradient id="arcaneBackgroundGradient" x1="0%" y1="0%" x2="0%" y2="100%">
      <stop offset="0%" style="stop-color:#1F0F33;stop-opacity:0.95" />
      <stop offset="50%" style="stop-color:#1A0A2F;stop-opacity:0.9" />
      <stop offset="100%" style="stop-color:#1F0F33;stop-opacity:0.95" />
    </linearGradient>
    
    <!-- Arcane rune pattern for background -->
    <pattern id="arcaneRunePattern" x="0" y="0" width="64" height="64" patternUnits="userSpaceOnUse">
      <circle cx="32" cy="32" r="16" fill="none" stroke="#9D0DE6" stroke-width="0.5" stroke-opacity="0.1" />
      <path d="M 32,24 L 32,40 M 24,32 L 40,32" stroke="#9D0DE6" stroke-width="0.5" stroke-opacity="0.1" />
    </pattern>
  </defs>
  
  <!-- Main background with rounded corners -->
  <rect x="0" y="0" width="256" height="256" rx="10" ry="10" fill="url(#arcaneBackgroundGradient)" />
  
  <!-- Subtle rune pattern overlay -->
  <rect x="0" y="0" width="256" height="256" rx="10" ry="10" fill="url(#arcaneRunePattern)" />
  
  <!-- Subtle inner arcane glow -->
  <rect x="2" y="2" width="252" height="252" rx="9" ry="9" 
        fill="none" stroke="#9D0DE6" stroke-opacity="0.1" stroke-width="1" />
  
  <!-- Subtle top light gradient -->
  <path d="M 10,0 H 246 C 252,0 256,4 256,10 C 256,6 252,2 246,2 H 10 C 4,2 0,6 0,10 C 0,4 4,0 10,0 Z" 
        fill="#D459FF" fill-opacity="0.05" />
        
  <!-- Additional arcane decorations -->
  <circle cx="128" cy="128" r="48" fill="none" stroke="#9D0DE6" stroke-width="0.5" stroke-opacity="0.1" />
  <circle cx="128" cy="128" r="24" fill="none" stroke="#9D0DE6" stroke-width="0.5" stroke-opacity="0.1" />
</svg>