<?xml version="1.0" encoding="UTF-8"?>
<svg width="256" height="256" viewBox="0 0 256 256" xmlns="http://www.w3.org/2000/svg">
  <!-- Arcane Mystic themed tooltip border texture -->
  <defs>
    <linearGradient id="arcaneBorderGradient" x1="0%" y1="0%" x2="100%" y2="100%">
      <stop offset="0%" style="stop-color:#D459FF;stop-opacity:0.8" />
      <stop offset="50%" style="stop-color:#9D0DE6;stop-opacity:0.6" />
      <stop offset="100%" style="stop-color:#6A0099;stop-opacity:0.8" />
    </linearGradient>
  </defs>
  
  <!-- Main border with rounded corners -->
  <rect x="4" y="4" width="248" height="248" rx="8" ry="8" 
        fill="none" stroke="url(#arcaneBorderGradient)" stroke-width="4" />
  
  <!-- Subtle corner accents with arcane rune style -->
  <path d="M 4,24 L 4,12 Q 4,4 12,4 L 24,4" 
        stroke="url(#arcaneBorderGradient)" stroke-width="2" fill="none" />
  <path d="M 232,4 L 244,4 Q 252,4 252,12 L 252,24" 
        stroke="url(#arcaneBorderGradient)" stroke-width="2" fill="none" />
  <path d="M 252,232 L 252,244 Q 252,252 244,252 L 232,252" 
        stroke="url(#arcaneBorderGradient)" stroke-width="2" fill="none" />
  <path d="M 24,252 L 12,252 Q 4,252 4,244 L 4,232" 
        stroke="url(#arcaneBorderGradient)" stroke-width="2" fill="none" />
        
  <!-- Arcane rune corner embellishments -->
  <circle cx="16" cy="16" r="6" stroke="#D459FF" stroke-width="1" fill="none" />
  <circle cx="240" cy="16" r="6" stroke="#D459FF" stroke-width="1" fill="none" />
  <circle cx="240" cy="240" r="6" stroke="#D459FF" stroke-width="1" fill="none" />
  <circle cx="16" cy="240" r="6" stroke="#D459FF" stroke-width="1" fill="none" />
  
  <!-- Additional arcane symbols -->
  <path d="M 16,13 L 16,19 M 13,16 L 19,16" stroke="#D459FF" stroke-width="1" fill="none" />
  <path d="M 240,13 L 240,19 M 237,16 L 243,16" stroke="#D459FF" stroke-width="1" fill="none" />
  <path d="M 240,237 L 240,243 M 237,240 L 243,240" stroke="#D459FF" stroke-width="1" fill="none" />
  <path d="M 16,237 L 16,243 M 13,240 L 19,240" stroke="#D459FF" stroke-width="1" fill="none" />
</svg>