<?xml version="1.0" encoding="UTF-8"?>
<svg width="256" height="24" viewBox="0 0 256 24" xmlns="http://www.w3.org/2000/svg">
  <!-- Arcane Mystic themed nameplate cast bar texture -->
  <defs>
    <linearGradient id="arcaneCastBarGradient" x1="0%" y1="0%" x2="0%" y2="100%">
      <stop offset="0%" style="stop-color:#1A0A2F;stop-opacity:0.9" />
      <stop offset="50%" style="stop-color:#140823;stop-opacity:0.8" />
      <stop offset="100%" style="stop-color:#0A051A;stop-opacity:0.9" />
    </linearGradient>
    
    <linearGradient id="arcaneCastHighlightGradient" x1="0%" y1="0%" x2="0%" y2="100%">
      <stop offset="0%" style="stop-color:#D459FF;stop-opacity:0.5" />
      <stop offset="100%" style="stop-color:#9D0DE6;stop-opacity:0.0" />
    </linearGradient>
    
    <filter id="arcaneCastGlow" x="-5%" y="-20%" width="110%" height="140%">
      <feGaussianBlur stdDeviation="1" result="blur" />
      <feComposite in="SourceGraphic" in2="blur" operator="over" />
    </filter>
  </defs>
  
  <!-- Main cast bar background - this will be partially filled based on cast progress -->
  <rect x="0" y="0" width="256" height="24" rx="3" ry="3" fill="url(#arcaneCastBarGradient)" filter="url(#arcaneCastGlow)" />
  
  <!-- Top highlight for arcane effect -->
  <path d="M 3,3 H 253 V 8 C 253,6 251,6 249,6 H 7 C 5,6 3,6 3,8 V 3 Z" 
        fill="url(#arcaneCastHighlightGradient)" />
        
  <!-- Bottom shadow for 3D effect -->
  <path d="M 3,21 H 253 V 16 C 253,18 251,18 249,18 H 7 C 5,18 3,18 3,16 V 21 Z" 
        fill="#000000" fill-opacity="0.2" />
  
  <!-- Arcane rune pattern -->
  <path d="M 32,12 m -3,0 a 3,3 0 1,0 6,0 a 3,3 0 1,0 -6,0 M 96,12 m -3,0 a 3,3 0 1,0 6,0 a 3,3 0 1,0 -6,0
           M 160,12 m -3,0 a 3,3 0 1,0 6,0 a 3,3 0 1,0 -6,0 M 224,12 m -3,0 a 3,3 0 1,0 6,0 a 3,3 0 1,0 -6,0" 
        stroke="#D459FF" stroke-width="0.7" stroke-opacity="0.5" fill="none" />
  
  <!-- Cross patterns in runes -->
  <path d="M 32,9 L 32,15 M 29,12 L 35,12" stroke="#D459FF" stroke-width="0.5" stroke-opacity="0.5" />
  <path d="M 96,9 L 96,15 M 93,12 L 99,12" stroke="#D459FF" stroke-width="0.5" stroke-opacity="0.5" />
  <path d="M 160,9 L 160,15 M 157,12 L 163,12" stroke="#D459FF" stroke-width="0.5" stroke-opacity="0.5" />
  <path d="M 224,9 L 224,15 M 221,12 L 227,12" stroke="#D459FF" stroke-width="0.5" stroke-opacity="0.5" />
  
  <!-- Subtle arcane energy flow -->
  <path d="M 0,12 m -110,0 a 110,8 0 0,1 220,0 a 110,8 0 0,1 -220,0" 
        stroke="#9D0DE6" stroke-width="0.5" stroke-opacity="0.2" fill="none" transform="translate(128,0)" />
  <path d="M 0,12 m -90,0 a 90,6 0 0,1 180,0 a 90,6 0 0,1 -180,0" 
        stroke="#9D0DE6" stroke-width="0.5" stroke-opacity="0.2" fill="none" transform="translate(128,0)" />
</svg>