<?xml version="1.0" encoding="UTF-8"?>
<svg width="256" height="32" viewBox="0 0 256 32" xmlns="http://www.w3.org/2000/svg">
  <!-- Arcane Mystic themed nameplate health bar texture -->
  <defs>
    <linearGradient id="arcaneBarGradient" x1="0%" y1="0%" x2="0%" y2="100%">
      <stop offset="0%" style="stop-color:#1A0A2F;stop-opacity:0.9" />
      <stop offset="50%" style="stop-color:#140823;stop-opacity:0.8" />
      <stop offset="100%" style="stop-color:#0A051A;stop-opacity:0.9" />
    </linearGradient>
    
    <linearGradient id="arcaneHighlightGradient" x1="0%" y1="0%" x2="0%" y2="100%">
      <stop offset="0%" style="stop-color:#D459FF;stop-opacity:0.4" />
      <stop offset="100%" style="stop-color:#9D0DE6;stop-opacity:0.0" />
    </linearGradient>
    
    <filter id="arcaneGlow" x="-5%" y="-20%" width="110%" height="140%">
      <feGaussianBlur stdDeviation="1" result="blur" />
      <feComposite in="SourceGraphic" in2="blur" operator="over" />
    </filter>
  </defs>
  
  <!-- Main bar background - this will be colorized by the game based on unit type -->
  <rect x="0" y="0" width="256" height="32" rx="4" ry="4" fill="url(#arcaneBarGradient)" filter="url(#arcaneGlow)" />
  
  <!-- Top highlight for arcane effect -->
  <path d="M 4,4 H 252 V 12 C 252,8 250,8 248,8 H 8 C 6,8 4,8 4,12 V 4 Z" 
        fill="url(#arcaneHighlightGradient)" />
        
  <!-- Bottom shadow for 3D effect -->
  <path d="M 4,28 H 252 V 20 C 252,24 250,24 248,24 H 8 C 6,24 4,24 4,20 V 28 Z" 
        fill="#000000" fill-opacity="0.2" />
  
  <!-- Arcane rune pattern -->
  <path d="M 32,16 m -4,0 a 4,4 0 1,0 8,0 a 4,4 0 1,0 -8,0 M 96,16 m -4,0 a 4,4 0 1,0 8,0 a 4,4 0 1,0 -8,0
           M 160,16 m -4,0 a 4,4 0 1,0 8,0 a 4,4 0 1,0 -8,0 M 224,16 m -4,0 a 4,4 0 1,0 8,0 a 4,4 0 1,0 -8,0" 
        stroke="#D459FF" stroke-width="0.7" stroke-opacity="0.3" fill="none" />
  
  <!-- Cross patterns in runes -->
  <path d="M 32,12 L 32,20 M 28,16 L 36,16" stroke="#D459FF" stroke-width="0.5" stroke-opacity="0.3" />
  <path d="M 96,12 L 96,20 M 92,16 L 100,16" stroke="#D459FF" stroke-width="0.5" stroke-opacity="0.3" />
  <path d="M 160,12 L 160,20 M 156,16 L 164,16" stroke="#D459FF" stroke-width="0.5" stroke-opacity="0.3" />
  <path d="M 224,12 L 224,20 M 220,16 L 228,16" stroke="#D459FF" stroke-width="0.5" stroke-opacity="0.3" />
  
  <!-- Subtle energy ripples -->
  <path d="M 0,16 m -110,0 a 110,110 0 0,1 220,0 a 110,110 0 0,1 -220,0" 
        stroke="#9D0DE6" stroke-width="0.5" stroke-opacity="0.1" fill="none" transform="translate(128,0)" />
  <path d="M 0,16 m -90,0 a 90,90 0 0,1 180,0 a 90,90 0 0,1 -180,0" 
        stroke="#9D0DE6" stroke-width="0.5" stroke-opacity="0.1" fill="none" transform="translate(128,0)" />
</svg>