<?xml version="1.0" encoding="UTF-8"?>
<svg width="256" height="256" viewBox="0 0 256 256" xmlns="http://www.w3.org/2000/svg">
  <!-- Fel Energy themed tooltip background texture -->
  <defs>
    <linearGradient id="felBackgroundGradient" x1="0%" y1="0%" x2="0%" y2="100%">
      <stop offset="0%" style="stop-color:#0F330F;stop-opacity:0.95" />
      <stop offset="50%" style="stop-color:#0A1A0A;stop-opacity:0.9" />
      <stop offset="100%" style="stop-color:#0F330F;stop-opacity:0.95" />
    </linearGradient>
    
    <!-- Fel corruption pattern for background -->
    <pattern id="felCorruptionPattern" x="0" y="0" width="128" height="128" patternUnits="userSpaceOnUse">
      <path d="M 32,0 C 24,16 40,24 24,40 C 40,24 32,16 48,8" 
            fill="none" stroke="#00AA00" stroke-width="0.5" stroke-opacity="0.1" />
      <path d="M 96,0 C 104,16 88,24 104,40 C 88,24 96,16 80,8" 
            fill="none" stroke="#00AA00" stroke-width="0.5" stroke-opacity="0.1" />
      <path d="M 32,88 C 24,104 40,112 24,128 C 40,112 32,104 48,96" 
            fill="none" stroke="#00AA00" stroke-width="0.5" stroke-opacity="0.1" />
      <path d="M 96,88 C 104,104 88,112 104,128 C 88,112 96,104 80,96" 
            fill="none" stroke="#00AA00" stroke-width="0.5" stroke-opacity="0.1" />
    </pattern>
  </defs>
  
  <!-- Main background with rounded corners -->
  <rect x="0" y="0" width="256" height="256" rx="10" ry="10" fill="url(#felBackgroundGradient)" />
  
  <!-- Subtle fel corruption pattern overlay -->
  <rect x="0" y="0" width="256" height="256" rx="10" ry="10" fill="url(#felCorruptionPattern)" />
  
  <!-- Subtle inner fel glow -->
  <rect x="2" y="2" width="252" height="252" rx="9" ry="9" 
        fill="none" stroke="#00AA00" stroke-opacity="0.1" stroke-width="1" />
  
  <!-- Subtle top light gradient -->
  <path d="M 10,0 H 246 C 252,0 256,4 256,10 C 256,6 252,2 246,2 H 10 C 4,2 0,6 0,10 C 0,4 4,0 10,0 Z" 
        fill="#1AFF1A" fill-opacity="0.05" />
</svg>