<?xml version="1.0" encoding="UTF-8"?>
<svg width="64" height="64" viewBox="0 0 64 64" xmlns="http://www.w3.org/2000/svg">
  <!-- Arcane Mystic themed action button texture -->
  <defs>
    <linearGradient id="arcaneButtonGradient" x1="0%" y1="0%" x2="100%" y2="100%">
      <stop offset="0%" style="stop-color:#1A0A2F;stop-opacity:0.9" />
      <stop offset="50%" style="stop-color:#140823;stop-opacity:0.8" />
      <stop offset="100%" style="stop-color:#0A051A;stop-opacity:0.9" />
    </linearGradient>
    
    <linearGradient id="arcaneBorderGradient" x1="0%" y1="0%" x2="100%" y2="100%">
      <stop offset="0%" style="stop-color:#D459FF;stop-opacity:0.9" />
      <stop offset="50%" style="stop-color:#9D0DE6;stop-opacity:0.8" />
      <stop offset="100%" style="stop-color:#6A0099;stop-opacity:0.9" />
    </linearGradient>
    
    <filter id="arcaneGlow" x="-20%" y="-20%" width="140%" height="140%">
      <feGaussianBlur in="SourceAlpha" stdDeviation="2" result="blur" />
      <feOffset dx="0" dy="0" result="offsetBlur" />
      <feComposite in="SourceAlpha" in2="offsetBlur" operator="out" result="innerShadow" />
      <feFlood flood-color="#9D0DE6" flood-opacity="0.3" result="color" />
      <feComposite in="color" in2="innerShadow" operator="in" result="glow" />
      <feComposite in="glow" in2="SourceGraphic" operator="over" />
    </filter>
  </defs>
  
  <!-- Main button background -->
  <rect x="2" y="2" width="60" height="60" rx="4" ry="4" 
        fill="url(#arcaneButtonGradient)" stroke="url(#arcaneBorderGradient)" stroke-width="1" filter="url(#arcaneGlow)" />
  
  <!-- Arcane rune corner embellishments -->
  <circle cx="6" cy="6" r="2" fill="#9D0DE6" fill-opacity="0.7" />
  <circle cx="58" cy="6" r="2" fill="#9D0DE6" fill-opacity="0.7" />
  <circle cx="6" cy="58" r="2" fill="#9D0DE6" fill-opacity="0.7" />
  <circle cx="58" cy="58" r="2" fill="#9D0DE6" fill-opacity="0.7" />
  
  <!-- Cross patterns in runes -->
  <path d="M 6,4 L 6,8 M 4,6 L 8,6" stroke="#D459FF" stroke-width="0.5" stroke-opacity="0.7" />
  <path d="M 58,4 L 58,8 M 56,6 L 60,6" stroke="#D459FF" stroke-width="0.5" stroke-opacity="0.7" />
  <path d="M 6,56 L 6,60 M 4,58 L 8,58" stroke="#D459FF" stroke-width="0.5" stroke-opacity="0.7" />
  <path d="M 58,56 L 58,60 M 56,58 L 60,58" stroke="#D459FF" stroke-width="0.5" stroke-opacity="0.7" />
  
  <!-- Highlight overlay for top edge -->
  <path d="M 6,2 H 58 C 60,2 62,4 62,6 V 10 C 62,8 60,4 58,4 H 6 C 4,4 2,8 2,10 V 6 C 2,4 4,2 6,2 Z" 
        fill="#D459FF" fill-opacity="0.2" />
  
  <!-- Subtle inner border -->
  <rect x="6" y="6" width="52" height="52" rx="2" ry="2" 
        fill="none" stroke="#0A051A" stroke-width="0.5" stroke-opacity="0.2" />
</svg>