<?xml version="1.0" encoding="UTF-8" standalone="no"?>
<svg xmlns="http://www.w3.org/2000/svg" width="512" height="512" viewBox="0 0 512 512">
  <!-- Background -->
  <rect width="512" height="512" rx="80" ry="80" fill="#0A0A1A"/>
  
  <!-- Vortex Swirl (Electric Blue) -->
  <path d="M256 50
           a206 206 0 0 1 0 412
           a206 206 0 0 1 0 -412
           z" 
        fill="none" 
        stroke="#0D9DE6" 
        stroke-width="14"
        stroke-dasharray="24,8,4,8"/>
  
  <!-- Inner Vortex (Darker Blue) -->
  <path d="M256 100
           a156 156 0 0 1 0 312
           a156 156 0 0 1 0 -312
           z" 
        fill="none" 
        stroke="#0D7DE6" 
        stroke-width="10"
        stroke-dasharray="12,6,2,6"
        transform="rotate(30, 256, 256)"/>
  
  <!-- Center Vortex (Brighter Blue) -->
  <path d="M256 150
           a106 106 0 0 1 0 212
           a106 106 0 0 1 0 -212
           z" 
        fill="none" 
        stroke="#0DADE6" 
        stroke-width="8"
        stroke-dasharray="8,4,1,4"
        transform="rotate(60, 256, 256)"/>
        
  <!-- Vortex Center (Glowing Blue) -->
  <circle cx="256" cy="256" r="60" fill="#0DCDE6" opacity="0.7">
    <animate attributeName="r" values="55;65;55" dur="2s" repeatCount="indefinite"/>
    <animate attributeName="opacity" values="0.6;0.9;0.6" dur="2s" repeatCount="indefinite"/>
  </circle>
  
  <!-- Electric Accents -->
  <path d="M256 120 L281 80" stroke="#0DCDE6" stroke-width="3" stroke-linecap="round"/>
  <path d="M336 256 L376 281" stroke="#0DCDE6" stroke-width="3" stroke-linecap="round"/>
  <path d="M256 336 L231 376" stroke="#0DCDE6" stroke-width="3" stroke-linecap="round"/>
  <path d="M120 200 L80 175" stroke="#0DCDE6" stroke-width="3" stroke-linecap="round"/>
  <path d="M320 120 L360 80" stroke="#0DCDE6" stroke-width="3" stroke-linecap="round"/>
  <path d="M380 320 L420 360" stroke="#0DCDE6" stroke-width="3" stroke-linecap="round"/>
  <path d="M150 380 L100 430" stroke="#0DCDE6" stroke-width="3" stroke-linecap="round"/>
  <path d="M90 150 L40 100" stroke="#0DCDE6" stroke-width="3" stroke-linecap="round"/>
  
  <!-- UI Text -->
  <text x="256" y="250" font-family="Arial, sans-serif" font-size="80" font-weight="bold" text-anchor="middle" fill="#0D9DE6">V</text>
  <text x="256" y="290" font-family="Arial, sans-serif" font-size="40" font-weight="bold" text-anchor="middle" fill="#FFFFFF">UI</text>
</svg>