<?xml version="1.0" encoding="UTF-8"?>
<svg width="128" height="128" viewBox="0 0 128 128" xmlns="http://www.w3.org/2000/svg">
  <defs>
    <radialGradient id="explosionGradient" cx="50%" cy="50%" r="50%" fx="50%" fy="50%">
      <stop offset="0%" stop-color="#FFFFFF" stop-opacity="0.9"/>
      <stop offset="40%" stop-color="#99FF99" stop-opacity="0.7"/>
      <stop offset="70%" stop-color="#33FF33" stop-opacity="0.5"/>
      <stop offset="100%" stop-color="#00CC00" stop-opacity="0.3"/>
    </radialGradient>
  </defs>
  
  <g>
    <!-- Explosion core -->
    <circle cx="64" cy="64" r="48" fill="url(#explosionGradient)" />
    
    <!-- Fel explosion rays -->
    <g>
      <!-- Main rays -->
      <path d="M64,16 L70,40 L64,36 L58,40 L64,16 Z" fill="#CCFFCC" fill-opacity="0.7" />
      <path d="M64,112 L58,88 L64,92 L70,88 L64,112 Z" fill="#CCFFCC" fill-opacity="0.7" />
      <path d="M16,64 L40,58 L36,64 L40,70 L16,64 Z" fill="#CCFFCC" fill-opacity="0.7" />
      <path d="M112,64 L88,70 L92,64 L88,58 L112,64 Z" fill="#CCFFCC" fill-opacity="0.7" />
      
      <!-- Diagonal rays -->
      <path d="M32,32 L48,48 M96,32 L80,48 M32,96 L48,80 M96,96 L80,80" 
            stroke="#66FF66" stroke-width="3" stroke-linecap="round" />
    </g>
    
    <!-- Fel shards flying outward -->
    <g fill="#33FF33">
      <path d="M64,34 L67,40 L64,38 L61,40 Z" />
      <path d="M64,94 L61,88 L64,90 L67,88 Z" />
      <path d="M34,64 L40,67 L38,64 L40,61 Z" />
      <path d="M94,64 L88,61 L90,64 L88,67 Z" />
      
      <path d="M42,42 L48,48 L42,45 L45,42 Z" />
      <path d="M86,42 L80,48 L86,45 L83,42 Z" />
      <path d="M42,86 L48,80 L42,83 L45,86 Z" />
      <path d="M86,86 L80,80 L86,83 L83,86 Z" />
    </g>
    
    <!-- Fel spikes around the explosion -->
    <g stroke="#00FF00" stroke-width="2" fill="none">
      <path d="M57,17 L64,10 L71,17 M111,57 L118,64 L111,71 M71,111 L64,118 L57,111 M17,71 L10,64 L17,57" />
      <path d="M38,22 L44,14 L50,22 M106,38 L114,44 L106,50 M90,106 L84,114 L78,106 M22,90 L14,84 L22,78" />
    </g>
    
    <!-- Center energy -->
    <circle cx="64" cy="64" r="24" fill="#FFFFFF" fill-opacity="0.7" />
    <circle cx="64" cy="64" r="16" fill="#99FF99" fill-opacity="0.8" />
    <circle cx="64" cy="64" r="8" fill="#00FF00" fill-opacity="0.9" />
  </g>
</svg>