<?xml version="1.0" encoding="UTF-8"?>
<svg width="128" height="128" viewBox="0 0 128 128" xmlns="http://www.w3.org/2000/svg">
  <defs>
    <radialGradient id="felGlow" cx="50%" cy="50%" r="50%" fx="50%" fy="50%">
      <stop offset="0%" stop-color="#D9FFDF" stop-opacity="0.8"/>
      <stop offset="40%" stop-color="#66FF7F" stop-opacity="0.6"/>
      <stop offset="70%" stop-color="#33CC33" stop-opacity="0.4"/>
      <stop offset="100%" stop-color="#009900" stop-opacity="0.2"/>
    </radialGradient>
  </defs>
  
  <g>
    <!-- Base glow -->
    <circle cx="64" cy="64" r="60" fill="url(#felGlow)" />
    
    <!-- Fel energy tendrils -->
    <g fill="none" stroke="#33FF33" stroke-width="2" stroke-linecap="round">
      <path d="M64,24 C70,32 80,36 76,44 C72,52 60,54 64,60 C68,66 80,70 76,80 C72,90 56,94 64,100" />
      <path d="M64,24 C58,32 48,36 52,44 C56,52 68,54 64,60 C60,66 48,70 52,80 C56,90 72,94 64,100" />
      <path d="M32,44 C44,50 48,64 58,60 C68,56 70,42 78,48 C86,54 84,70 96,68" />
      <path d="M32,84 C44,78 48,64 58,68 C68,72 70,86 78,80 C86,74 84,58 96,60" />
    </g>
    
    <!-- Fel energy pulses -->
    <g fill="#33FF33" fill-opacity="0.6">
      <circle cx="64" cy="24" r="4" />
      <circle cx="64" cy="60" r="6" />
      <circle cx="64" cy="100" r="4" />
      <circle cx="32" cy="44" r="3" />
      <circle cx="32" cy="84" r="3" />
      <circle cx="96" cy="68" r="3" />
      <circle cx="96" cy="60" r="3" />
    </g>
    
    <!-- Fel runes around the edge -->
    <g stroke="#66FF66" stroke-width="1" fill="none">
      <path d="M38,18 L42,24 L38,22 L34,24 Z" />
      <path d="M90,18 L86,24 L90,22 L94,24 Z" />
      <path d="M18,38 L24,42 L22,38 L24,34 Z" />
      <path d="M18,90 L24,86 L22,90 L24,94 Z" />
      <path d="M38,110 L42,104 L38,106 L34,104 Z" />
      <path d="M90,110 L86,104 L90,106 L94,104 Z" />
      <path d="M110,38 L104,42 L106,38 L104,34 Z" />
      <path d="M110,90 L104,86 L106,90 L104,94 Z" />
    </g>
    
    <!-- Inner fel energy -->
    <circle cx="64" cy="64" r="30" fill="#33FF33" fill-opacity="0.2" />
  </g>
</svg>