<?xml version="1.0" encoding="UTF-8"?>
<svg width="256" height="256" viewBox="0 0 256 256" xmlns="http://www.w3.org/2000/svg">
  <!-- Phoenix Flame themed tooltip border texture -->
  <defs>
    <linearGradient id="phoenixBorderGradient" x1="0%" y1="0%" x2="100%" y2="100%">
      <stop offset="0%" style="stop-color:#FFA31A;stop-opacity:0.8" />
      <stop offset="50%" style="stop-color:#E64D0D;stop-opacity:0.6" />
      <stop offset="100%" style="stop-color:#992800;stop-opacity:0.8" />
    </linearGradient>
  </defs>
  
  <!-- Main border with rounded corners -->
  <rect x="4" y="4" width="248" height="248" rx="8" ry="8" 
        fill="none" stroke="url(#phoenixBorderGradient)" stroke-width="4" />
  
  <!-- Subtle corner accents with flame style -->
  <path d="M 4,24 L 4,12 Q 4,4 12,4 L 24,4" 
        stroke="url(#phoenixBorderGradient)" stroke-width="2" fill="none" />
  <path d="M 232,4 L 244,4 Q 252,4 252,12 L 252,24" 
        stroke="url(#phoenixBorderGradient)" stroke-width="2" fill="none" />
  <path d="M 252,232 L 252,244 Q 252,252 244,252 L 232,252" 
        stroke="url(#phoenixBorderGradient)" stroke-width="2" fill="none" />
  <path d="M 24,252 L 12,252 Q 4,252 4,244 L 4,232" 
        stroke="url(#phoenixBorderGradient)" stroke-width="2" fill="none" />
        
  <!-- Phoenix flame corner embellishments -->
  <path d="M 12,12 C 18,18 30,15 20,30 C 30,18 25,12 40,12" 
        stroke="#FFA31A" stroke-width="1" fill="none" />
  <path d="M 244,12 C 238,18 226,15 236,30 C 226,18 231,12 216,12" 
        stroke="#FFA31A" stroke-width="1" fill="none" />
  <path d="M 244,244 C 238,238 226,241 236,226 C 226,238 231,244 216,244" 
        stroke="#FFA31A" stroke-width="1" fill="none" />
  <path d="M 12,244 C 18,238 30,241 20,226 C 30,238 25,244 40,244" 
        stroke="#FFA31A" stroke-width="1" fill="none" />
</svg>