<?xml version="1.0" encoding="UTF-8"?>
<svg width="24" height="24" viewBox="0 0 24 24" xmlns="http://www.w3.org/2000/svg">
  <!-- Combat status icon (crossed swords) -->
  <defs>
    <linearGradient id="combatGradient" x1="0%" y1="0%" x2="100%" y2="100%">
      <stop offset="0%" style="stop-color:#FFD700;stop-opacity:1" />
      <stop offset="100%" style="stop-color:#FF6347;stop-opacity:1" />
    </linearGradient>
    
    <filter id="glow" x="-20%" y="-20%" width="140%" height="140%">
      <feGaussianBlur stdDeviation="1" result="blur" />
      <feComposite in="SourceGraphic" in2="blur" operator="over" />
    </filter>
  </defs>
  
  <!-- Sword 1 -->
  <path d="M 5,19 L 12,12 L 14,14 L 7,21 L 5,19 Z M 7,16 L 6,17 A 1,1 0,0,1 5,16 L 6,15 Z" 
        fill="url(#combatGradient)" filter="url(#glow)" />
  
  <!-- Sword 2 -->
  <path d="M 19,5 L 12,12 L 10,10 L 17,3 L 19,5 Z M 17,8 L 18,7 A 1,1 0,0,1 19,8 L 18,9 Z" 
        fill="url(#combatGradient)" filter="url(#glow)" />
        
  <!-- Outer glow line -->
  <path d="M 5,19 L 12,12 L 14,14 L 7,21 L 5,19 Z M 7,16 L 6,17 A 1,1 0,0,1 5,16 L 6,15 Z" 
        fill="none" stroke="#FFA500" stroke-width="0.5" stroke-opacity="0.8" />
  <path d="M 19,5 L 12,12 L 10,10 L 17,3 L 19,5 Z M 17,8 L 18,7 A 1,1 0,0,1 19,8 L 18,9 Z" 
        fill="none" stroke="#FFA500" stroke-width="0.5" stroke-opacity="0.8" />
</svg>