<?xml version="1.0" encoding="UTF-8"?>
<svg width="24" height="24" viewBox="0 0 24 24" xmlns="http://www.w3.org/2000/svg">
  <!-- Group Leader status icon (crown) -->
  <defs>
    <linearGradient id="leaderGradient" x1="0%" y1="0%" x2="100%" y2="100%">
      <stop offset="0%" style="stop-color:#FFD700;stop-opacity:1" />
      <stop offset="100%" style="stop-color:#DAA520;stop-opacity:1" />
    </linearGradient>
    
    <filter id="glow" x="-20%" y="-20%" width="140%" height="140%">
      <feGaussianBlur stdDeviation="1" result="blur" />
      <feComposite in="SourceGraphic" in2="blur" operator="over" />
    </filter>
  </defs>
  
  <!-- Crown base -->
  <path d="M 3,16 L 8,7 L 12,12 L 16,7 L 21,16 L 3,16 Z" 
        fill="url(#leaderGradient)" filter="url(#glow)" />
  
  <!-- Crown points -->
  <path d="M 5,16 L 5,18 L 19,18 L 19,16 Z M 8,7 L 8,9 L 9,9 L 9,7 Z M 16,7 L 16,9 L 15,9 L 15,7 Z" 
        fill="#FFD700" />
        
  <!-- Crown gems -->
  <circle cx="8" cy="13" r="1.5" fill="#FF0000" />
  <circle cx="12" cy="13" r="1.5" fill="#0000FF" />
  <circle cx="16" cy="13" r="1.5" fill="#00FF00" />
        
  <!-- Outer glow line -->
  <path d="M 3,16 L 8,7 L 12,12 L 16,7 L 21,16 L 3,16 Z M 5,16 L 5,18 L 19,18 L 19,16 Z" 
        fill="none" stroke="#FFC125" stroke-width="0.5" stroke-opacity="0.8" />
</svg>