<?xml version="1.0" encoding="UTF-8"?>
<svg width="24" height="24" viewBox="0 0 24 24" xmlns="http://www.w3.org/2000/svg">
  <!-- Phase status icon (ghostly shape) -->
  <defs>
    <linearGradient id="phaseGradient" x1="0%" y1="0%" x2="100%" y2="100%">
      <stop offset="0%" style="stop-color:#E6E6FA;stop-opacity:0.9" />
      <stop offset="100%" style="stop-color:#9370DB;stop-opacity:0.9" />
    </linearGradient>
    
    <filter id="glow" x="-20%" y="-20%" width="140%" height="140%">
      <feGaussianBlur stdDeviation="1.5" result="blur" />
      <feComposite in="SourceGraphic" in2="blur" operator="over" />
    </filter>
  </defs>
  
  <!-- Ghost shape -->
  <path d="M 12,3 C 8,3 5,6 5,10 L 5,16 C 5,17 6,19 7,19 C 8,19 8,17 9,17 C 10,17 10,19 11,19 
           C 12,19 12,17 13,17 C 14,17 14,19 15,19 C 16,19 16,17 17,17 C 18,17 19,19 19,17 L 19,10 C 19,6 16,3 12,3 Z" 
        fill="url(#phaseGradient)" fill-opacity="0.6" filter="url(#glow)" />
  
  <!-- Ghost eyes -->
  <circle cx="9" cy="9" r="1" fill="#9370DB" />
  <circle cx="15" cy="9" r="1" fill="#9370DB" />
        
  <!-- Outer glow line -->
  <path d="M 12,3 C 8,3 5,6 5,10 L 5,16 C 5,17 6,19 7,19 C 8,19 8,17 9,17 C 10,17 10,19 11,19 
           C 12,19 12,17 13,17 C 14,17 14,19 15,19 C 16,19 16,17 17,17 C 18,17 19,19 19,17 L 19,10 C 19,6 16,3 12,3 Z" 
        fill="none" stroke="#9370DB" stroke-width="0.5" stroke-opacity="0.8" />
</svg>