<?xml version="1.0" encoding="UTF-8"?>
<svg width="24" height="24" viewBox="0 0 24 24" xmlns="http://www.w3.org/2000/svg">
  <!-- PvP status icon (crossed swords with shield) -->
  <defs>
    <linearGradient id="pvpGradient" x1="0%" y1="0%" x2="100%" y2="100%">
      <stop offset="0%" style="stop-color:#CD5C5C;stop-opacity:1" />
      <stop offset="100%" style="stop-color:#8B0000;stop-opacity:1" />
    </linearGradient>
    
    <filter id="glow" x="-20%" y="-20%" width="140%" height="140%">
      <feGaussianBlur stdDeviation="1" result="blur" />
      <feComposite in="SourceGraphic" in2="blur" operator="over" />
    </filter>
  </defs>
  
  <!-- Shield base -->
  <path d="M 12,5 L 7,7 L 7,12 C 7,15 9,17 12,18 C 15,17 17,15 17,12 L 17,7 L 12,5 Z" 
        fill="url(#pvpGradient)" filter="url(#glow)" />
  
  <!-- Crossed swords -->
  <path d="M 9,9 L 15,15 M 15,9 L 9,15" 
        fill="none" stroke="#FFD700" stroke-width="1.5" />
        
  <!-- Sword hilts -->
  <circle cx="9" cy="9" r="1.2" fill="#DAA520" />
  <circle cx="15" cy="9" r="1.2" fill="#DAA520" />
  <circle cx="9" cy="15" r="1.2" fill="#DAA520" />
  <circle cx="15" cy="15" r="1.2" fill="#DAA520" />
        
  <!-- Outer glow line -->
  <path d="M 12,5 L 7,7 L 7,12 C 7,15 9,17 12,18 C 15,17 17,15 17,12 L 17,7 L 12,5 Z" 
        fill="none" stroke="#CD5C5C" stroke-width="0.5" stroke-opacity="0.8" />
</svg>