<?xml version="1.0" encoding="UTF-8"?>
<svg width="256" height="24" viewBox="0 0 256 24" xmlns="http://www.w3.org/2000/svg">
  <!-- Standard nameplate cast bar texture -->
  <defs>
    <linearGradient id="castBarGradient" x1="0%" y1="0%" x2="0%" y2="100%">
      <stop offset="0%" style="stop-color:#FFD100;stop-opacity:0.9" />
      <stop offset="50%" style="stop-color:#FFB000;stop-opacity:0.8" />
      <stop offset="100%" style="stop-color:#FF9000;stop-opacity:0.9" />
    </linearGradient>
    
    <linearGradient id="castHighlightGradient" x1="0%" y1="0%" x2="0%" y2="100%">
      <stop offset="0%" style="stop-color:#FFFFFF;stop-opacity:0.3" />
      <stop offset="100%" style="stop-color:#FFFFFF;stop-opacity:0.0" />
    </linearGradient>
  </defs>
  
  <!-- Main cast bar background - this will be partially filled based on cast progress -->
  <rect x="0" y="0" width="256" height="24" rx="3" ry="3" fill="url(#castBarGradient)" />
  
  <!-- Top highlight for 3D effect -->
  <path d="M 3,3 H 253 V 8 C 253,6 251,6 249,6 H 7 C 5,6 3,6 3,8 V 3 Z" 
        fill="url(#castHighlightGradient)" />
        
  <!-- Bottom shadow for 3D effect -->
  <path d="M 3,21 H 253 V 16 C 253,18 251,18 249,18 H 7 C 5,18 3,18 3,16 V 21 Z" 
        fill="#000000" fill-opacity="0.2" />
  
  <!-- Subtle sparkle pattern -->
  <path d="M 32,12 L 34,10 L 36,12 L 34,14 Z
           M 96,12 L 98,10 L 100,12 L 98,14 Z
           M 160,12 L 162,10 L 164,12 L 162,14 Z
           M 224,12 L 226,10 L 228,12 L 226,14 Z" 
        fill="#FFFFFF" fill-opacity="0.4" />
</svg>