<?xml version="1.0" encoding="UTF-8"?>
<svg width="256" height="20" viewBox="0 0 256 20" xmlns="http://www.w3.org/2000/svg">
  <!-- Thunder Storm themed mana power bar texture -->
  <defs>
    <linearGradient id="thunderManaGradient" x1="0%" y1="0%" x2="0%" y2="100%">
      <stop offset="0%" style="stop-color:#0A0A1A;stop-opacity:0.9" />
      <stop offset="50%" style="stop-color:#080814;stop-opacity:0.8" />
      <stop offset="100%" style="stop-color:#05050A;stop-opacity:0.9" />
    </linearGradient>
    
    <linearGradient id="thunderManaHighlightGradient" x1="0%" y1="0%" x2="0%" y2="100%">
      <stop offset="0%" style="stop-color:#4A9DFF;stop-opacity:0.5" />
      <stop offset="100%" style="stop-color:#1A64BE;stop-opacity:0.1" />
    </linearGradient>
    
    <linearGradient id="thunderStormGradient" x1="0%" y1="0%" x2="0%" y2="100%">
      <stop offset="0%" style="stop-color:#73C2FB;stop-opacity:0.3" />
      <stop offset="100%" style="stop-color:#0D9DE6;stop-opacity:0.0" />
    </linearGradient>
    
    <filter id="thunderManaGlow" x="-5%" y="-20%" width="110%" height="140%">
      <feGaussianBlur stdDeviation="0.5" result="blur" />
      <feComposite in="SourceGraphic" in2="blur" operator="over" />
    </filter>
  </defs>
  
  <!-- Main power bar background -->
  <rect x="0" y="0" width="256" height="20" rx="3" ry="3" fill="url(#thunderManaGradient)" filter="url(#thunderManaGlow)" />
  
  <!-- Top highlight for thunder storm effect -->
  <path d="M 3,3 H 253 V 7 C 253,5 251,5 249,5 H 7 C 5,5 3,5 3,7 V 3 Z" 
        fill="url(#thunderManaHighlightGradient)" />
        
  <!-- Bottom shadow for 3D effect with thunder storm -->
  <path d="M 3,17 H 253 V 13 C 253,15 251,15 249,15 H 7 C 5,15 3,15 3,13 V 17 Z" 
        fill="url(#thunderStormGradient)" />
  
  <!-- Lightning pattern -->
  <path d="M 32,5 L 30,10 L 34,10 L 32,15
           M 96,5 L 94,10 L 98,10 L 96,15
           M 160,5 L 158,10 L 162,10 L 160,15
           M 224,5 L 222,10 L 226,10 L 224,15" 
        stroke="#4A9DFF" stroke-width="0.7" stroke-opacity="0.3" fill="none" />
  
  <!-- Subtle static electricity zigzag for mana -->
  <path d="M 0,10 L 8,8 L 16,12 L 24,8 L 32,12 L 40,8 L 48,12 L 56,8 L 64,12
           L 72,8 L 80,12 L 88,8 L 96,12 L 104,8 L 112,12 L 120,8 L 128,12
           L 136,8 L 144,12 L 152,8 L 160,12 L 168,8 L 176,12 L 184,8 L 192,12
           L 200,8 L 208,12 L 216,8 L 224,12 L 232,8 L 240,12 L 248,8 L 256,12" 
        stroke="#2E7CD7" stroke-width="0.5" stroke-opacity="0.3" fill="none" />
</svg>