<?xml version="1.0" encoding="UTF-8"?>
<svg width="256" height="256" viewBox="0 0 256 256" xmlns="http://www.w3.org/2000/svg">
  <!-- Arcane Mystic themed MoveAny frame texture -->
  <defs>
    <linearGradient id="arcaneFrameGradient" x1="0%" y1="0%" x2="100%" y2="100%">
      <stop offset="0%" style="stop-color:#9D0DE6;stop-opacity:0.8" />
      <stop offset="50%" style="stop-color:#7000A7;stop-opacity:0.6" />
      <stop offset="100%" style="stop-color:#500082;stop-opacity:0.8" />
    </linearGradient>
  </defs>
  
  <!-- Main frame with rounded corners -->
  <rect x="4" y="4" width="248" height="248" rx="8" ry="8" 
        fill="none" stroke="url(#arcaneFrameGradient)" stroke-width="2" />
        
  <!-- Corner arcane symbol embellishments -->
  <circle cx="12" cy="12" r="4" fill="#D459FF" fill-opacity="0.7" />
  <circle cx="244" cy="12" r="4" fill="#D459FF" fill-opacity="0.7" />
  <circle cx="12" cy="244" r="4" fill="#D459FF" fill-opacity="0.7" />
  <circle cx="244" cy="244" r="4" fill="#D459FF" fill-opacity="0.7" />
  
  <!-- Arcane runes at corners -->
  <path d="M 12,8 L 12,16 M 8,12 L 16,12" stroke="#D459FF" stroke-width="1" stroke-opacity="0.7" />
  <path d="M 244,8 L 244,16 M 240,12 L 248,12" stroke="#D459FF" stroke-width="1" stroke-opacity="0.7" />
  <path d="M 12,240 L 12,248 M 8,244 L 16,244" stroke="#D459FF" stroke-width="1" stroke-opacity="0.7" />
  <path d="M 244,240 L 244,248 M 240,244 L 248,244" stroke="#D459FF" stroke-width="1" stroke-opacity="0.7" />
  
  <!-- Subtle inner frame -->
  <rect x="12" y="12" width="232" height="232" rx="6" ry="6" 
        fill="none" stroke="#1A0A2F" stroke-width="1" stroke-opacity="0.4" />
        
  <!-- Dashed highlight for visibility during movement -->
  <rect x="4" y="4" width="248" height="248" rx="8" ry="8" 
        fill="none" stroke="#D459FF" stroke-width="1" stroke-opacity="0.3" stroke-dasharray="4,4" />
</svg>