<?xml version="1.0" encoding="UTF-8"?>
<svg width="32px" height="32px" viewBox="0 0 32 32" version="1.1" xmlns="http://www.w3.org/2000/svg">
    <title>Healer Role Icon</title>
    <g id="healer-role" stroke="none" stroke-width="1" fill="none" fill-rule="evenodd">
        <path d="M16,2 C10.5,2 6,6.5 6,12 L6,22 C6,25.3 8.7,28 12,28 L20,28 C23.3,28 26,25.3 26,22 L26,12 C26,6.5 21.5,2 16,2 Z" id="shield-outline" stroke="#DDDDDD" stroke-width="2"></path>
        <path d="M16,5 C12,5 9,8 9,12 L9,20 C9,22.2 10.8,24 13,24 L19,24 C21.2,24 23,22.2 23,20 L23,12 C23,8 20,5 16,5 Z" id="shield-fill" fill="#199641"></path>
        <path d="M16,8 C15.4,8 15,8.4 15,9 L15,13 L11,13 C10.4,13 10,13.4 10,14 L10,18 C10,18.6 10.4,19 11,19 L15,19 L15,23 C15,23.6 15.4,24 16,24 L20,24 C20.6,24 21,23.6 21,23 L21,19 L25,19 C25.6,19 26,18.6 26,18 L26,14 C26,13.4 25.6,13 25,13 L21,13 L21,9 C21,8.4 20.6,8 20,8 L16,8 Z" id="cross" fill="#FFFFFF" transform="translate(18.000000, 16.000000) scale(0.6) translate(-18.000000, -16.000000)"></path>
    </g>
</svg>