<?xml version="1.0" encoding="UTF-8"?>
<svg width="32px" height="32px" viewBox="0 0 32 32" version="1.1" xmlns="http://www.w3.org/2000/svg">
    <title>Tank Role Icon</title>
    <g id="tank-role" stroke="none" stroke-width="1" fill="none" fill-rule="evenodd">
        <path d="M16,2 C10.5,2 6,6.5 6,12 L6,22 C6,25.3 8.7,28 12,28 L20,28 C23.3,28 26,25.3 26,22 L26,12 C26,6.5 21.5,2 16,2 Z" id="shield-outline" stroke="#DDDDDD" stroke-width="2"></path>
        <path d="M16,5 C12,5 9,8 9,12 L9,20 C9,22.2 10.8,24 13,24 L19,24 C21.2,24 23,22.2 23,20 L23,12 C23,8 20,5 16,5 Z" id="shield-fill" fill="#6C6C6C"></path>
        <path d="M16,9 C14.7,9 13.5,9.3 12.5,9.8 C11.6,10.3 11,11.1 11,12 L11,17 C11,18.1 13.2,19 16,19 C18.8,19 21,18.1 21,17 L21,12 C21,11.1 20.4,10.3 19.5,9.8 C18.5,9.3 17.3,9 16,9 Z" id="tank-icon" fill="#FFFFFF"></path>
    </g>
</svg>