<?xml version="1.0" encoding="UTF-8"?>
<svg width="32px" height="32px" viewBox="0 0 32 32" version="1.1" xmlns="http://www.w3.org/2000/svg">
    <title>Voice Chat Icon</title>
    <g id="voice-chat" stroke="none" stroke-width="1" fill="none" fill-rule="evenodd">
        <circle id="background" fill="#4676B9" cx="16" cy="16" r="14"></circle>
        <g id="microphone" transform="translate(8.000000, 4.000000)" fill="#FFFFFF">
            <path d="M8,0 C6.34,0 5,1.34 5,3 L5,10 C5,11.66 6.34,13 8,13 C9.66,13 11,11.66 11,10 L11,3 C11,1.34 9.66,0 8,0 Z" id="mic"></path>
            <path d="M14,8 L13,8 C13,11.3 10.3,14 7,14 L7,15 C7,15.6 7.4,16 8,16 C8.6,16 9,15.6 9,15 L9,14 C11.76,14 14,11.76 14,9 L14,8 Z" id="curve-right"></path>
            <path d="M2,8 L1,8 C1,11.3 3.7,14 7,14 L7,15 C7,15.6 6.6,16 6,16 C5.4,16 5,15.6 5,15 L5,14 C2.24,14 0,11.76 0,9 L0,8 Z" id="curve-left" transform="translate(3.500000, 12.000000) scale(-1, 1) translate(-3.500000, -12.000000)"></path>
            <rect id="stand" x="7" y="17" width="2" height="6"></rect>
            <rect id="base" x="4" y="23" width="8" height="2" rx="1"></rect>
        </g>
    </g>
</svg>