<?xml version="1.0" encoding="UTF-8"?>
<svg width="64" height="64" viewBox="0 0 64 64" xmlns="http://www.w3.org/2000/svg">
  <g transform="translate(0.000000,64.000000) scale(0.100000,-0.100000)" fill="#00FF00" stroke="none">
    <path d="M295 480 c-11 -4 -31 -20 -45 -35 -24 -26 -25 -35 -28 -155 l-4 -128
    -77 -4 c-69 -3 -79 -6 -96 -29 -36 -47 -10 -109 50 -119 17 -3 64 -3 105 -1
    l75 4 3 -79 c3 -74 5 -80 33 -102 39 -30 89 -28 122 5 25 25 27 33 27 108 l0
    81 81 -1 c68 -1 84 2 103 18 29 24 36 61 18 95 -15 28 -40 42 -82 42 -19 0
    -51 3 -70 6 l-35 7 -3 77 c-2 67 -6 81 -28 107 -29 34 -85 45 -149 28z"/>
  </g>
</svg>