<?xml version="1.0" encoding="UTF-8"?>
<svg width="128" height="128" viewBox="0 0 128 128" xmlns="http://www.w3.org/2000/svg">
  <defs>
    <linearGradient id="phoenixFlameGradient" x1="0%" y1="0%" x2="100%" y2="100%">
      <stop offset="0%" style="stop-color:#E64D0D;stop-opacity:1" />
      <stop offset="100%" style="stop-color:#FFA31A;stop-opacity:1" />
    </linearGradient>
    
    <filter id="flameGlow" x="-20%" y="-20%" width="140%" height="140%">
      <feGaussianBlur stdDeviation="4" result="blur" />
      <feComposite in="SourceGraphic" in2="blur" operator="over" />
    </filter>
  </defs>
  
  <!-- Main vortex spiral -->
  <g filter="url(#flameGlow)">
    <path d="M64,16 
             C88,16 108,36 108,60 
             C108,78 96,92 80,100 
             C90,92 96,78 96,64 
             C96,44 80,28 60,28 
             C44,28 32,40 32,56 
             C32,68 40,76 52,76 
             C60,76 66,70 66,62 
             C66,56 62,52 56,52 
             C52,52 48,56 48,60 
             C48,62 50,64 52,64 
             C54,64 56,62 56,60" 
          stroke="url(#phoenixFlameGradient)" stroke-width="8" fill="none" stroke-linecap="round" />
  </g>
  
  <!-- Outer ring -->
  <circle cx="64" cy="64" r="56" stroke="url(#phoenixFlameGradient)" stroke-width="4" fill="none" />
  
  <!-- VUI text -->
  <text x="64" y="112" font-family="Arial, sans-serif" font-size="24" font-weight="bold" text-anchor="middle" fill="url(#phoenixFlameGradient)">VUI</text>
</svg>