<?xml version="1.0" encoding="UTF-8"?>
<svg width="128" height="128" viewBox="0 0 128 128" xmlns="http://www.w3.org/2000/svg">
  <!-- Position of Power border texture (Phoenix Flame theme) -->
  <defs>
    <linearGradient id="phoenixBorderGradient" x1="0%" y1="0%" x2="100%" y2="100%">
      <stop offset="0%" style="stop-color:#E64D0D;stop-opacity:0.7" />
      <stop offset="25%" style="stop-color:#FFA31A;stop-opacity:0.9" />
      <stop offset="50%" style="stop-color:#E64D0D;stop-opacity:0.7" />
      <stop offset="75%" style="stop-color:#FFA31A;stop-opacity:0.9" />
      <stop offset="100%" style="stop-color:#E64D0D;stop-opacity:0.7" />
    </linearGradient>
    
    <filter id="phoenixGlow" x="-10%" y="-10%" width="120%" height="120%">
      <feGaussianBlur stdDeviation="2" result="blur" />
      <feFlood flood-color="#E64D0D" flood-opacity="0.5" result="glow" />
      <feComposite in="glow" in2="blur" operator="in" result="softGlow" />
      <feComposite in="SourceGraphic" in2="softGlow" operator="over" />
    </filter>
  </defs>
  
  <!-- Outer square border -->
  <rect x="6" y="6" width="116" height="116" rx="4" ry="4" 
        fill="none" stroke="url(#phoenixBorderGradient)" stroke-width="2" filter="url(#phoenixGlow)" />
  
  <!-- Corner accents with Phoenix Flame styling -->
  <path d="M 6,24 L 6,6 L 24,6" fill="none" stroke="url(#phoenixBorderGradient)" stroke-width="3" filter="url(#phoenixGlow)" />
  <path d="M 104,6 L 122,6 L 122,24" fill="none" stroke="url(#phoenixBorderGradient)" stroke-width="3" filter="url(#phoenixGlow)" />
  <path d="M 6,104 L 6,122 L 24,122" fill="none" stroke="url(#phoenixBorderGradient)" stroke-width="3" filter="url(#phoenixGlow)" />
  <path d="M 104,122 L 122,122 L 122,104" fill="none" stroke="url(#phoenixBorderGradient)" stroke-width="3" filter="url(#phoenixGlow)" />
  
  <!-- Central highlight dot markers with Phoenix Flame glow -->
  <circle cx="64" cy="6" r="2" fill="#FFA31A" filter="url(#phoenixGlow)" />
  <circle cx="122" cy="64" r="2" fill="#FFA31A" filter="url(#phoenixGlow)" />
  <circle cx="64" cy="122" r="2" fill="#FFA31A" filter="url(#phoenixGlow)" />
  <circle cx="6" cy="64" r="2" fill="#FFA31A" filter="url(#phoenixGlow)" />
  
  <!-- Flame corner indicators -->
  <path d="M 16,16 C 15,14 17,14 18,12 C 17,14 15,14 16,16 Z" fill="#FFA31A" opacity="0.8" />
  <path d="M 112,16 C 111,14 113,14 114,12 C 113,14 111,14 112,16 Z" fill="#FFA31A" opacity="0.8" />
  <path d="M 16,112 C 15,110 17,110 18,108 C 17,110 15,110 16,112 Z" fill="#FFA31A" opacity="0.8" />
  <path d="M 112,112 C 111,110 113,110 114,108 C 113,110 111,110 112,112 Z" fill="#FFA31A" opacity="0.8" />
  
  <!-- Phoenix ember decoration -->
  <path d="M 64,5 Q 67,2 70,5 Q 73,8 76,5 Q 79,2 82,5" 
        fill="none" stroke="#FFA31A" stroke-width="0.7" stroke-opacity="0.5" />
  <path d="M 123,64 Q 126,67 123,70 Q 120,73 123,76 Q 126,79 123,82" 
        fill="none" stroke="#FFA31A" stroke-width="0.7" stroke-opacity="0.5" />
  <path d="M 64,123 Q 61,126 58,123 Q 55,120 52,123 Q 49,126 46,123" 
        fill="none" stroke="#FFA31A" stroke-width="0.7" stroke-opacity="0.5" />
  <path d="M 5,64 Q 2,61 5,58 Q 8,55 5,52 Q 2,49 5,46" 
        fill="none" stroke="#FFA31A" stroke-width="0.7" stroke-opacity="0.5" />
</svg>