<?xml version="1.0" encoding="UTF-8"?>
<svg width="256" height="24" version="1.1" viewBox="0 0 256 24" xmlns="http://www.w3.org/2000/svg">
 <defs>
  <linearGradient id="linearGradient" x1="0" x2="0" y1="0" y2="24" gradientUnits="userSpaceOnUse">
   <stop stop-color="#e64d0d" offset="0"/>
   <stop stop-color="#1a0a05" offset="1"/>
  </linearGradient>
 </defs>
 <rect width="256" height="24" fill="url(#linearGradient)" fill-opacity=".95"/>
 <path d="m2 2v20h252v-20h-252zm1 1h250v18h-250v-18z" fill="#e64d0d" fill-opacity=".5"/>
 <g fill="#ffa31a" fill-opacity=".15">
  <path d="m45 2 2 3-2 3 3 4-3 4 2 3-2 3h12l-2-3 4-4-4-4 2-3-2-3z"/>
  <path d="m95 2 2 3-2 3 3 4-3 4 2 3-2 3h12l-2-3 4-4-4-4 2-3-2-3z"/>
  <path d="m145 2 2 3-2 3 3 4-3 4 2 3-2 3h12l-2-3 4-4-4-4 2-3-2-3z"/>
  <path d="m195 2 2 3-2 3 3 4-3 4 2 3-2 3h12l-2-3 4-4-4-4 2-3-2-3z"/>
 </g>
 
 <!-- Flame accent -->
 <path d="m12 4c1 3 3 4 3 6s-2 4-3 6c2-1 6-2 6-6 0-3-3-5-6-6z" fill="#e64d0d" fill-opacity=".6"/>
 <path d="m235 4c-1 3-3 4-3 6s2 4 3 6c-2-1-6-2-6-6 0-3 3-5 6-6z" fill="#e64d0d" fill-opacity=".6"/>
</svg>