<?xml version="1.0" encoding="UTF-8"?>
<svg width="256" height="256" viewBox="0 0 256 256" xmlns="http://www.w3.org/2000/svg">
  <!-- Arcane Mystic themed MSBT animation path texture -->
  <defs>
    <linearGradient id="arcanePathGradient" x1="0%" y1="0%" x2="100%" y2="100%">
      <stop offset="0%" style="stop-color:#D459FF;stop-opacity:0.7" />
      <stop offset="50%" style="stop-color:#9D0DE6;stop-opacity:0.5" />
      <stop offset="100%" style="stop-color:#6A0099;stop-opacity:0.7" />
    </linearGradient>
    
    <filter id="arcaneGlow" x="-10%" y="-10%" width="120%" height="120%">
      <feGaussianBlur stdDeviation="1.5" result="blur" />
      <feComposite in="SourceGraphic" in2="blur" operator="over" />
    </filter>
  </defs>
  
  <!-- Curved path for scrolling text to follow -->
  <path d="M 10,128 C 50,80 100,60 128,60 S 206,80 246,128" 
        fill="none" stroke="url(#arcanePathGradient)" stroke-width="2" stroke-dasharray="3,3" filter="url(#arcaneGlow)" />
  
  <!-- Reverse curved path (bottom) -->
  <path d="M 10,128 C 50,176 100,196 128,196 S 206,176 246,128" 
        fill="none" stroke="url(#arcanePathGradient)" stroke-width="2" stroke-dasharray="3,3" filter="url(#arcaneGlow)" />
  
  <!-- Arcane spiral path -->
  <path d="M 128,128 m -110,0 a 110,110 0 1,1 220,0 a 110,110 0 1,1 -220,0" 
        fill="none" stroke="url(#arcanePathGradient)" stroke-width="2" stroke-dasharray="5,2" filter="url(#arcaneGlow)" />
  
  <!-- Parabolic path (downward) -->
  <path d="M 10,60 Q 128,196 246,60" 
        fill="none" stroke="url(#arcanePathGradient)" stroke-width="2" stroke-dasharray="3,3" filter="url(#arcaneGlow)" />
  
  <!-- Arcane rune decorations -->
  <circle cx="10" cy="128" r="3" stroke="#D459FF" stroke-width="1" fill="none" opacity="0.6" />
  <circle cx="246" cy="128" r="3" stroke="#D459FF" stroke-width="1" fill="none" opacity="0.6" />
  <circle cx="128" cy="60" r="3" stroke="#D459FF" stroke-width="1" fill="none" opacity="0.6" />
  <circle cx="128" cy="196" r="3" stroke="#D459FF" stroke-width="1" fill="none" opacity="0.6" />
  
  <!-- Cross patterns in runes -->
  <path d="M 10,125 L 10,131 M 7,128 L 13,128" stroke="#D459FF" stroke-width="1" opacity="0.6" />
  <path d="M 246,125 L 246,131 M 243,128 L 249,128" stroke="#D459FF" stroke-width="1" opacity="0.6" />
  <path d="M 128,57 L 128,63 M 125,60 L 131,60" stroke="#D459FF" stroke-width="1" opacity="0.6" />
  <path d="M 128,193 L 128,199 M 125,196 L 131,196" stroke="#D459FF" stroke-width="1" opacity="0.6" />
</svg>