<?xml version="1.0" encoding="UTF-8" standalone="no"?>
<svg xmlns="http://www.w3.org/2000/svg" width="256" height="8" viewBox="0 0 256 8">
  <defs>
    <linearGradient id="gradient" x1="0%" y1="0%" x2="100%" y2="0%">
      <stop offset="0%" stop-color="#E64D0D" stop-opacity="1" />
      <stop offset="100%" stop-color="#FFA31A" stop-opacity="0.9" />
    </linearGradient>
    <filter id="glow" x="-10%" y="-10%" width="120%" height="120%">
      <feGaussianBlur in="SourceGraphic" stdDeviation="0.5" result="blur" />
      <feComposite in="blur" in2="SourceGraphic" operator="over" />
    </filter>
  </defs>
  <rect width="256" height="8" fill="url(#gradient)" filter="url(#glow)" rx="2" ry="2" />
  <g opacity="0.3">
    <path d="M 4,4 L 12,2 L 20,4 L 28,2 L 36,4 L 44,2 L 52,4 L 60,2 L 68,4 L 76,2 L 84,4 L 92,2 L 100,4 L 108,2 L 116,4 L 124,2 L 132,4 L 140,2 L 148,4 L 156,2 L 164,4 L 172,2 L 180,4 L 188,2 L 196,4 L 204,2 L 212,4 L 220,2 L 228,4 L 236,2 L 244,4 L 252,2" stroke="#FFF" stroke-width="0.3" fill="none" />
  </g>
</svg>