<?xml version="1.0" encoding="UTF-8" standalone="no"?>
<svg xmlns="http://www.w3.org/2000/svg" width="256" height="16" viewBox="0 0 256 16">
  <defs>
    <linearGradient id="gradient" x1="0%" y1="0%" x2="100%" y2="0%">
      <stop offset="0%" stop-color="#E64D0D" stop-opacity="1" />
      <stop offset="100%" stop-color="#FFA31A" stop-opacity="0.9" />
    </linearGradient>
    <filter id="glow" x="-10%" y="-10%" width="120%" height="120%">
      <feGaussianBlur in="SourceGraphic" stdDeviation="1" result="blur" />
      <feComposite in="blur" in2="SourceGraphic" operator="over" />
    </filter>
  </defs>
  <rect width="256" height="16" fill="url(#gradient)" filter="url(#glow)" rx="4" ry="4" />
  <g opacity="0.3">
    <path d="M 4,8 L 12,4 L 20,8 L 28,4 L 36,8 L 44,4 L 52,8 L 60,4 L 68,8 L 76,4 L 84,8 L 92,4 L 100,8 L 108,4 L 116,8 L 124,4 L 132,8 L 140,4 L 148,8 L 156,4 L 164,8 L 172,4 L 180,8 L 188,4 L 196,8 L 204,4 L 212,8 L 220,4 L 228,8 L 236,4 L 244,8 L 252,4" stroke="#FFF" stroke-width="0.5" fill="none" />
  </g>
</svg>