<?xml version="1.0" encoding="UTF-8"?>
<svg width="256" height="24" viewBox="0 0 256 24" xmlns="http://www.w3.org/2000/svg">
  <!-- Thunder Storm themed nameplate cast bar texture -->
  <defs>
    <linearGradient id="thunderCastBarGradient" x1="0%" y1="0%" x2="0%" y2="100%">
      <stop offset="0%" style="stop-color:#0A0A1A;stop-opacity:0.9" />
      <stop offset="50%" style="stop-color:#080814;stop-opacity:0.8" />
      <stop offset="100%" style="stop-color:#05050A;stop-opacity:0.9" />
    </linearGradient>
    
    <linearGradient id="thunderCastHighlightGradient" x1="0%" y1="0%" x2="0%" y2="100%">
      <stop offset="0%" style="stop-color:#73C2FB;stop-opacity:0.5" />
      <stop offset="100%" style="stop-color:#0D9DE6;stop-opacity:0.0" />
    </linearGradient>
    
    <filter id="thunderCastGlow" x="-5%" y="-20%" width="110%" height="140%">
      <feGaussianBlur stdDeviation="1" result="blur" />
      <feComposite in="SourceGraphic" in2="blur" operator="over" />
    </filter>
  </defs>
  
  <!-- Main cast bar background - this will be partially filled based on cast progress -->
  <rect x="0" y="0" width="256" height="24" rx="3" ry="3" fill="url(#thunderCastBarGradient)" filter="url(#thunderCastGlow)" />
  
  <!-- Top highlight for thunder storm effect -->
  <path d="M 3,3 H 253 V 8 C 253,6 251,6 249,6 H 7 C 5,6 3,6 3,8 V 3 Z" 
        fill="url(#thunderCastHighlightGradient)" />
        
  <!-- Bottom shadow for 3D effect -->
  <path d="M 3,21 H 253 V 16 C 253,18 251,18 249,18 H 7 C 5,18 3,18 3,16 V 21 Z" 
        fill="#000000" fill-opacity="0.2" />
  
  <!-- Lightning pattern -->
  <path d="M 32,8 L 30,12 L 34,12 L 32,16 M 96,8 L 94,12 L 98,12 L 96,16
           M 160,8 L 158,12 L 162,12 L 160,16 M 224,8 L 222,12 L 226,12 L 224,16" 
        stroke="#73C2FB" stroke-width="0.7" stroke-opacity="0.5" fill="none" />
  
  <!-- Subtle static electricity zigzag -->
  <path d="M 0,12 L 8,10 L 16,14 L 24,10 L 32,14 L 40,10 L 48,14 L 56,10 L 64,14
           L 72,10 L 80,14 L 88,10 L 96,14 L 104,10 L 112,14 L 120,10 L 128,14
           L 136,10 L 144,14 L 152,10 L 160,14 L 168,10 L 176,14 L 184,10 L 192,14
           L 200,10 L 208,14 L 216,10 L 224,14 L 232,10 L 240,14 L 248,10 L 256,14" 
        stroke="#0D9DE6" stroke-width="0.5" stroke-opacity="0.3" fill="none" />
</svg>