<?xml version="1.0" encoding="UTF-8"?>
<svg width="256" height="32" viewBox="0 0 256 32" xmlns="http://www.w3.org/2000/svg">
  <!-- Thunder Storm themed nameplate health bar texture -->
  <defs>
    <linearGradient id="thunderBarGradient" x1="0%" y1="0%" x2="0%" y2="100%">
      <stop offset="0%" style="stop-color:#0A0A1A;stop-opacity:0.9" />
      <stop offset="50%" style="stop-color:#080814;stop-opacity:0.8" />
      <stop offset="100%" style="stop-color:#05050A;stop-opacity:0.9" />
    </linearGradient>
    
    <linearGradient id="thunderHighlightGradient" x1="0%" y1="0%" x2="0%" y2="100%">
      <stop offset="0%" style="stop-color:#73C2FB;stop-opacity:0.4" />
      <stop offset="100%" style="stop-color:#0D9DE6;stop-opacity:0.0" />
    </linearGradient>
    
    <filter id="thunderGlow" x="-5%" y="-20%" width="110%" height="140%">
      <feGaussianBlur stdDeviation="1" result="blur" />
      <feComposite in="SourceGraphic" in2="blur" operator="over" />
    </filter>
  </defs>
  
  <!-- Main bar background - this will be colorized by the game based on unit type -->
  <rect x="0" y="0" width="256" height="32" rx="4" ry="4" fill="url(#thunderBarGradient)" filter="url(#thunderGlow)" />
  
  <!-- Top highlight for thunder storm effect -->
  <path d="M 4,4 H 252 V 12 C 252,8 250,8 248,8 H 8 C 6,8 4,8 4,12 V 4 Z" 
        fill="url(#thunderHighlightGradient)" />
        
  <!-- Bottom shadow for 3D effect -->
  <path d="M 4,28 H 252 V 20 C 252,24 250,24 248,24 H 8 C 6,24 4,24 4,20 V 28 Z" 
        fill="#000000" fill-opacity="0.2" />
  
  <!-- Lightning pattern -->
  <path d="M 32,12 L 30,16 L 34,16 L 32,20 M 96,12 L 94,16 L 98,16 L 96,20
           M 160,12 L 158,16 L 162,16 L 160,20 M 224,12 L 222,16 L 226,16 L 224,20" 
        stroke="#73C2FB" stroke-width="0.7" stroke-opacity="0.3" fill="none" />
  
  <!-- Subtle lightning zigzag edge -->
  <path d="M 0,16 L 8,14 L 16,18 L 24,14 L 32,18 L 40,14 L 48,18 L 56,14 L 64,18
           L 72,14 L 80,18 L 88,14 L 96,18 L 104,14 L 112,18 L 120,14 L 128,18
           L 136,14 L 144,18 L 152,14 L 160,18 L 168,14 L 176,18 L 184,14 L 192,18
           L 200,14 L 208,18 L 216,14 L 224,18 L 232,14 L 240,18 L 248,14 L 256,18" 
        stroke="#0D9DE6" stroke-width="0.5" stroke-opacity="0.2" fill="none" />
</svg>