<?xml version="1.0" encoding="UTF-8"?>
<svg width="256" height="256" viewBox="0 0 256 256" xmlns="http://www.w3.org/2000/svg">
  <!-- Fel Energy themed MoveAny frame texture -->
  <defs>
    <linearGradient id="felFrameGradient" x1="0%" y1="0%" x2="100%" y2="100%">
      <stop offset="0%" style="stop-color:#1AFF1A;stop-opacity:0.8" />
      <stop offset="50%" style="stop-color:#00AA00;stop-opacity:0.6" />
      <stop offset="100%" style="stop-color:#006600;stop-opacity:0.8" />
    </linearGradient>
  </defs>
  
  <!-- Main frame with rounded corners -->
  <rect x="4" y="4" width="248" height="248" rx="8" ry="8" 
        fill="none" stroke="url(#felFrameGradient)" stroke-width="2" />
        
  <!-- Corner fel corruption tendrils -->
  <path d="M 4,20 C 8,8 12,12 20,4 C 12,12 8,8 4,20 Z" 
        fill="#1AFF1A" fill-opacity="0.5" />
  <path d="M 252,20 C 248,8 244,12 236,4 C 244,12 248,8 252,20 Z" 
        fill="#1AFF1A" fill-opacity="0.5" />
  <path d="M 4,236 C 8,248 12,244 20,252 C 12,244 8,248 4,236 Z" 
        fill="#1AFF1A" fill-opacity="0.5" />
  <path d="M 252,236 C 248,248 244,244 236,252 C 244,244 248,248 252,236 Z" 
        fill="#1AFF1A" fill-opacity="0.5" />
  
  <!-- Subtle inner frame -->
  <rect x="12" y="12" width="232" height="232" rx="6" ry="6" 
        fill="none" stroke="#0A1A0A" stroke-width="1" stroke-opacity="0.4" />
        
  <!-- Dashed highlight for visibility during movement -->
  <rect x="4" y="4" width="248" height="248" rx="8" ry="8" 
        fill="none" stroke="#1AFF1A" stroke-width="1" stroke-opacity="0.3" stroke-dasharray="4,4" />
</svg>