<?xml version="1.0" encoding="UTF-8"?>
<svg width="64" height="64" viewBox="0 0 64 64" xmlns="http://www.w3.org/2000/svg">
  <!-- Thunder Storm themed MoveAny handle texture -->
  <defs>
    <linearGradient id="thunderHandleGradient" x1="0%" y1="0%" x2="100%" y2="100%">
      <stop offset="0%" style="stop-color:#0A0A1A;stop-opacity:0.9" />
      <stop offset="50%" style="stop-color:#101028;stop-opacity:0.8" />
      <stop offset="100%" style="stop-color:#0A0A1A;stop-opacity:0.9" />
    </linearGradient>
    
    <linearGradient id="thunderGripGradient" x1="0%" y1="0%" x2="100%" y2="0%">
      <stop offset="0%" style="stop-color:#66CCFF;stop-opacity:0.8" />
      <stop offset="50%" style="stop-color:#0D9DE6;stop-opacity:0.9" />
      <stop offset="100%" style="stop-color:#66CCFF;stop-opacity:0.8" />
    </linearGradient>
  </defs>
  
  <!-- Main handle -->
  <rect x="4" y="4" width="56" height="56" rx="4" ry="4" 
        fill="url(#thunderHandleGradient)" />
        
  <!-- Lightning accents at corners -->
  <path d="M 4,12 L 4,4 L 8,8 L 4,12 Z" fill="#0D9DE6" fill-opacity="0.7" />
  <path d="M 60,12 L 60,4 L 56,8 L 60,12 Z" fill="#0D9DE6" fill-opacity="0.7" />
  <path d="M 4,52 L 4,60 L 8,56 L 4,52 Z" fill="#0D9DE6" fill-opacity="0.7" />
  <path d="M 60,52 L 60,60 L 56,56 L 60,52 Z" fill="#0D9DE6" fill-opacity="0.7" />
        
  <!-- Border highlight -->
  <rect x="4" y="4" width="56" height="56" rx="4" ry="4" 
        fill="none" stroke="#66CCFF" stroke-width="1" stroke-opacity="0.4" />
        
  <!-- Grip lines like lightning bolts -->
  <line x1="16" y1="20" x2="48" y2="20" stroke="url(#thunderGripGradient)" stroke-width="2" />
  <line x1="16" y1="32" x2="48" y2="32" stroke="url(#thunderGripGradient)" stroke-width="2" />
  <line x1="16" y1="44" x2="48" y2="44" stroke="url(#thunderGripGradient)" stroke-width="2" />
  
  <!-- Hover highlight -->
  <rect x="4" y="4" width="56" height="56" rx="4" ry="4" 
        fill="#66CCFF" fill-opacity="0.1" class="handle-hover" />
</svg>