<?xml version="1.0" encoding="UTF-8"?>
<svg width="256" height="256" viewBox="0 0 256 256" xmlns="http://www.w3.org/2000/svg">
  <!-- Phoenix Flame themed PGFinder border texture -->
  <defs>
    <linearGradient id="phoenixBgGradient" x1="0%" y1="0%" x2="0%" y2="100%">
      <stop offset="0%" style="stop-color:#1A0A05;stop-opacity:0.9" />
      <stop offset="50%" style="stop-color:#140803;stop-opacity:0.85" />
      <stop offset="100%" style="stop-color:#0A0503;stop-opacity:0.9" />
    </linearGradient>
    
    <linearGradient id="phoenixBorderGradient" x1="0%" y1="0%" x2="100%" y2="100%">
      <stop offset="0%" style="stop-color:#FFA31A;stop-opacity:0.9" />
      <stop offset="50%" style="stop-color:#E64D0D;stop-opacity:0.85" />
      <stop offset="100%" style="stop-color:#AA3A0A;stop-opacity:0.9" />
    </linearGradient>
    
    <filter id="phoenixGlow" x="-15%" y="-15%" width="130%" height="130%">
      <feGaussianBlur in="SourceAlpha" stdDeviation="2" result="blur" />
      <feOffset dx="0" dy="0" result="offsetBlur" />
      <feComposite in="SourceAlpha" in2="offsetBlur" operator="out" result="innerGlow" />
      <feFlood flood-color="#E64D0D" flood-opacity="0.3" result="color" />
      <feComposite in="color" in2="innerGlow" operator="in" result="glow" />
      <feComposite in="glow" in2="SourceGraphic" operator="over" />
    </filter>
  </defs>
  
  <!-- Outer frame border -->
  <path d="M 16,4 H 240 C 248,4 252,8 252,16 
           V 240 C 252,248 248,252 240,252 
           H 16 C 8,252 4,248 4,240 
           V 16 C 4,8 8,4 16,4 Z 
           
           M 24,16 H 232 C 240,16 240,16 240,24 
           V 232 C 240,240 240,240 232,240 
           H 24 C 16,240 16,240 16,232 
           V 24 C 16,16 16,16 24,16 Z"
        fill="url(#phoenixBgGradient)" stroke="url(#phoenixBorderGradient)" stroke-width="1" filter="url(#phoenixGlow)" />
  
  <!-- Ember corner embellishments -->
  <circle cx="16" cy="16" r="4" fill="#E64D0D" fill-opacity="0.6" />
  <circle cx="240" cy="16" r="4" fill="#E64D0D" fill-opacity="0.6" />
  <circle cx="16" cy="240" r="4" fill="#E64D0D" fill-opacity="0.6" />
  <circle cx="240" cy="240" r="4" fill="#E64D0D" fill-opacity="0.6" />
  
  <!-- Flame tendrils -->
  <path d="M 16,16 Q 22,8 26,14 T 32,6" stroke="#FFA31A" stroke-width="1" stroke-opacity="0.6" fill="none" />
  <path d="M 240,16 Q 234,8 230,14 T 224,6" stroke="#FFA31A" stroke-width="1" stroke-opacity="0.6" fill="none" />
  <path d="M 16,240 Q 22,248 26,242 T 32,250" stroke="#FFA31A" stroke-width="1" stroke-opacity="0.6" fill="none" />
  <path d="M 240,240 Q 234,248 230,242 T 224,250" stroke="#FFA31A" stroke-width="1" stroke-opacity="0.6" fill="none" />
  
  <!-- Highlight for top edge -->
  <path d="M 16,4 H 240 C 248,4 252,8 252,16 V 24 
           C 252,16 248,12 240,12 H 16 C 8,12 4,16 4,24 
           V 16 C 4,8 8,4 16,4 Z" 
        fill="#FFA31A" fill-opacity="0.2" />
</svg>