<?xml version="1.0" encoding="UTF-8"?>
<svg width="128" height="128" viewBox="0 0 128 128" xmlns="http://www.w3.org/2000/svg">
  <!-- Position of Power border texture (Thunder Storm theme) -->
  <defs>
    <linearGradient id="thunderBorderGradient" x1="0%" y1="0%" x2="100%" y2="100%">
      <stop offset="0%" style="stop-color:#0D9DE6;stop-opacity:0.7" />
      <stop offset="25%" style="stop-color:#73C2FB;stop-opacity:0.9" />
      <stop offset="50%" style="stop-color:#0D9DE6;stop-opacity:0.7" />
      <stop offset="75%" style="stop-color:#73C2FB;stop-opacity:0.9" />
      <stop offset="100%" style="stop-color:#0D9DE6;stop-opacity:0.7" />
    </linearGradient>
    
    <filter id="thunderGlow" x="-10%" y="-10%" width="120%" height="120%">
      <feGaussianBlur stdDeviation="2" result="blur" />
      <feFlood flood-color="#0D9DE6" flood-opacity="0.5" result="glow" />
      <feComposite in="glow" in2="blur" operator="in" result="softGlow" />
      <feComposite in="SourceGraphic" in2="softGlow" operator="over" />
    </filter>
  </defs>
  
  <!-- Outer square border -->
  <rect x="6" y="6" width="116" height="116" rx="4" ry="4" 
        fill="none" stroke="url(#thunderBorderGradient)" stroke-width="2" filter="url(#thunderGlow)" />
  
  <!-- Corner accents with Thunder Storm styling -->
  <path d="M 6,24 L 6,6 L 24,6" fill="none" stroke="url(#thunderBorderGradient)" stroke-width="3" filter="url(#thunderGlow)" />
  <path d="M 104,6 L 122,6 L 122,24" fill="none" stroke="url(#thunderBorderGradient)" stroke-width="3" filter="url(#thunderGlow)" />
  <path d="M 6,104 L 6,122 L 24,122" fill="none" stroke="url(#thunderBorderGradient)" stroke-width="3" filter="url(#thunderGlow)" />
  <path d="M 104,122 L 122,122 L 122,104" fill="none" stroke="url(#thunderBorderGradient)" stroke-width="3" filter="url(#thunderGlow)" />
  
  <!-- Central highlight dot markers with Thunder Storm glow -->
  <circle cx="64" cy="6" r="2" fill="#73C2FB" filter="url(#thunderGlow)" />
  <circle cx="122" cy="64" r="2" fill="#73C2FB" filter="url(#thunderGlow)" />
  <circle cx="64" cy="122" r="2" fill="#73C2FB" filter="url(#thunderGlow)" />
  <circle cx="6" cy="64" r="2" fill="#73C2FB" filter="url(#thunderGlow)" />
  
  <!-- Lightning corner indicators -->
  <path d="M 16,16 L 14,20 L 18,20 L 16,24" stroke="#73C2FB" stroke-width="1" fill="none" />
  <path d="M 112,16 L 110,20 L 114,20 L 112,24" stroke="#73C2FB" stroke-width="1" fill="none" />
  <path d="M 16,112 L 14,108 L 18,108 L 16,104" stroke="#73C2FB" stroke-width="1" fill="none" />
  <path d="M 112,112 L 110,108 L 114,108 L 112,104" stroke="#73C2FB" stroke-width="1" fill="none" />
  
  <!-- Thunder static electricity decorations -->
  <path d="M 54,6 L 56,4 L 58,6 L 60,4 L 62,6 L 64,4 L 66,6 L 68,4 L 70,6 L 72,4 L 74,6" 
        fill="none" stroke="#73C2FB" stroke-width="0.7" stroke-opacity="0.5" />
  <path d="M 122,54 L 124,56 L 122,58 L 124,60 L 122,62 L 124,64 L 122,66 L 124,68 L 122,70 L 124,72 L 122,74" 
        fill="none" stroke="#73C2FB" stroke-width="0.7" stroke-opacity="0.5" />
  <path d="M 54,122 L 56,124 L 58,122 L 60,124 L 62,122 L 64,124 L 66,122 L 68,124 L 70,122 L 72,124 L 74,122" 
        fill="none" stroke="#73C2FB" stroke-width="0.7" stroke-opacity="0.5" />
  <path d="M 6,54 L 4,56 L 6,58 L 4,60 L 6,62 L 4,64 L 6,66 L 4,68 L 6,70 L 4,72 L 6,74" 
        fill="none" stroke="#73C2FB" stroke-width="0.7" stroke-opacity="0.5" />
</svg>