<?xml version="1.0" encoding="UTF-8"?>
<svg width="64" height="64" viewBox="0 0 64 64" xmlns="http://www.w3.org/2000/svg">
  <!-- Thunder Storm Theme Chest Icon -->
  <defs>
    <linearGradient id="lightning" x1="0%" y1="100%" x2="100%" y2="0%">
      <stop offset="0%" style="stop-color:#0D9DE6;stop-opacity:1" />
      <stop offset="100%" style="stop-color:#40B3FF;stop-opacity:1" />
    </linearGradient>
    <filter id="glow" x="-20%" y="-20%" width="140%" height="140%">
      <feGaussianBlur stdDeviation="2" result="blur" />
      <feComposite in="SourceGraphic" in2="blur" operator="over" />
    </filter>
  </defs>

  <!-- Chest Base -->
  <rect x="12" y="24" width="40" height="30" rx="2" fill="#101840" />
  
  <!-- Chest Top -->
  <path d="M10,24 L54,24 L50,14 L14,14 Z" fill="#1A2A4A" />
  
  <!-- Chest Front Panel -->
  <rect x="16" y="28" width="32" height="22" rx="1" fill="#203860" />
  
  <!-- Lock -->
  <rect x="28" y="22" width="8" height="10" rx="2" fill="#2A4A80" />
  <circle cx="32" cy="36" r="4" fill="url(#lightning)" filter="url(#glow)" />
  
  <!-- Chest Trim -->
  <rect x="12" y="24" width="40" height="3" fill="url(#lightning)" />
  <rect x="16" y="28" width="32" height="2" fill="url(#lightning)" />
  <rect x="16" y="48" width="32" height="2" fill="url(#lightning)" />
  
  <!-- Lightning Effects -->
  <path d="M32,28 L28,38 L34,38 L30,48" stroke="url(#lightning)" stroke-width="2" stroke-linecap="round" stroke-linejoin="round" fill="none" filter="url(#glow)" />
  <path d="M24,34 L26,30 L22,30 L24,26" stroke="url(#lightning)" stroke-width="1.5" stroke-linecap="round" stroke-linejoin="round" fill="none" filter="url(#glow)" />
  <path d="M40,34 L38,30 L42,30 L40,26" stroke="url(#lightning)" stroke-width="1.5" stroke-linecap="round" stroke-linejoin="round" fill="none" filter="url(#glow)" />
</svg>