<?xml version="1.0" encoding="UTF-8"?>
<svg width="256" height="32" viewBox="0 0 256 32" xmlns="http://www.w3.org/2000/svg">
  <!-- Thunder Storm Theme Progress Bar -->
  <defs>
    <linearGradient id="stormGradient" x1="0%" y1="50%" x2="100%" y2="50%">
      <stop offset="0%" style="stop-color:#0D9DE6;stop-opacity:1" />
      <stop offset="50%" style="stop-color:#40B3FF;stop-opacity:1" />
      <stop offset="100%" style="stop-color:#0D9DE6;stop-opacity:1" />
    </linearGradient>
    <filter id="lightningGlow" x="-10%" y="-30%" width="120%" height="160%">
      <feGaussianBlur stdDeviation="2" result="blur" />
      <feComposite in="SourceGraphic" in2="blur" operator="over" />
    </filter>
  </defs>
  
  <!-- Base Bar -->
  <rect x="0" y="0" width="256" height="32" rx="4" fill="#0A0A1A" />
  
  <!-- Progress Fill -->
  <rect x="2" y="2" width="252" height="28" rx="3" fill="url(#stormGradient)" filter="url(#lightningGlow)" />
  
  <!-- Lightning Effects -->
  <path d="M32,8 L28,16 L36,16 L32,24" stroke="white" stroke-width="2" stroke-opacity="0.7" stroke-linecap="round" stroke-linejoin="round" fill="none" />
  <path d="M128,8 L124,16 L132,16 L128,24" stroke="white" stroke-width="2" stroke-opacity="0.7" stroke-linecap="round" stroke-linejoin="round" fill="none" />
  <path d="M224,8 L220,16 L228,16 L224,24" stroke="white" stroke-width="2" stroke-opacity="0.7" stroke-linecap="round" stroke-linejoin="round" fill="none" />
  
  <!-- Small Lightning Bolts -->
  <path d="M64,12 L62,16 L66,16 L64,20" stroke="white" stroke-width="1.5" stroke-opacity="0.5" stroke-linecap="round" stroke-linejoin="round" fill="none" />
  <path d="M160,12 L158,16 L162,16 L160,20" stroke="white" stroke-width="1.5" stroke-opacity="0.5" stroke-linecap="round" stroke-linejoin="round" fill="none" />
  <path d="M96,12 L94,16 L98,16 L96,20" stroke="white" stroke-width="1.5" stroke-opacity="0.5" stroke-linecap="round" stroke-linejoin="round" fill="none" />
  <path d="M192,12 L190,16 L194,16 L192,20" stroke="white" stroke-width="1.5" stroke-opacity="0.5" stroke-linecap="round" stroke-linejoin="round" fill="none" />
  
  <!-- Border -->
  <rect x="0" y="0" width="256" height="32" rx="4" stroke="#0D9DE6" stroke-width="1" fill="none" />
</svg>