<?xml version="1.0" encoding="UTF-8"?>
<svg width="256" height="32" viewBox="0 0 256 32" xmlns="http://www.w3.org/2000/svg">
  <!-- Thunder Storm Theme Timer Bar -->
  <defs>
    <linearGradient id="timerGood" x1="0%" y1="50%" x2="100%" y2="50%">
      <stop offset="0%" style="stop-color:#00FF80;stop-opacity:1" />
      <stop offset="50%" style="stop-color:#40FF80;stop-opacity:1" />
      <stop offset="100%" style="stop-color:#00FF80;stop-opacity:1" />
    </linearGradient>
    <linearGradient id="timerWarning" x1="0%" y1="50%" x2="100%" y2="50%">
      <stop offset="0%" style="stop-color:#FFBF00;stop-opacity:1" />
      <stop offset="50%" style="stop-color:#FFD700;stop-opacity:1" />
      <stop offset="100%" style="stop-color:#FFBF00;stop-opacity:1" />
    </linearGradient>
    <linearGradient id="timerDanger" x1="0%" y1="50%" x2="100%" y2="50%">
      <stop offset="0%" style="stop-color:#FF0000;stop-opacity:1" />
      <stop offset="50%" style="stop-color:#FF6347;stop-opacity:1" />
      <stop offset="100%" style="stop-color:#FF0000;stop-opacity:1" />
    </linearGradient>
    <filter id="timerGlow" x="-10%" y="-30%" width="120%" height="160%">
      <feGaussianBlur stdDeviation="2" result="blur" />
      <feComposite in="SourceGraphic" in2="blur" operator="over" />
    </filter>
  </defs>
  
  <!-- Base Bar - Good Timer -->
  <rect x="0" y="0" width="256" height="32" rx="4" fill="#0A0A1A" />
  <rect x="2" y="2" width="252" height="28" rx="3" fill="url(#timerGood)" filter="url(#timerGlow)" />
  
  <!-- Time Marker Lines -->
  <rect x="64" y="0" width="2" height="32" fill="#0A0A1A" fill-opacity="0.6" />
  <rect x="128" y="0" width="2" height="32" fill="#0A0A1A" fill-opacity="0.6" />
  <rect x="192" y="0" width="2" height="32" fill="#0A0A1A" fill-opacity="0.6" />
  
  <!-- Lightning Effects -->
  <path d="M32,8 L28,16 L36,16 L32,24" stroke="white" stroke-width="2" stroke-opacity="0.7" stroke-linecap="round" stroke-linejoin="round" fill="none" />
  <path d="M96,8 L92,16 L100,16 L96,24" stroke="white" stroke-width="2" stroke-opacity="0.7" stroke-linecap="round" stroke-linejoin="round" fill="none" />
  <path d="M160,8 L156,16 L164,16 L160,24" stroke="white" stroke-width="2" stroke-opacity="0.7" stroke-linecap="round" stroke-linejoin="round" fill="none" />
  <path d="M224,8 L220,16 L228,16 L224,24" stroke="white" stroke-width="2" stroke-opacity="0.7" stroke-linecap="round" stroke-linejoin="round" fill="none" />
  
  <!-- Border -->
  <rect x="0" y="0" width="256" height="32" rx="4" stroke="#0D9DE6" stroke-width="1" fill="none" />
</svg>