<?xml version="1.0" encoding="UTF-8"?>
<svg width="64" height="64" viewBox="0 0 64 64" xmlns="http://www.w3.org/2000/svg">
  <!-- Arcane Mystic Theme Chest Icon -->
  <defs>
    <linearGradient id="arcane" x1="0%" y1="100%" x2="100%" y2="0%">
      <stop offset="0%" style="stop-color:#9D0DE6;stop-opacity:1" />
      <stop offset="100%" style="stop-color:#B340FF;stop-opacity:1" />
    </linearGradient>
    <filter id="glow" x="-20%" y="-20%" width="140%" height="140%">
      <feGaussianBlur stdDeviation="2" result="blur" />
      <feComposite in="SourceGraphic" in2="blur" operator="over" />
    </filter>
    <radialGradient id="runes" cx="50%" cy="50%" r="50%" fx="50%" fy="50%">
      <stop offset="0%" style="stop-color:#CC99FF;stop-opacity:1" />
      <stop offset="100%" style="stop-color:#9D0DE6;stop-opacity:0" />
    </radialGradient>
  </defs>

  <!-- Chest Base -->
  <rect x="12" y="24" width="40" height="30" rx="2" fill="#1A0A2F" />
  
  <!-- Chest Top -->
  <path d="M10,24 L54,24 L50,14 L14,14 Z" fill="#2A1A3F" />
  
  <!-- Chest Front Panel -->
  <rect x="16" y="28" width="32" height="22" rx="1" fill="#3A2A5F" />
  
  <!-- Lock -->
  <rect x="28" y="22" width="8" height="10" rx="2" fill="#4A3A7F" />
  <circle cx="32" cy="36" r="4" fill="url(#arcane)" filter="url(#glow)" />
  
  <!-- Chest Trim -->
  <rect x="12" y="24" width="40" height="3" fill="url(#arcane)" />
  <rect x="16" y="28" width="32" height="2" fill="url(#arcane)" />
  <rect x="16" y="48" width="32" height="2" fill="url(#arcane)" />
  
  <!-- Arcane Effects -->
  <circle cx="32" cy="36" r="12" fill="url(#runes)" opacity="0.5" filter="url(#glow)" />
  <path d="M25,33 A10,10 0 1,0 39,33 A10,10 0 1,0 25,33 Z" stroke="url(#arcane)" stroke-width="0.5" fill="none" stroke-dasharray="2,2" filter="url(#glow)" />
  <path d="M26,38 A8,8 0 1,0 38,38 A8,8 0 1,0 26,38 Z" stroke="url(#arcane)" stroke-width="0.5" fill="none" stroke-dasharray="2,2" filter="url(#glow)" />
  
  <!-- Arcane Runes -->
  <path d="M26,32 L28,30 L30,32 L28,34 Z" fill="url(#arcane)" filter="url(#glow)" />
  <path d="M34,32 L36,30 L38,32 L36,34 Z" fill="url(#arcane)" filter="url(#glow)" />
  <path d="M30,42 L32,40 L34,42 L32,44 Z" fill="url(#arcane)" filter="url(#glow)" />
</svg>