<?xml version="1.0" encoding="UTF-8"?>
<svg width="256" height="32" viewBox="0 0 256 32" xmlns="http://www.w3.org/2000/svg">
  <!-- Arcane Mystic Theme Progress Bar -->
  <defs>
    <linearGradient id="arcaneGradient" x1="0%" y1="50%" x2="100%" y2="50%">
      <stop offset="0%" style="stop-color:#9D0DE6;stop-opacity:1" />
      <stop offset="50%" style="stop-color:#B340FF;stop-opacity:1" />
      <stop offset="100%" style="stop-color:#9D0DE6;stop-opacity:1" />
    </linearGradient>
    <filter id="arcaneGlow" x="-10%" y="-30%" width="120%" height="160%">
      <feGaussianBlur stdDeviation="2" result="blur" />
      <feComposite in="SourceGraphic" in2="blur" operator="over" />
    </filter>
  </defs>
  
  <!-- Base Bar -->
  <rect x="0" y="0" width="256" height="32" rx="4" fill="#1A0A2F" />
  
  <!-- Progress Fill -->
  <rect x="2" y="2" width="252" height="28" rx="3" fill="url(#arcaneGradient)" filter="url(#arcaneGlow)" />
  
  <!-- Arcane Rune Effects -->
  <path d="M32,16 A14,7 0 1,1 32,16.001" stroke="#CC99FF" stroke-width="1" stroke-opacity="0.6" fill="none" />
  <path d="M96,16 A14,7 0 1,1 96,16.001" stroke="#CC99FF" stroke-width="1" stroke-opacity="0.6" fill="none" />
  <path d="M160,16 A14,7 0 1,1 160,16.001" stroke="#CC99FF" stroke-width="1" stroke-opacity="0.6" fill="none" />
  <path d="M224,16 A14,7 0 1,1 224,16.001" stroke="#CC99FF" stroke-width="1" stroke-opacity="0.6" fill="none" />
  
  <!-- Arcane Symbols -->
  <path d="M28,12 L36,12 L36,20 L28,20 Z" stroke="#CC99FF" stroke-width="1" stroke-opacity="0.8" fill="none" />
  <path d="M28,12 L36,20 M28,20 L36,12" stroke="#CC99FF" stroke-width="1" stroke-opacity="0.8" fill="none" />
  
  <path d="M92,12 L100,12 L100,20 L92,20 Z" stroke="#CC99FF" stroke-width="1" stroke-opacity="0.8" fill="none" />
  <path d="M92,12 L100,20 M92,20 L100,12" stroke="#CC99FF" stroke-width="1" stroke-opacity="0.8" fill="none" />
  
  <path d="M156,12 L164,12 L164,20 L156,20 Z" stroke="#CC99FF" stroke-width="1" stroke-opacity="0.8" fill="none" />
  <path d="M156,12 L164,20 M156,20 L164,12" stroke="#CC99FF" stroke-width="1" stroke-opacity="0.8" fill="none" />
  
  <path d="M220,12 L228,12 L228,20 L220,20 Z" stroke="#CC99FF" stroke-width="1" stroke-opacity="0.8" fill="none" />
  <path d="M220,12 L228,20 M220,20 L228,12" stroke="#CC99FF" stroke-width="1" stroke-opacity="0.8" fill="none" />
  
  <!-- Arcane Particles -->
  <circle cx="64" cy="12" r="1.5" fill="#CC99FF" fill-opacity="0.8" />
  <circle cx="68" cy="20" r="1.5" fill="#CC99FF" fill-opacity="0.8" />
  <circle cx="128" cy="12" r="1.5" fill="#CC99FF" fill-opacity="0.8" />
  <circle cx="132" cy="20" r="1.5" fill="#CC99FF" fill-opacity="0.8" />
  <circle cx="192" cy="12" r="1.5" fill="#CC99FF" fill-opacity="0.8" />
  <circle cx="196" cy="20" r="1.5" fill="#CC99FF" fill-opacity="0.8" />
  
  <!-- Border -->
  <rect x="0" y="0" width="256" height="32" rx="4" stroke="#9D0DE6" stroke-width="1" fill="none" />
</svg>