<?xml version="1.0" encoding="UTF-8"?>
<svg width="256" height="128" viewBox="0 0 256 128" xmlns="http://www.w3.org/2000/svg">
  <!-- Thunder Storm Enhanced Player Frame texture -->
  <defs>
    <linearGradient id="thunderFrameGradient" x1="0%" y1="0%" x2="0%" y2="100%">
      <stop offset="0%" style="stop-color:#0A0A1A;stop-opacity:0.9" />
      <stop offset="50%" style="stop-color:#080814;stop-opacity:0.8" />
      <stop offset="100%" style="stop-color:#05050A;stop-opacity:0.9" />
    </linearGradient>
    
    <linearGradient id="thunderHighlightGradient" x1="0%" y1="0%" x2="0%" y2="100%">
      <stop offset="0%" style="stop-color:#73C2FB;stop-opacity:0.3" />
      <stop offset="100%" style="stop-color:#73C2FB;stop-opacity:0.0" />
    </linearGradient>
    
    <linearGradient id="thunderBorderGradient" x1="0%" y1="0%" x2="100%" y2="100%">
      <stop offset="0%" style="stop-color:#0D9DE6;stop-opacity:1" />
      <stop offset="50%" style="stop-color:#73C2FB;stop-opacity:1" />
      <stop offset="100%" style="stop-color:#0D9DE6;stop-opacity:1" />
    </linearGradient>
    
    <filter id="thunderGlow" x="-5%" y="-5%" width="110%" height="110%">
      <feGaussianBlur stdDeviation="2" result="blur" />
      <feComposite in="SourceGraphic" in2="blur" operator="over" />
    </filter>
    
    <filter id="stormBorderGlow" x="-10%" y="-10%" width="120%" height="120%">
      <feGaussianBlur stdDeviation="1" result="blur" />
      <feFlood flood-color="#0D9DE6" flood-opacity="0.5" result="glow" />
      <feComposite in="glow" in2="blur" operator="in" result="softGlow" />
      <feComposite in="SourceGraphic" in2="softGlow" operator="over" />
    </filter>
  </defs>
  
  <!-- Main frame background with rounded corners -->
  <rect x="8" y="8" width="240" height="112" rx="6" ry="6" fill="url(#thunderFrameGradient)" filter="url(#thunderGlow)" />
  
  <!-- Portrait area circle cutout (indicated with a different color) -->
  <circle cx="58" cy="64" r="42" fill="#0D0D1F" />
  
  <!-- Player info area (right of portrait) -->
  <rect x="108" y="22" width="130" height="30" rx="4" ry="4" fill="#0D0D1F" />
  
  <!-- Health bar area -->
  <rect x="108" y="60" width="130" height="20" rx="3" ry="3" fill="#12122A" />
  
  <!-- Power bar area -->
  <rect x="108" y="86" width="130" height="20" rx="3" ry="3" fill="#12122A" />
  
  <!-- Top highlight for Thunder Storm effect -->
  <path d="M 14,14 H 242 V 20 C 242,17 240,17 236,17 H 20 C 16,17 14,17 14,20 V 14 Z" 
        fill="url(#thunderHighlightGradient)" />
        
  <!-- Bottom shadow for Thunder Storm effect -->
  <path d="M 14,114 H 242 V 108 C 242,111 240,111 236,111 H 20 C 16,111 14,111 14,108 V 114 Z" 
        fill="#000000" fill-opacity="0.3" />
  
  <!-- Thunder Storm frame edge (border) -->
  <rect x="8" y="8" width="240" height="112" rx="6" ry="6" 
        fill="none" stroke="url(#thunderBorderGradient)" stroke-width="1.5" filter="url(#stormBorderGlow)" />
  
  <!-- Lightning decorations -->
  <path d="M 32,8 L 30,13 L 34,13 L 32,20
           M 120,8 L 118,13 L 122,13 L 120,20
           M 208,8 L 206,13 L 210,13 L 208,20
           M 248,64 L 243,62 L 243,66 L 236,64
           M 8,64 L 13,62 L 13,66 L 20,64" 
        fill="none" stroke="#73C2FB" stroke-width="0.7" stroke-opacity="0.5" />
</svg>