<?xml version="1.0" encoding="UTF-8"?>
<svg width="256" height="256" viewBox="0 0 256 256" xmlns="http://www.w3.org/2000/svg">
  <!-- Arcane Mystic themed PGFinder border texture -->
  <defs>
    <linearGradient id="arcaneBgGradient" x1="0%" y1="0%" x2="0%" y2="100%">
      <stop offset="0%" style="stop-color:#1A0A2F;stop-opacity:0.9" />
      <stop offset="50%" style="stop-color:#140823;stop-opacity:0.85" />
      <stop offset="100%" style="stop-color:#0A051A;stop-opacity:0.9" />
    </linearGradient>
    
    <linearGradient id="arcaneBorderGradient" x1="0%" y1="0%" x2="100%" y2="100%">
      <stop offset="0%" style="stop-color:#D459FF;stop-opacity:0.9" />
      <stop offset="50%" style="stop-color:#9D0DE6;stop-opacity:0.85" />
      <stop offset="100%" style="stop-color:#6A0099;stop-opacity:0.9" />
    </linearGradient>
    
    <filter id="arcaneGlow" x="-15%" y="-15%" width="130%" height="130%">
      <feGaussianBlur in="SourceAlpha" stdDeviation="2" result="blur" />
      <feOffset dx="0" dy="0" result="offsetBlur" />
      <feComposite in="SourceAlpha" in2="offsetBlur" operator="out" result="innerGlow" />
      <feFlood flood-color="#9D0DE6" flood-opacity="0.3" result="color" />
      <feComposite in="color" in2="innerGlow" operator="in" result="glow" />
      <feComposite in="glow" in2="SourceGraphic" operator="over" />
    </filter>
  </defs>
  
  <!-- Outer frame border -->
  <path d="M 16,4 H 240 C 248,4 252,8 252,16 
           V 240 C 252,248 248,252 240,252 
           H 16 C 8,252 4,248 4,240 
           V 16 C 4,8 8,4 16,4 Z 
           
           M 24,16 H 232 C 240,16 240,16 240,24 
           V 232 C 240,240 240,240 232,240 
           H 24 C 16,240 16,240 16,232 
           V 24 C 16,16 16,16 24,16 Z"
        fill="url(#arcaneBgGradient)" stroke="url(#arcaneBorderGradient)" stroke-width="1" filter="url(#arcaneGlow)" />
  
  <!-- Arcane rune corner embellishments -->
  <circle cx="16" cy="16" r="4" fill="#9D0DE6" fill-opacity="0.8" />
  <circle cx="240" cy="16" r="4" fill="#9D0DE6" fill-opacity="0.8" />
  <circle cx="16" cy="240" r="4" fill="#9D0DE6" fill-opacity="0.8" />
  <circle cx="240" cy="240" r="4" fill="#9D0DE6" fill-opacity="0.8" />
  
  <!-- Cross patterns in runes -->
  <path d="M 16,12 L 16,20 M 12,16 L 20,16" stroke="#D459FF" stroke-width="1" stroke-opacity="0.8" />
  <path d="M 240,12 L 240,20 M 236,16 L 244,16" stroke="#D459FF" stroke-width="1" stroke-opacity="0.8" />
  <path d="M 16,236 L 16,244 M 12,240 L 20,240" stroke="#D459FF" stroke-width="1" stroke-opacity="0.8" />
  <path d="M 240,236 L 240,244 M 236,240 L 244,240" stroke="#D459FF" stroke-width="1" stroke-opacity="0.8" />
  
  <!-- Highlight for top edge -->
  <path d="M 16,4 H 240 C 248,4 252,8 252,16 V 24 
           C 252,16 248,12 240,12 H 16 C 8,12 4,16 4,24 
           V 16 C 4,8 8,4 16,4 Z" 
        fill="#D459FF" fill-opacity="0.2" />
</svg>