<?xml version="1.0" encoding="UTF-8"?>
<svg width="128" height="32" viewBox="0 0 128 32" xmlns="http://www.w3.org/2000/svg">
  <!-- Arcane Mystic themed PGFinder button texture -->
  <defs>
    <linearGradient id="arcaneButtonGradient" x1="0%" y1="0%" x2="0%" y2="100%">
      <stop offset="0%" style="stop-color:#1A0A2F;stop-opacity:0.9" />
      <stop offset="50%" style="stop-color:#140823;stop-opacity:0.85" />
      <stop offset="100%" style="stop-color:#0A051A;stop-opacity:0.9" />
    </linearGradient>
    
    <linearGradient id="arcaneBorderGradient" x1="0%" y1="0%" x2="100%" y2="100%">
      <stop offset="0%" style="stop-color:#D459FF;stop-opacity:0.9" />
      <stop offset="50%" style="stop-color:#9D0DE6;stop-opacity:0.85" />
      <stop offset="100%" style="stop-color:#6A0099;stop-opacity:0.9" />
    </linearGradient>
    
    <filter id="arcaneGlow" x="-20%" y="-20%" width="140%" height="140%">
      <feGaussianBlur in="SourceAlpha" stdDeviation="1" result="blur" />
      <feOffset dx="0" dy="1" result="offsetBlur" />
      <feComposite in="SourceAlpha" in2="offsetBlur" operator="out" result="innerShadow" />
      <feFlood flood-color="#9D0DE6" flood-opacity="0.3" result="color" />
      <feComposite in="color" in2="innerShadow" operator="in" result="shadow" />
      <feComposite in="shadow" in2="SourceGraphic" operator="over" />
    </filter>
  </defs>
  
  <!-- Button body -->
  <rect x="2" y="2" width="124" height="28" rx="3" ry="3" 
        fill="url(#arcaneButtonGradient)" stroke="url(#arcaneBorderGradient)" stroke-width="1" filter="url(#arcaneGlow)" />
  
  <!-- Arcane rune corner embellishments -->
  <circle cx="5" cy="5" r="1.5" fill="#9D0DE6" fill-opacity="0.8" />
  <circle cx="123" cy="5" r="1.5" fill="#9D0DE6" fill-opacity="0.8" />
  <circle cx="5" cy="27" r="1.5" fill="#9D0DE6" fill-opacity="0.8" />
  <circle cx="123" cy="27" r="1.5" fill="#9D0DE6" fill-opacity="0.8" />
  
  <!-- Cross patterns in runes -->
  <path d="M 5,3.5 L 5,6.5 M 3.5,5 L 6.5,5" stroke="#D459FF" stroke-width="0.5" stroke-opacity="0.8" />
  <path d="M 123,3.5 L 123,6.5 M 121.5,5 L 124.5,5" stroke="#D459FF" stroke-width="0.5" stroke-opacity="0.8" />
  <path d="M 5,25.5 L 5,28.5 M 3.5,27 L 6.5,27" stroke="#D459FF" stroke-width="0.5" stroke-opacity="0.8" />
  <path d="M 123,25.5 L 123,28.5 M 121.5,27 L 124.5,27" stroke="#D459FF" stroke-width="0.5" stroke-opacity="0.8" />
  
  <!-- Highlight for top edge -->
  <path d="M 5,2 H 123 C 125,2 126,3 126,5 V 7 C 126,5 125,4 123,4 H 5 C 3,4 2,5 2,7 V 5 C 2,3 3,2 5,2 Z" 
        fill="#D459FF" fill-opacity="0.2" />
  
  <!-- Subtle inner border -->
  <rect x="4" y="4" width="120" height="24" rx="2" ry="2" 
        fill="none" stroke="#0A051A" stroke-width="0.5" stroke-opacity="0.2" />
</svg>