<?xml version="1.0" encoding="UTF-8"?>
<svg width="256" height="20" viewBox="0 0 256 20" xmlns="http://www.w3.org/2000/svg">
  <!-- Standard Unitframe energy power bar texture -->
  <defs>
    <linearGradient id="energyGradient" x1="0%" y1="0%" x2="0%" y2="100%">
      <stop offset="0%" style="stop-color:#FFEB4A;stop-opacity:0.9" />
      <stop offset="50%" style="stop-color:#D7C82E;stop-opacity:0.8" />
      <stop offset="100%" style="stop-color:#BEA91A;stop-opacity:0.9" />
    </linearGradient>
    
    <linearGradient id="energyHighlightGradient" x1="0%" y1="0%" x2="0%" y2="100%">
      <stop offset="0%" style="stop-color:#FFFFFF;stop-opacity:0.3" />
      <stop offset="100%" style="stop-color:#FFFFFF;stop-opacity:0.0" />
    </linearGradient>
  </defs>
  
  <!-- Main power bar background -->
  <rect x="0" y="0" width="256" height="20" rx="3" ry="3" fill="url(#energyGradient)" />
  
  <!-- Top highlight for 3D effect -->
  <path d="M 3,3 H 253 V 7 C 253,5 251,5 249,5 H 7 C 5,5 3,5 3,7 V 3 Z" 
        fill="url(#energyHighlightGradient)" />
        
  <!-- Bottom shadow for 3D effect -->
  <path d="M 3,17 H 253 V 13 C 253,15 251,15 249,15 H 7 C 5,15 3,15 3,13 V 17 Z" 
        fill="#000000" fill-opacity="0.2" />
  
  <!-- Subtle energy pattern (lightning bolts) -->
  <path d="M 32,5 L 30,10 L 34,10 L 32,15
           M 96,5 L 94,10 L 98,10 L 96,15
           M 160,5 L 158,10 L 162,10 L 160,15
           M 224,5 L 222,10 L 226,10 L 224,15" 
        fill="none" stroke="#FFFFFF" stroke-width="1" stroke-opacity="0.2" />
</svg>