<?xml version="1.0" encoding="UTF-8"?>
<svg width="256" height="20" viewBox="0 0 256 20" xmlns="http://www.w3.org/2000/svg">
  <!-- Standard Unitframe mana power bar texture -->
  <defs>
    <linearGradient id="manaGradient" x1="0%" y1="0%" x2="0%" y2="100%">
      <stop offset="0%" style="stop-color:#4A9DFF;stop-opacity:0.9" />
      <stop offset="50%" style="stop-color:#2E7CD7;stop-opacity:0.8" />
      <stop offset="100%" style="stop-color:#1A64BE;stop-opacity:0.9" />
    </linearGradient>
    
    <linearGradient id="manaHighlightGradient" x1="0%" y1="0%" x2="0%" y2="100%">
      <stop offset="0%" style="stop-color:#FFFFFF;stop-opacity:0.3" />
      <stop offset="100%" style="stop-color:#FFFFFF;stop-opacity:0.0" />
    </linearGradient>
  </defs>
  
  <!-- Main power bar background -->
  <rect x="0" y="0" width="256" height="20" rx="3" ry="3" fill="url(#manaGradient)" />
  
  <!-- Top highlight for 3D effect -->
  <path d="M 3,3 H 253 V 7 C 253,5 251,5 249,5 H 7 C 5,5 3,5 3,7 V 3 Z" 
        fill="url(#manaHighlightGradient)" />
        
  <!-- Bottom shadow for 3D effect -->
  <path d="M 3,17 H 253 V 13 C 253,15 251,15 249,15 H 7 C 5,15 3,15 3,13 V 17 Z" 
        fill="#000000" fill-opacity="0.2" />
  
  <!-- Subtle arcane pattern -->
  <path d="M 32,10 L 34,8 L 36,10 L 34,12 Z
           M 96,10 L 98,8 L 100,10 L 98,12 Z
           M 160,10 L 162,8 L 164,10 L 162,12 Z
           M 224,10 L 226,8 L 228,10 L 226,12 Z" 
        fill="#FFFFFF" fill-opacity="0.2" />
</svg>