<?xml version="1.0" encoding="UTF-8"?>
<svg width="256" height="20" viewBox="0 0 256 20" xmlns="http://www.w3.org/2000/svg">
  <!-- Standard Unitframe rage power bar texture -->
  <defs>
    <linearGradient id="rageGradient" x1="0%" y1="0%" x2="0%" y2="100%">
      <stop offset="0%" style="stop-color:#FF4A4A;stop-opacity:0.9" />
      <stop offset="50%" style="stop-color:#D72E2E;stop-opacity:0.8" />
      <stop offset="100%" style="stop-color:#BE1A1A;stop-opacity:0.9" />
    </linearGradient>
    
    <linearGradient id="rageHighlightGradient" x1="0%" y1="0%" x2="0%" y2="100%">
      <stop offset="0%" style="stop-color:#FFFFFF;stop-opacity:0.3" />
      <stop offset="100%" style="stop-color:#FFFFFF;stop-opacity:0.0" />
    </linearGradient>
  </defs>
  
  <!-- Main power bar background -->
  <rect x="0" y="0" width="256" height="20" rx="3" ry="3" fill="url(#rageGradient)" />
  
  <!-- Top highlight for 3D effect -->
  <path d="M 3,3 H 253 V 7 C 253,5 251,5 249,5 H 7 C 5,5 3,5 3,7 V 3 Z" 
        fill="url(#rageHighlightGradient)" />
        
  <!-- Bottom shadow for 3D effect -->
  <path d="M 3,17 H 253 V 13 C 253,15 251,15 249,15 H 7 C 5,15 3,15 3,13 V 17 Z" 
        fill="#000000" fill-opacity="0.2" />
  
  <!-- Subtle rage pattern -->
  <path d="M 32,10 L 28,6 L 36,6 L 32,10 Z
           M 96,10 L 92,6 L 100,6 L 96,10 Z
           M 160,10 L 156,6 L 164,6 L 160,10 Z
           M 224,10 L 220,6 L 228,6 L 224,10 Z" 
        fill="#FFFFFF" fill-opacity="0.2" />
</svg>