<?xml version="1.0" encoding="UTF-8"?>
<svg width="256" height="20" viewBox="0 0 256 20" xmlns="http://www.w3.org/2000/svg">
  <!-- Standard Unitframe runic power bar texture -->
  <defs>
    <linearGradient id="runicGradient" x1="0%" y1="0%" x2="0%" y2="100%">
      <stop offset="0%" style="stop-color:#00DEFF;stop-opacity:0.9" />
      <stop offset="50%" style="stop-color:#00B3D1;stop-opacity:0.8" />
      <stop offset="100%" style="stop-color:#0099B4;stop-opacity:0.9" />
    </linearGradient>
    
    <linearGradient id="runicHighlightGradient" x1="0%" y1="0%" x2="0%" y2="100%">
      <stop offset="0%" style="stop-color:#FFFFFF;stop-opacity:0.3" />
      <stop offset="100%" style="stop-color:#FFFFFF;stop-opacity:0.0" />
    </linearGradient>
  </defs>
  
  <!-- Main power bar background -->
  <rect x="0" y="0" width="256" height="20" rx="3" ry="3" fill="url(#runicGradient)" />
  
  <!-- Top highlight for 3D effect -->
  <path d="M 3,3 H 253 V 7 C 253,5 251,5 249,5 H 7 C 5,5 3,5 3,7 V 3 Z" 
        fill="url(#runicHighlightGradient)" />
        
  <!-- Bottom shadow for 3D effect -->
  <path d="M 3,17 H 253 V 13 C 253,15 251,15 249,15 H 7 C 5,15 3,15 3,13 V 17 Z" 
        fill="#000000" fill-opacity="0.2" />
  
  <!-- Subtle runic pattern (death knight runes) -->
  <path d="M 32,6 L 32,14 M 30,7 L 34,13 M 30,13 L 34,7
           M 96,6 L 96,14 M 94,7 L 98,13 M 94,13 L 98,7
           M 160,6 L 160,14 M 158,7 L 162,13 M 158,13 L 162,7
           M 224,6 L 224,14 M 222,7 L 226,13 M 222,13 L 226,7" 
        fill="none" stroke="#FFFFFF" stroke-width="0.8" stroke-opacity="0.2" />
</svg>