<?xml version="1.0" encoding="UTF-8"?>
<svg width="64" height="64" viewBox="0 0 64 64" xmlns="http://www.w3.org/2000/svg">
  <!-- Fel Energy themed action button texture -->
  <defs>
    <linearGradient id="felButtonGradient" x1="0%" y1="0%" x2="100%" y2="100%">
      <stop offset="0%" style="stop-color:#0A1A0A;stop-opacity:0.9" />
      <stop offset="50%" style="stop-color:#081408;stop-opacity:0.8" />
      <stop offset="100%" style="stop-color:#0A1A0A;stop-opacity:0.9" />
    </linearGradient>
    
    <linearGradient id="felBorderGradient" x1="0%" y1="0%" x2="100%" y2="100%">
      <stop offset="0%" style="stop-color:#1AFF1A;stop-opacity:0.9" />
      <stop offset="50%" style="stop-color:#00AA00;stop-opacity:0.8" />
      <stop offset="100%" style="stop-color:#006600;stop-opacity:0.9" />
    </linearGradient>
    
    <filter id="felGlow" x="-20%" y="-20%" width="140%" height="140%">
      <feGaussianBlur in="SourceAlpha" stdDeviation="2" result="blur" />
      <feOffset dx="0" dy="0" result="offsetBlur" />
      <feComposite in="SourceAlpha" in2="offsetBlur" operator="out" result="innerShadow" />
      <feFlood flood-color="#00AA00" flood-opacity="0.3" result="color" />
      <feComposite in="color" in2="innerShadow" operator="in" result="glow" />
      <feComposite in="glow" in2="SourceGraphic" operator="over" />
    </filter>
  </defs>
  
  <!-- Main button background -->
  <rect x="2" y="2" width="60" height="60" rx="4" ry="4" 
        fill="url(#felButtonGradient)" stroke="url(#felBorderGradient)" stroke-width="1" filter="url(#felGlow)" />
  
  <!-- Fel corruption tendril corner embellishments -->
  <path d="M 4,10 C 6,4 8,6 12,4 C 8,6 6,4 4,10 Z" 
        fill="#00AA00" fill-opacity="0.7" />
  <path d="M 60,10 C 58,4 56,6 52,4 C 56,6 58,4 60,10 Z" 
        fill="#00AA00" fill-opacity="0.7" />
  <path d="M 4,54 C 6,60 8,58 12,60 C 8,58 6,60 4,54 Z" 
        fill="#00AA00" fill-opacity="0.7" />
  <path d="M 60,54 C 58,60 56,58 52,60 C 56,58 58,60 60,54 Z" 
        fill="#00AA00" fill-opacity="0.7" />
  
  <!-- Highlight overlay for top edge -->
  <path d="M 6,2 H 58 C 60,2 62,4 62,6 V 10 C 62,8 60,4 58,4 H 6 C 4,4 2,8 2,10 V 6 C 2,4 4,2 6,2 Z" 
        fill="#1AFF1A" fill-opacity="0.2" />
  
  <!-- Subtle inner border -->
  <rect x="6" y="6" width="52" height="52" rx="2" ry="2" 
        fill="none" stroke="#051405" stroke-width="0.5" stroke-opacity="0.2" />
</svg>