<?xml version="1.0" encoding="UTF-8"?>
<svg width="256" height="32" viewBox="0 0 256 32" xmlns="http://www.w3.org/2000/svg">
  <!-- Arcane Mystic themed cast bar background -->
  <defs>
    <linearGradient id="arcaneBackgroundGradient" x1="0%" y1="0%" x2="0%" y2="100%">
      <stop offset="0%" style="stop-color:#1F0F33;stop-opacity:0.95" />
      <stop offset="50%" style="stop-color:#1A0A2F;stop-opacity:0.9" />
      <stop offset="100%" style="stop-color:#1F0F33;stop-opacity:0.95" />
    </linearGradient>
  </defs>
  
  <!-- Cast bar background with rounded corners -->
  <rect x="0" y="0" width="256" height="32" rx="8" ry="8" fill="url(#arcaneBackgroundGradient)" />
  
  <!-- Subtle arcane inner glow -->
  <rect x="1" y="1" width="254" height="30" rx="7" ry="7" 
        fill="none" stroke="#9D0DE6" stroke-opacity="0.15" stroke-width="1" />
  
  <!-- Subtle top highlight -->
  <path d="M 8,0 H 248 C 252,0 256,4 256,8 C 256,4 252,1 248,1 H 8 C 4,1 0,4 0,8 C 0,4 4,0 8,0 Z" 
        fill="#D459FF" fill-opacity="0.1" />
        
  <!-- Subtle arcane rune patterns in background -->
  <circle cx="64" cy="16" r="6" stroke="#9D0DE6" stroke-width="0.5" stroke-opacity="0.2" fill="none" />
  <circle cx="192" cy="16" r="6" stroke="#9D0DE6" stroke-width="0.5" stroke-opacity="0.2" fill="none" />
  
  <!-- Arcane symbols -->
  <path d="M 64,13 L 64,19 M 61,16 L 67,16" stroke="#9D0DE6" stroke-width="0.5" stroke-opacity="0.2" fill="none" />
  <path d="M 192,13 L 192,19 M 189,16 L 195,16" stroke="#9D0DE6" stroke-width="0.5" stroke-opacity="0.2" fill="none" />
</svg>