<?xml version="1.0" encoding="UTF-8"?>
<svg width="128" height="128" viewBox="0 0 128 128" xmlns="http://www.w3.org/2000/svg">
  <!-- Position of Power border texture (Arcane Mystic theme) -->
  <defs>
    <linearGradient id="arcaneBorderGradient" x1="0%" y1="0%" x2="100%" y2="100%">
      <stop offset="0%" style="stop-color:#9D0DE6;stop-opacity:0.7" />
      <stop offset="25%" style="stop-color:#D459FF;stop-opacity:0.9" />
      <stop offset="50%" style="stop-color:#9D0DE6;stop-opacity:0.7" />
      <stop offset="75%" style="stop-color:#D459FF;stop-opacity:0.9" />
      <stop offset="100%" style="stop-color:#9D0DE6;stop-opacity:0.7" />
    </linearGradient>
    
    <filter id="arcaneGlow" x="-10%" y="-10%" width="120%" height="120%">
      <feGaussianBlur stdDeviation="2" result="blur" />
      <feFlood flood-color="#9D0DE6" flood-opacity="0.5" result="glow" />
      <feComposite in="glow" in2="blur" operator="in" result="softGlow" />
      <feComposite in="SourceGraphic" in2="softGlow" operator="over" />
    </filter>
  </defs>
  
  <!-- Outer square border -->
  <rect x="6" y="6" width="116" height="116" rx="4" ry="4" 
        fill="none" stroke="url(#arcaneBorderGradient)" stroke-width="2" filter="url(#arcaneGlow)" />
  
  <!-- Corner accents with Arcane Mystic styling -->
  <path d="M 6,24 L 6,6 L 24,6" fill="none" stroke="url(#arcaneBorderGradient)" stroke-width="3" filter="url(#arcaneGlow)" />
  <path d="M 104,6 L 122,6 L 122,24" fill="none" stroke="url(#arcaneBorderGradient)" stroke-width="3" filter="url(#arcaneGlow)" />
  <path d="M 6,104 L 6,122 L 24,122" fill="none" stroke="url(#arcaneBorderGradient)" stroke-width="3" filter="url(#arcaneGlow)" />
  <path d="M 104,122 L 122,122 L 122,104" fill="none" stroke="url(#arcaneBorderGradient)" stroke-width="3" filter="url(#arcaneGlow)" />
  
  <!-- Central highlight dot markers with Arcane Mystic glow -->
  <circle cx="64" cy="6" r="2" fill="#D459FF" filter="url(#arcaneGlow)" />
  <circle cx="122" cy="64" r="2" fill="#D459FF" filter="url(#arcaneGlow)" />
  <circle cx="64" cy="122" r="2" fill="#D459FF" filter="url(#arcaneGlow)" />
  <circle cx="6" cy="64" r="2" fill="#D459FF" filter="url(#arcaneGlow)" />
  
  <!-- Arcane rune corner indicators -->
  <circle cx="16" cy="16" r="4" stroke="#D459FF" stroke-width="1" fill="none" />
  <path d="M 16,12 L 16,20 M 12,16 L 20,16" stroke="#D459FF" stroke-width="0.7" />
  
  <circle cx="112" cy="16" r="4" stroke="#D459FF" stroke-width="1" fill="none" />
  <path d="M 112,12 L 112,20 M 108,16 L 116,16" stroke="#D459FF" stroke-width="0.7" />
  
  <circle cx="16" cy="112" r="4" stroke="#D459FF" stroke-width="1" fill="none" />
  <path d="M 16,108 L 16,116 M 12,112 L 20,112" stroke="#D459FF" stroke-width="0.7" />
  
  <circle cx="112" cy="112" r="4" stroke="#D459FF" stroke-width="1" fill="none" />
  <path d="M 112,108 L 112,116 M 108,112 L 116,112" stroke="#D459FF" stroke-width="0.7" />
  
  <!-- Arcane mystic decorations -->
  <path d="M 64,6 m -14,0 a 14,3 0 0,1 28,0 a 14,3 0 0,1 -28,0" 
        fill="none" stroke="#D459FF" stroke-width="0.7" stroke-opacity="0.5" />
  <path d="M 122,64 m 0,-14 a 3,14 0 0,1 0,28 a 3,14 0 0,1 0,-28" 
        fill="none" stroke="#D459FF" stroke-width="0.7" stroke-opacity="0.5" />
  <path d="M 64,122 m -14,0 a 14,3 0 0,0 28,0 a 14,3 0 0,0 -28,0" 
        fill="none" stroke="#D459FF" stroke-width="0.7" stroke-opacity="0.5" />
  <path d="M 6,64 m 0,-14 a 3,14 0 0,0 0,28 a 3,14 0 0,0 0,-28" 
        fill="none" stroke="#D459FF" stroke-width="0.7" stroke-opacity="0.5" />
</svg>