<?xml version="1.0" encoding="UTF-8" standalone="no"?>
<svg xmlns="http://www.w3.org/2000/svg" width="256" height="8" viewBox="0 0 256 8">
  <defs>
    <linearGradient id="gradient" x1="0%" y1="0%" x2="100%" y2="0%">
      <stop offset="0%" stop-color="#9D0DE6" stop-opacity="1" />
      <stop offset="100%" stop-color="#B340FF" stop-opacity="0.9" />
    </linearGradient>
    <filter id="glow" x="-10%" y="-10%" width="120%" height="120%">
      <feGaussianBlur in="SourceGraphic" stdDeviation="0.5" result="blur" />
      <feComposite in="blur" in2="SourceGraphic" operator="over" />
    </filter>
    <pattern id="arcane" patternUnits="userSpaceOnUse" width="32" height="8">
      <circle cx="16" cy="4" r="0.75" fill="#D699FF" opacity="0.3">
        <animate attributeName="opacity" values="0.1;0.4;0.1" dur="3s" repeatCount="indefinite" />
        <animate attributeName="r" values="0.5;1;0.5" dur="3s" repeatCount="indefinite" />
      </circle>
    </pattern>
  </defs>
  <rect width="256" height="8" fill="url(#gradient)" filter="url(#glow)" rx="2" ry="2" />
  <rect width="256" height="8" fill="url(#arcane)" rx="2" ry="2" />
  <g opacity="0.3">
    <path d="M 12,4 L 18,2 L 24,4 L 30,2 L 36,4 L 42,2 L 48,4 L 54,2 L 60,4 L 66,2 L 72,4 L 78,2 L 84,4 L 90,2 L 96,4 L 102,2 L 108,4 L 114,2 L 120,4 L 126,2 L 132,4 L 138,2 L 144,4 L 150,2 L 156,4 L 162,2 L 168,4 L 174,2 L 180,4 L 186,2 L 192,4 L 198,2 L 204,4 L 210,2 L 216,4 L 222,2 L 228,4 L 234,2 L 240,4 L 246,2" stroke="#FFF" stroke-width="0.3" fill="none" />
  </g>
</svg>