<?xml version="1.0" encoding="UTF-8" standalone="no"?>
<svg xmlns="http://www.w3.org/2000/svg" width="256" height="16" viewBox="0 0 256 16">
  <defs>
    <linearGradient id="gradient" x1="0%" y1="0%" x2="100%" y2="0%">
      <stop offset="0%" stop-color="#9D0DE6" stop-opacity="1" />
      <stop offset="100%" stop-color="#B340FF" stop-opacity="0.9" />
    </linearGradient>
    <filter id="glow" x="-10%" y="-10%" width="120%" height="120%">
      <feGaussianBlur in="SourceGraphic" stdDeviation="1" result="blur" />
      <feComposite in="blur" in2="SourceGraphic" operator="over" />
    </filter>
    <pattern id="arcane" patternUnits="userSpaceOnUse" width="32" height="16">
      <circle cx="16" cy="8" r="1.5" fill="#D699FF" opacity="0.3">
        <animate attributeName="opacity" values="0.1;0.4;0.1" dur="3s" repeatCount="indefinite" />
        <animate attributeName="r" values="1;2;1" dur="3s" repeatCount="indefinite" />
      </circle>
    </pattern>
  </defs>
  <rect width="256" height="16" fill="url(#gradient)" filter="url(#glow)" rx="4" ry="4" />
  <rect width="256" height="16" fill="url(#arcane)" rx="4" ry="4" />
  <g opacity="0.3">
    <path d="M 12,8 L 18,4 L 24,8 L 30,4 L 36,8 L 42,4 L 48,8 L 54,4 L 60,8 L 66,4 L 72,8 L 78,4 L 84,8 L 90,4 L 96,8 L 102,4 L 108,8 L 114,4 L 120,8 L 126,4 L 132,8 L 138,4 L 144,8 L 150,4 L 156,8 L 162,4 L 168,8 L 174,4 L 180,8 L 186,4 L 192,8 L 198,4 L 204,8 L 210,4 L 216,8 L 222,4 L 228,8 L 234,4 L 240,8 L 246,4" stroke="#FFF" stroke-width="0.5" fill="none" />
  </g>
</svg>