<?xml version="1.0" encoding="UTF-8" standalone="no"?>
<svg xmlns="http://www.w3.org/2000/svg" width="256" height="32" viewBox="0 0 256 32">
  <defs>
    <linearGradient id="gradient" x1="0%" y1="0%" x2="100%" y2="0%">
      <stop offset="0%" stop-color="#9D0DE6" stop-opacity="1" />
      <stop offset="100%" stop-color="#B340FF" stop-opacity="0.9" />
    </linearGradient>
    <filter id="glow" x="-10%" y="-10%" width="120%" height="120%">
      <feGaussianBlur in="SourceGraphic" stdDeviation="2" result="blur" />
      <feComposite in="blur" in2="SourceGraphic" operator="over" />
    </filter>
    <pattern id="arcane" patternUnits="userSpaceOnUse" width="64" height="32">
      <circle cx="32" cy="16" r="3" fill="#D699FF" opacity="0.3">
        <animate attributeName="opacity" values="0.1;0.4;0.1" dur="3s" repeatCount="indefinite" />
        <animate attributeName="r" values="2;4;2" dur="3s" repeatCount="indefinite" />
      </circle>
    </pattern>
  </defs>
  <rect width="256" height="32" fill="url(#gradient)" filter="url(#glow)" rx="6" ry="6" />
  <rect width="256" height="32" fill="url(#arcane)" rx="6" ry="6" />
  <g opacity="0.2">
    <path d="M 24,16 L 36,8 L 48,16 L 60,8 L 72,16 L 84,8 L 96,16 L 108,8 L 120,16 L 132,8 L 144,16 L 156,8 L 168,16 L 180,8 L 192,16 L 204,8 L 216,16 L 228,8 L 240,16" stroke="#FFF" stroke-width="1" fill="none" />
  </g>
</svg>