<?xml version="1.0" encoding="UTF-8"?>
<svg width="256" height="20" viewBox="0 0 256 20" xmlns="http://www.w3.org/2000/svg">
  <!-- Arcane Mystic themed mana power bar texture -->
  <defs>
    <linearGradient id="arcaneManaGradient" x1="0%" y1="0%" x2="0%" y2="100%">
      <stop offset="0%" style="stop-color:#1A0A2F;stop-opacity:0.9" />
      <stop offset="50%" style="stop-color:#140823;stop-opacity:0.8" />
      <stop offset="100%" style="stop-color:#0A051A;stop-opacity:0.9" />
    </linearGradient>
    
    <linearGradient id="arcaneManaHighlightGradient" x1="0%" y1="0%" x2="0%" y2="100%">
      <stop offset="0%" style="stop-color:#4A9DFF;stop-opacity:0.5" />
      <stop offset="100%" style="stop-color:#1A64BE;stop-opacity:0.1" />
    </linearGradient>
    
    <linearGradient id="arcaneMysticGradient" x1="0%" y1="0%" x2="0%" y2="100%">
      <stop offset="0%" style="stop-color:#D459FF;stop-opacity:0.3" />
      <stop offset="100%" style="stop-color:#9D0DE6;stop-opacity:0.0" />
    </linearGradient>
    
    <filter id="arcaneManaGlow" x="-5%" y="-20%" width="110%" height="140%">
      <feGaussianBlur stdDeviation="0.5" result="blur" />
      <feComposite in="SourceGraphic" in2="blur" operator="over" />
    </filter>
  </defs>
  
  <!-- Main power bar background -->
  <rect x="0" y="0" width="256" height="20" rx="3" ry="3" fill="url(#arcaneManaGradient)" filter="url(#arcaneManaGlow)" />
  
  <!-- Top highlight for arcane mystic effect -->
  <path d="M 3,3 H 253 V 7 C 253,5 251,5 249,5 H 7 C 5,5 3,5 3,7 V 3 Z" 
        fill="url(#arcaneManaHighlightGradient)" />
        
  <!-- Bottom shadow for 3D effect with arcane mystic -->
  <path d="M 3,17 H 253 V 13 C 253,15 251,15 249,15 H 7 C 5,15 3,15 3,13 V 17 Z" 
        fill="url(#arcaneMysticGradient)" />
  
  <!-- Arcane rune pattern -->
  <path d="M 32,10 m -3,0 a 3,2 0 1,0 6,0 a 3,2 0 1,0 -6,0
           M 96,10 m -3,0 a 3,2 0 1,0 6,0 a 3,2 0 1,0 -6,0
           M 160,10 m -3,0 a 3,2 0 1,0 6,0 a 3,2 0 1,0 -6,0
           M 224,10 m -3,0 a 3,2 0 1,0 6,0 a 3,2 0 1,0 -6,0" 
        stroke="#4A9DFF" stroke-width="0.7" stroke-opacity="0.3" fill="none" />
  
  <!-- Cross patterns in runes -->
  <path d="M 32,8 L 32,12 M 30,10 L 34,10" stroke="#2E7CD7" stroke-width="0.5" stroke-opacity="0.3" />
  <path d="M 96,8 L 96,12 M 94,10 L 98,10" stroke="#2E7CD7" stroke-width="0.5" stroke-opacity="0.3" />
  <path d="M 160,8 L 160,12 M 158,10 L 162,10" stroke="#2E7CD7" stroke-width="0.5" stroke-opacity="0.3" />
  <path d="M 224,8 L 224,12 M 222,10 L 226,10" stroke="#2E7CD7" stroke-width="0.5" stroke-opacity="0.3" />
  
  <!-- Subtle arcane energy flow with mana color -->
  <path d="M 0,10 m -110,0 a 110,3 0 0,1 220,0 a 110,3 0 0,1 -220,0" 
        stroke="#1A64BE" stroke-width="0.5" stroke-opacity="0.2" fill="none" transform="translate(128,0)" />
  <path d="M 0,10 m -90,0 a 90,2 0 0,1 180,0 a 90,2 0 0,1 -180,0" 
        stroke="#1A64BE" stroke-width="0.5" stroke-opacity="0.2" fill="none" transform="translate(128,0)" />
</svg>