<?xml version="1.0" encoding="UTF-8" standalone="no"?>
<svg xmlns="http://www.w3.org/2000/svg" width="256" height="8" viewBox="0 0 256 8">
  <defs>
    <linearGradient id="gradient" x1="0%" y1="0%" x2="100%" y2="0%">
      <stop offset="0%" stop-color="#0D9DE6" stop-opacity="1" />
      <stop offset="100%" stop-color="#40B3FF" stop-opacity="0.9" />
    </linearGradient>
    <filter id="glow" x="-10%" y="-10%" width="120%" height="120%">
      <feGaussianBlur in="SourceGraphic" stdDeviation="0.5" result="blur" />
      <feComposite in="blur" in2="SourceGraphic" operator="over" />
    </filter>
    <pattern id="lightning" patternUnits="userSpaceOnUse" width="32" height="8">
      <path d="M 16,1 L 17,4 L 15,4 L 16,7" stroke="#99DDFF" stroke-width="0.3" fill="none" opacity="0.3">
        <animate attributeName="opacity" values="0.1;0.4;0.1" dur="3s" repeatCount="indefinite" />
      </path>
    </pattern>
  </defs>
  <rect width="256" height="8" fill="url(#gradient)" filter="url(#glow)" rx="2" ry="2" />
  <rect width="256" height="8" fill="url(#lightning)" rx="2" ry="2" />
  <g opacity="0.3">
    <path d="M 8,4 L 16,2 L 24,4 L 32,2 L 40,4 L 48,2 L 56,4 L 64,2 L 72,4 L 80,2 L 88,4 L 96,2 L 104,4 L 112,2 L 120,4 L 128,2 L 136,4 L 144,2 L 152,4 L 160,2 L 168,4 L 176,2 L 184,4 L 192,2 L 200,4 L 208,2 L 216,4 L 224,2 L 232,4 L 240,2 L 248,4" stroke="#FFF" stroke-width="0.3" fill="none" />
  </g>
</svg>