<?xml version="1.0" encoding="UTF-8"?>
<svg width="256" height="128" viewBox="0 0 256 128" xmlns="http://www.w3.org/2000/svg">
  <!-- Phoenix Flame Enhanced Player Frame texture -->
  <defs>
    <linearGradient id="phoenixFrameGradient" x1="0%" y1="0%" x2="0%" y2="100%">
      <stop offset="0%" style="stop-color:#1A0A05;stop-opacity:0.9" />
      <stop offset="50%" style="stop-color:#140803;stop-opacity:0.8" />
      <stop offset="100%" style="stop-color:#0A0503;stop-opacity:0.9" />
    </linearGradient>
    
    <linearGradient id="phoenixHighlightGradient" x1="0%" y1="0%" x2="0%" y2="100%">
      <stop offset="0%" style="stop-color:#FFA31A;stop-opacity:0.3" />
      <stop offset="100%" style="stop-color:#FFA31A;stop-opacity:0.0" />
    </linearGradient>
    
    <linearGradient id="phoenixBorderGradient" x1="0%" y1="0%" x2="100%" y2="100%">
      <stop offset="0%" style="stop-color:#E64D0D;stop-opacity:1" />
      <stop offset="50%" style="stop-color:#FFA31A;stop-opacity:1" />
      <stop offset="100%" style="stop-color:#E64D0D;stop-opacity:1" />
    </linearGradient>
    
    <filter id="phoenixGlow" x="-5%" y="-5%" width="110%" height="110%">
      <feGaussianBlur stdDeviation="2" result="blur" />
      <feComposite in="SourceGraphic" in2="blur" operator="over" />
    </filter>
    
    <filter id="flameBorderGlow" x="-10%" y="-10%" width="120%" height="120%">
      <feGaussianBlur stdDeviation="1" result="blur" />
      <feFlood flood-color="#E64D0D" flood-opacity="0.5" result="glow" />
      <feComposite in="glow" in2="blur" operator="in" result="softGlow" />
      <feComposite in="SourceGraphic" in2="softGlow" operator="over" />
    </filter>
  </defs>
  
  <!-- Main frame background with rounded corners -->
  <rect x="8" y="8" width="240" height="112" rx="6" ry="6" fill="url(#phoenixFrameGradient)" filter="url(#phoenixGlow)" />
  
  <!-- Portrait area circle cutout (indicated with a different color) -->
  <circle cx="58" cy="64" r="42" fill="#1F0D07" />
  
  <!-- Player info area (right of portrait) -->
  <rect x="108" y="22" width="130" height="30" rx="4" ry="4" fill="#1F0D07" />
  
  <!-- Health bar area -->
  <rect x="108" y="60" width="130" height="20" rx="3" ry="3" fill="#2A1207" />
  
  <!-- Power bar area -->
  <rect x="108" y="86" width="130" height="20" rx="3" ry="3" fill="#2A1207" />
  
  <!-- Top highlight for Phoenix Flame effect -->
  <path d="M 14,14 H 242 V 20 C 242,17 240,17 236,17 H 20 C 16,17 14,17 14,20 V 14 Z" 
        fill="url(#phoenixHighlightGradient)" />
        
  <!-- Bottom shadow for Phoenix Flame effect -->
  <path d="M 14,114 H 242 V 108 C 242,111 240,111 236,111 H 20 C 16,111 14,111 14,108 V 114 Z" 
        fill="#000000" fill-opacity="0.3" />
  
  <!-- Phoenix Flame frame edge (border) -->
  <rect x="8" y="8" width="240" height="112" rx="6" ry="6" 
        fill="none" stroke="url(#phoenixBorderGradient)" stroke-width="1.5" filter="url(#flameBorderGlow)" />
  
  <!-- Ember flame decorations -->
  <path d="M 20,8 Q 24,4 28,8 Q 32,12 36,8 Q 40,4 44,8
           M 64,8 Q 68,4 72,8 Q 76,12 80,8 Q 84,4 88,8
           M 108,8 Q 112,4 116,8 Q 120,12 124,8 Q 128,4 132,8
           M 152,8 Q 156,4 160,8 Q 164,12 168,8 Q 172,4 176,8
           M 196,8 Q 200,4 204,8 Q 208,12 212,8 Q 216,4 220,8" 
        fill="none" stroke="#FFA31A" stroke-width="0.7" stroke-opacity="0.5" />
</svg>