<?xml version="1.0" encoding="UTF-8" standalone="no"?>
<svg xmlns="http://www.w3.org/2000/svg" viewBox="0 0 128 128" width="128" height="128">
  <!-- Fel Energy Theme Icon -->
  <!-- Base circle with gradient -->
  <circle cx="64" cy="64" r="60" fill="url(#felGradient)" />
  
  <!-- Fel energy aura -->
  <circle cx="64" cy="64" r="50" fill="none" stroke="#1aff1a" stroke-width="3" stroke-opacity="0.3" />
  <circle cx="64" cy="64" r="50" fill="none" stroke="#1aff1a" stroke-width="1" stroke-opacity="0.8" />
  
  <!-- Fel corruption pattern -->
  <path d="M64 20 C90 35, 85 65, 64 80 C43 65, 38 35, 64 20" fill="none" stroke="#1aff1a" stroke-width="2" />
  <path d="M30 50 C50 45, 60 75, 40 85 C30 65, 20 55, 30 50" fill="none" stroke="#1aff1a" stroke-width="2" />
  <path d="M98 50 C78 45, 68 75, 88 85 C98 65, 108 55, 98 50" fill="none" stroke="#1aff1a" stroke-width="2" />
  
  <!-- Fel orb -->
  <circle cx="64" cy="64" r="15" fill="url(#felOrbGradient)" />
  
  <!-- Fel energy tendrils -->
  <path d="M64 49 C66 45, 70 47, 73 42 C76 37, 72 32, 75 25" fill="none" stroke="#1aff1a" stroke-width="1.5" />
  <path d="M79 64 C83 66, 81 70, 86 73 C91 76, 96 72, 103 75" fill="none" stroke="#1aff1a" stroke-width="1.5" />
  <path d="M64 79 C62 83, 58 81, 55 86 C52 91, 56 96, 53 103" fill="none" stroke="#1aff1a" stroke-width="1.5" />
  <path d="M49 64 C45 62, 47 58, 42 55 C37 52, 32 56, 25 53" fill="none" stroke="#1aff1a" stroke-width="1.5" />
  
  <!-- Fel energy particles -->
  <circle cx="75" cy="25" r="2" fill="#1aff1a" />
  <circle cx="103" cy="75" r="2" fill="#1aff1a" />
  <circle cx="53" cy="103" r="2" fill="#1aff1a" />
  <circle cx="25" cy="53" r="2" fill="#1aff1a" />
  
  <!-- Circular border -->
  <circle cx="64" cy="64" r="60" fill="none" stroke="#1aff1a" stroke-width="4" />
  
  <!-- Definitions -->
  <defs>
    <linearGradient id="felGradient" x1="0%" y1="0%" x2="100%" y2="100%">
      <stop offset="0%" stop-color="#0a1a0a" />
      <stop offset="100%" stop-color="#102a10" />
    </linearGradient>
    <radialGradient id="felOrbGradient" cx="50%" cy="50%" r="50%" fx="50%" fy="50%">
      <stop offset="0%" stop-color="#7dff7d" />
      <stop offset="50%" stop-color="#1aff1a" />
      <stop offset="100%" stop-color="#00aa00" />
    </radialGradient>
  </defs>
</svg>