<?xml version="1.0" encoding="UTF-8"?>
<svg width="64" height="64" viewBox="0 0 64 64" xmlns="http://www.w3.org/2000/svg">
  <defs>
    <linearGradient id="felBorderGradient" x1="0%" y1="0%" x2="100%" y2="100%">
      <stop offset="0%" style="stop-color:#1AFF1A;stop-opacity:0.8" />
      <stop offset="50%" style="stop-color:#00AA00;stop-opacity:0.6" />
      <stop offset="100%" style="stop-color:#006600;stop-opacity:0.8" />
    </linearGradient>
  </defs>
  
  <!-- Fel Energy themed border for TrufiGCD -->
  <rect x="2" y="2" width="60" height="60" rx="4" ry="4" 
        fill="none" stroke="url(#felBorderGradient)" stroke-width="2" />
  
  <!-- Optional corner accents with fel corruption style -->
  <path d="M2,12 L2,6 Q2,2 6,2 L12,2" stroke="url(#felBorderGradient)" stroke-width="3" fill="none" />
  <path d="M52,2 L58,2 Q62,2 62,6 L62,12" stroke="url(#felBorderGradient)" stroke-width="3" fill="none" />
  <path d="M62,52 L62,58 Q62,62 58,62 L52,62" stroke="url(#felBorderGradient)" stroke-width="3" fill="none" />
  <path d="M12,62 L6,62 Q2,62 2,58 L2,52" stroke="url(#felBorderGradient)" stroke-width="3" fill="none" />
  
  <!-- Fel corruption tendrils -->
  <path d="M8,4 C4,8 8,12 4,10" stroke="#1AFF1A" stroke-width="1" fill="none" />
  <path d="M56,4 C60,8 56,12 60,10" stroke="#1AFF1A" stroke-width="1" fill="none" />
  <path d="M8,60 C4,56 8,52 4,54" stroke="#1AFF1A" stroke-width="1" fill="none" />
  <path d="M56,60 C60,56 56,52 60,54" stroke="#1AFF1A" stroke-width="1" fill="none" />
</svg>