<?xml version="1.0" encoding="UTF-8"?>
<svg width="256" height="24" viewBox="0 0 256 24" xmlns="http://www.w3.org/2000/svg">
  <!-- Fel Energy themed nameplate cast bar texture -->
  <defs>
    <linearGradient id="felCastBarGradient" x1="0%" y1="0%" x2="0%" y2="100%">
      <stop offset="0%" style="stop-color:#0A1A0A;stop-opacity:0.9" />
      <stop offset="50%" style="stop-color:#081408;stop-opacity:0.8" />
      <stop offset="100%" style="stop-color:#050A05;stop-opacity:0.9" />
    </linearGradient>
    
    <linearGradient id="felCastHighlightGradient" x1="0%" y1="0%" x2="0%" y2="100%">
      <stop offset="0%" style="stop-color:#1AFF1A;stop-opacity:0.5" />
      <stop offset="100%" style="stop-color:#00AA00;stop-opacity:0.0" />
    </linearGradient>
    
    <filter id="felCastGlow" x="-5%" y="-20%" width="110%" height="140%">
      <feGaussianBlur stdDeviation="1" result="blur" />
      <feComposite in="SourceGraphic" in2="blur" operator="over" />
    </filter>
  </defs>
  
  <!-- Main cast bar background - this will be partially filled based on cast progress -->
  <rect x="0" y="0" width="256" height="24" rx="3" ry="3" fill="url(#felCastBarGradient)" filter="url(#felCastGlow)" />
  
  <!-- Top highlight for fel energy effect -->
  <path d="M 3,3 H 253 V 8 C 253,6 251,6 249,6 H 7 C 5,6 3,6 3,8 V 3 Z" 
        fill="url(#felCastHighlightGradient)" />
        
  <!-- Bottom shadow for 3D effect -->
  <path d="M 3,21 H 253 V 16 C 253,18 251,18 249,18 H 7 C 5,18 3,18 3,16 V 21 Z" 
        fill="#000000" fill-opacity="0.2" />
  
  <!-- Fel corruption tendril patterns -->
  <path d="M 32,8 C 30,5 34,5 36,3 C 34,5 30,5 32,8 Z M 96,8 C 94,5 98,5 100,3 C 98,5 94,5 96,8 Z
           M 160,8 C 158,5 162,5 164,3 C 162,5 158,5 160,8 Z M 224,8 C 222,5 226,5 228,3 C 226,5 222,5 224,8 Z"
        fill="#00AA00" fill-opacity="0.4" />
  
  <path d="M 32,16 C 34,19 30,19 28,21 C 30,19 34,19 32,16 Z M 96,16 C 98,19 94,19 92,21 C 94,19 98,19 96,16 Z
           M 160,16 C 162,19 158,19 156,21 C 158,19 162,19 160,16 Z M 224,16 C 226,19 222,19 220,21 C 222,19 226,19 224,16 Z"
        fill="#00AA00" fill-opacity="0.4" />
  
  <!-- Subtle corruption texture -->
  <path d="M 0,12 C 16,16 32,8 48,12 C 64,16 80,8 96,12 C 112,16 128,8 144,12 
           C 160,16 176,8 192,12 C 208,16 224,8 240,12 C 256,16"
        stroke="#1AFF1A" stroke-width="0.5" stroke-opacity="0.3" fill="none" />
</svg>