<?xml version="1.0" encoding="UTF-8"?>
<svg width="256" height="32" viewBox="0 0 256 32" xmlns="http://www.w3.org/2000/svg">
  <!-- Fel Energy themed nameplate health bar texture -->
  <defs>
    <linearGradient id="felBarGradient" x1="0%" y1="0%" x2="0%" y2="100%">
      <stop offset="0%" style="stop-color:#0A1A0A;stop-opacity:0.9" />
      <stop offset="50%" style="stop-color:#081408;stop-opacity:0.8" />
      <stop offset="100%" style="stop-color:#050A05;stop-opacity:0.9" />
    </linearGradient>
    
    <linearGradient id="felHighlightGradient" x1="0%" y1="0%" x2="0%" y2="100%">
      <stop offset="0%" style="stop-color:#1AFF1A;stop-opacity:0.4" />
      <stop offset="100%" style="stop-color:#00AA00;stop-opacity:0.0" />
    </linearGradient>
    
    <filter id="felGlow" x="-5%" y="-20%" width="110%" height="140%">
      <feGaussianBlur stdDeviation="1" result="blur" />
      <feComposite in="SourceGraphic" in2="blur" operator="over" />
    </filter>
  </defs>
  
  <!-- Main bar background - this will be colorized by the game based on unit type -->
  <rect x="0" y="0" width="256" height="32" rx="4" ry="4" fill="url(#felBarGradient)" filter="url(#felGlow)" />
  
  <!-- Top highlight for fel energy effect -->
  <path d="M 4,4 H 252 V 12 C 252,8 250,8 248,8 H 8 C 6,8 4,8 4,12 V 4 Z" 
        fill="url(#felHighlightGradient)" />
        
  <!-- Bottom shadow for 3D effect -->
  <path d="M 4,28 H 252 V 20 C 252,24 250,24 248,24 H 8 C 6,24 4,24 4,20 V 28 Z" 
        fill="#000000" fill-opacity="0.2" />
  
  <!-- Fel corruption tendril patterns -->
  <path d="M 32,12 C 30,8 34,8 36,6 C 34,8 30,8 32,12 Z M 96,12 C 94,8 98,8 100,6 C 98,8 94,8 96,12 Z
           M 160,12 C 158,8 162,8 164,6 C 162,8 158,8 160,12 Z M 224,12 C 222,8 226,8 228,6 C 226,8 222,8 224,12 Z"
        fill="#00AA00" fill-opacity="0.3" />
  
  <path d="M 32,20 C 34,24 30,24 28,26 C 30,24 34,24 32,20 Z M 96,20 C 98,24 94,24 92,26 C 94,24 98,24 96,20 Z
           M 160,20 C 162,24 158,24 156,26 C 158,24 162,24 160,20 Z M 224,20 C 226,24 222,24 220,26 C 222,24 226,24 224,20 Z"
        fill="#00AA00" fill-opacity="0.3" />
  
  <!-- Subtle corruption texture -->
  <path d="M 0,16 C 16,20 32,12 48,16 C 64,20 80,12 96,16 C 112,20 128,12 144,16 
           C 160,20 176,12 192,16 C 208,20 224,12 240,16 C 256,20"
        stroke="#1AFF1A" stroke-width="0.5" stroke-opacity="0.1" fill="none" />
</svg>