<?xml version="1.0" encoding="UTF-8"?>
<svg width="256" height="256" viewBox="0 0 256 256" xmlns="http://www.w3.org/2000/svg">
  <!-- Phoenix Flame themed MSBT animation path texture -->
  <defs>
    <linearGradient id="phoenixPathGradient" x1="0%" y1="0%" x2="100%" y2="100%">
      <stop offset="0%" style="stop-color:#FFA31A;stop-opacity:0.7" />
      <stop offset="50%" style="stop-color:#E64D0D;stop-opacity:0.5" />
      <stop offset="100%" style="stop-color:#AA3A0A;stop-opacity:0.7" />
    </linearGradient>
    
    <filter id="flameGlow" x="-10%" y="-10%" width="120%" height="120%">
      <feGaussianBlur stdDeviation="1.5" result="blur" />
      <feComposite in="SourceGraphic" in2="blur" operator="over" />
    </filter>
  </defs>
  
  <!-- Curved path for scrolling text to follow -->
  <path d="M 10,128 C 50,80 100,60 128,60 S 206,80 246,128" 
        fill="none" stroke="url(#phoenixPathGradient)" stroke-width="2" stroke-dasharray="6,2" filter="url(#flameGlow)" />
  
  <!-- Reverse curved path (bottom) -->
  <path d="M 10,128 C 50,176 100,196 128,196 S 206,176 246,128" 
        fill="none" stroke="url(#phoenixPathGradient)" stroke-width="2" stroke-dasharray="6,2" filter="url(#flameGlow)" />
  
  <!-- Straight path (horizontal) -->
  <path d="M 10,128 H 246" 
        fill="none" stroke="url(#phoenixPathGradient)" stroke-width="2" stroke-dasharray="6,2" filter="url(#flameGlow)" />
  
  <!-- Parabolic path (downward) -->
  <path d="M 10,60 Q 128,196 246,60" 
        fill="none" stroke="url(#phoenixPathGradient)" stroke-width="2" stroke-dasharray="6,2" filter="url(#flameGlow)" />
        
  <!-- Flame-styled zigzag path -->
  <path d="M 10,100 C 30,140 40,130 66,156 C 80,130 90,160 122,100 C 140,140 150,130 178,156 C 190,130 210,160 234,100" 
        fill="none" stroke="url(#phoenixPathGradient)" stroke-width="2" stroke-dasharray="6,2" filter="url(#flameGlow)" />
  
  <!-- Small flame decorations -->
  <path d="M 10,128 Q 14,120 18,128 Q 22,136 26,128" stroke="#FFA31A" stroke-width="1" fill="none" opacity="0.5" />
  <path d="M 230,128 Q 234,120 238,128 Q 242,136 246,128" stroke="#FFA31A" stroke-width="1" fill="none" opacity="0.5" />
</svg>