<?xml version="1.0" encoding="UTF-8"?>
<svg width="128" height="32" viewBox="0 0 128 32" xmlns="http://www.w3.org/2000/svg">
  <!-- Thunder Storm themed PGFinder button texture -->
  <defs>
    <linearGradient id="thunderButtonGradient" x1="0%" y1="0%" x2="0%" y2="100%">
      <stop offset="0%" style="stop-color:#0A0A1A;stop-opacity:0.9" />
      <stop offset="50%" style="stop-color:#080814;stop-opacity:0.85" />
      <stop offset="100%" style="stop-color:#05050A;stop-opacity:0.9" />
    </linearGradient>
    
    <linearGradient id="thunderBorderGradient" x1="0%" y1="0%" x2="100%" y2="100%">
      <stop offset="0%" style="stop-color:#73C2FB;stop-opacity:0.9" />
      <stop offset="50%" style="stop-color:#0D9DE6;stop-opacity:0.85" />
      <stop offset="100%" style="stop-color:#0072B5;stop-opacity:0.9" />
    </linearGradient>
    
    <filter id="thunderGlow" x="-20%" y="-20%" width="140%" height="140%">
      <feGaussianBlur in="SourceAlpha" stdDeviation="1" result="blur" />
      <feOffset dx="0" dy="1" result="offsetBlur" />
      <feComposite in="SourceAlpha" in2="offsetBlur" operator="out" result="innerShadow" />
      <feFlood flood-color="#0D9DE6" flood-opacity="0.3" result="color" />
      <feComposite in="color" in2="innerShadow" operator="in" result="shadow" />
      <feComposite in="shadow" in2="SourceGraphic" operator="over" />
    </filter>
  </defs>
  
  <!-- Button body -->
  <rect x="2" y="2" width="124" height="28" rx="3" ry="3" 
        fill="url(#thunderButtonGradient)" stroke="url(#thunderBorderGradient)" stroke-width="1" filter="url(#thunderGlow)" />
  
  <!-- Lightning corner embellishments -->
  <path d="M 6,5 L 7,9 L 4,9 L 5,13" stroke="#73C2FB" stroke-width="0.75" stroke-opacity="0.8" fill="none" />
  <path d="M 122,5 L 121,9 L 124,9 L 123,13" stroke="#73C2FB" stroke-width="0.75" stroke-opacity="0.8" fill="none" />
  <path d="M 6,27 L 7,23 L 4,23 L 5,19" stroke="#73C2FB" stroke-width="0.75" stroke-opacity="0.8" fill="none" />
  <path d="M 122,27 L 121,23 L 124,23 L 123,19" stroke="#73C2FB" stroke-width="0.75" stroke-opacity="0.8" fill="none" />
  
  <!-- Highlight for top edge -->
  <path d="M 5,2 H 123 C 125,2 126,3 126,5 V 7 C 126,5 125,4 123,4 H 5 C 3,4 2,5 2,7 V 5 C 2,3 3,2 5,2 Z" 
        fill="#73C2FB" fill-opacity="0.2" />
  
  <!-- Subtle inner border -->
  <rect x="4" y="4" width="120" height="24" rx="2" ry="2" 
        fill="none" stroke="#05050A" stroke-width="0.5" stroke-opacity="0.2" />
</svg>